<?xml version="1.0" encoding="utf-8"?>
<!-- Generator: Adobe Illustrator 24.0.3, SVG Export Plug-In . SVG Version: 6.00 Build 0)  -->
<svg version="1.1" xmlns="http://www.w3.org/2000/svg" xmlns:xlink="http://www.w3.org/1999/xlink" x="0px" y="0px"
	 viewBox="0 0 1609.77 629.34" style="enable-background:new 0 0 1609.77 629.34;" xml:space="preserve">
<style type="text/css">
	.st0{fill-rule:evenodd;clip-rule:evenodd;fill:#CBE8EC;}
	.st1{fill-rule:evenodd;clip-rule:evenodd;fill:#D4F0F3;}
	.st2{fill-rule:evenodd;clip-rule:evenodd;fill:#A2D4DC;}
	.st3{filter:url(#Adobe_OpacityMaskFilter);}
	.st4{fill-rule:evenodd;clip-rule:evenodd;fill:#FFFFFF;}
	.st5{mask:url(#mask-2_1_);fill-rule:evenodd;clip-rule:evenodd;fill:#CBE8EC;}
	.st6{fill-rule:evenodd;clip-rule:evenodd;fill:#BFDBDD;}
	.st7{fill-rule:evenodd;clip-rule:evenodd;fill:#A1C5C6;}
	.st8{fill-rule:evenodd;clip-rule:evenodd;fill:#162C30;}
	.st9{filter:url(#Adobe_OpacityMaskFilter_1_);}
	.st10{mask:url(#mask-4_1_);fill-rule:evenodd;clip-rule:evenodd;}
	.st11{fill-rule:evenodd;clip-rule:evenodd;fill:#3A3127;}
	.st12{filter:url(#Adobe_OpacityMaskFilter_2_);}
	.st13{mask:url(#mask-6_1_);fill-rule:evenodd;clip-rule:evenodd;fill:#110B06;}
	.st14{fill-rule:evenodd;clip-rule:evenodd;fill:#EEC295;}
	.st15{fill-rule:evenodd;clip-rule:evenodd;fill:#E41C34;}
	.st16{filter:url(#Adobe_OpacityMaskFilter_3_);}
	.st17{mask:url(#mask-8_1_);fill-rule:evenodd;clip-rule:evenodd;fill:#77BCC2;}
	.st18{filter:url(#Adobe_OpacityMaskFilter_4_);}
	.st19{mask:url(#mask-8_2_);fill-rule:evenodd;clip-rule:evenodd;fill:#B71632;}
	.st20{filter:url(#Adobe_OpacityMaskFilter_5_);}
	.st21{mask:url(#mask-10_1_);fill-rule:evenodd;clip-rule:evenodd;fill:#C19772;}
	.st22{fill-rule:evenodd;clip-rule:evenodd;fill:#CEA076;}
	.st23{filter:url(#Adobe_OpacityMaskFilter_6_);}
	.st24{mask:url(#mask-12_1_);fill-rule:evenodd;clip-rule:evenodd;}
	.st25{filter:url(#Adobe_OpacityMaskFilter_7_);}
	.st26{mask:url(#mask-14_1_);fill-rule:evenodd;clip-rule:evenodd;}
	.st27{filter:url(#Adobe_OpacityMaskFilter_8_);}
	.st28{mask:url(#mask-16_1_);fill-rule:evenodd;clip-rule:evenodd;}
	.st29{filter:url(#Adobe_OpacityMaskFilter_9_);}
	.st30{mask:url(#mask-18_1_);fill-rule:evenodd;clip-rule:evenodd;}
	.st31{fill-rule:evenodd;clip-rule:evenodd;fill:#A2DADB;}
	.st32{filter:url(#Adobe_OpacityMaskFilter_10_);}
	.st33{mask:url(#mask-20_1_);fill-rule:evenodd;clip-rule:evenodd;fill:#77BCC2;}
	.st34{fill:none;stroke:#010040;stroke-width:2.326;stroke-linecap:round;}
	.st35{fill-rule:evenodd;clip-rule:evenodd;fill:#519A98;}
	.st36{filter:url(#Adobe_OpacityMaskFilter_11_);}
	.st37{mask:url(#mask-22_1_);fill-rule:evenodd;clip-rule:evenodd;fill:#2F6663;}
	.st38{fill-rule:evenodd;clip-rule:evenodd;fill:#634933;}
	.st39{filter:url(#Adobe_OpacityMaskFilter_12_);}
	.st40{mask:url(#mask-24_1_);fill-rule:evenodd;clip-rule:evenodd;}
	.st41{filter:url(#Adobe_OpacityMaskFilter_13_);}
	.st42{mask:url(#mask-26_1_);fill-rule:evenodd;clip-rule:evenodd;}
	.st43{filter:url(#Adobe_OpacityMaskFilter_14_);}
	.st44{mask:url(#mask-28_1_);fill-rule:evenodd;clip-rule:evenodd;fill:#CC1B39;}
	.st45{filter:url(#Adobe_OpacityMaskFilter_15_);}
	.st46{mask:url(#mask-30_1_);fill-rule:evenodd;clip-rule:evenodd;fill:#BA8254;}
	.st47{filter:url(#Adobe_OpacityMaskFilter_16_);}
	.st48{mask:url(#mask-32_1_);fill-rule:evenodd;clip-rule:evenodd;fill:#77BCC2;}
	.st49{fill:none;stroke:#010040;stroke-width:3.115;stroke-linecap:round;}
	.st50{filter:url(#Adobe_OpacityMaskFilter_17_);}
	.st51{mask:url(#mask-34_1_);fill-rule:evenodd;clip-rule:evenodd;fill:#225653;}
	.st52{fill-rule:evenodd;clip-rule:evenodd;fill:#513928;}
	.st53{filter:url(#Adobe_OpacityMaskFilter_18_);}
	.st54{mask:url(#mask-36_1_);fill-rule:evenodd;clip-rule:evenodd;fill:#634933;}
	.st55{filter:url(#Adobe_OpacityMaskFilter_19_);}
	.st56{mask:url(#mask-38_1_);fill-rule:evenodd;clip-rule:evenodd;}
	.st57{filter:url(#Adobe_OpacityMaskFilter_20_);}
	.st58{mask:url(#mask-40_1_);fill-rule:evenodd;clip-rule:evenodd;fill:#CC1B39;}
	.st59{filter:url(#Adobe_OpacityMaskFilter_21_);}
	.st60{mask:url(#mask-42_1_);fill-rule:evenodd;clip-rule:evenodd;fill:#B58861;}
	.st61{filter:url(#Adobe_OpacityMaskFilter_22_);}
	.st62{mask:url(#mask-44_1_);fill-rule:evenodd;clip-rule:evenodd;fill:#77BCC2;}
	.st63{fill:none;stroke:#010040;stroke-width:1.842;stroke-linecap:round;}
	.st64{filter:url(#Adobe_OpacityMaskFilter_23_);}
	.st65{mask:url(#mask-46_1_);fill-rule:evenodd;clip-rule:evenodd;fill:#BFDBDD;}
	.st66{filter:url(#Adobe_OpacityMaskFilter_24_);}
	.st67{mask:url(#mask-48_1_);fill-rule:evenodd;clip-rule:evenodd;fill:#840814;}
	.st68{filter:url(#Adobe_OpacityMaskFilter_25_);}
	.st69{mask:url(#mask-50_1_);fill-rule:evenodd;clip-rule:evenodd;}
	.st70{filter:url(#Adobe_OpacityMaskFilter_26_);}
	.st71{mask:url(#mask-52_1_);fill-rule:evenodd;clip-rule:evenodd;fill:#E4111C;}
	.st72{filter:url(#Adobe_OpacityMaskFilter_27_);}
	.st73{mask:url(#mask-52_2_);fill-rule:evenodd;clip-rule:evenodd;fill:#E4111C;}
	.st74{filter:url(#Adobe_OpacityMaskFilter_28_);}
	.st75{mask:url(#mask-52_3_);fill-rule:evenodd;clip-rule:evenodd;fill:#BF1734;}
	.st76{filter:url(#Adobe_OpacityMaskFilter_29_);}
	.st77{mask:url(#mask-54_1_);fill-rule:evenodd;clip-rule:evenodd;fill:#B58861;}
	.st78{filter:url(#Adobe_OpacityMaskFilter_30_);}
	.st79{mask:url(#mask-56_1_);fill-rule:evenodd;clip-rule:evenodd;}
	.st80{filter:url(#Adobe_OpacityMaskFilter_31_);}
	.st81{mask:url(#mask-58_1_);fill-rule:evenodd;clip-rule:evenodd;}
	.st82{filter:url(#Adobe_OpacityMaskFilter_32_);}
	.st83{mask:url(#mask-60_1_);fill-rule:evenodd;clip-rule:evenodd;}
	.st84{filter:url(#Adobe_OpacityMaskFilter_33_);}
	.st85{mask:url(#mask-62_1_);fill-rule:evenodd;clip-rule:evenodd;}
	.st86{filter:url(#Adobe_OpacityMaskFilter_34_);}
	.st87{mask:url(#mask-64_1_);fill-rule:evenodd;clip-rule:evenodd;fill:#77BCC2;}
</style>
<g id="Warstwa_2">
	<rect y="306.74" class="st0" width="1609.77" height="322.6"/>
</g>
<g id="Warstwa_1">
	<title>Group 316</title>
	<desc>Created with Sketch.</desc>
	<g id="Page-1">
		<g id="Extra-large:-Desktops---12-col" transform="translate(0.000000, -1341.000000)">
			<g id="Group-316" transform="translate(-5.000000, 1341.000000)">
				<polygon id="Fill-1" class="st1" points="417,303 479,303 479,188 417,188 				"/>
				<polygon id="Fill-2" class="st1" points="494,303 549,303 549,132 494,132 				"/>
				<polygon id="Fill-3" class="st1" points="506,303 611,303 611,205 506,205 				"/>
				<polygon id="Fill-4" class="st1" points="461,303 522,303 522,241 461,241 				"/>
				<polygon id="Fill-5" class="st1" points="584,303 625,303 625,165 584,165 				"/>
				<polygon id="Fill-6" class="st1" points="651,303 742,303 742,83 651,83 				"/>
				<polygon id="Fill-7" class="st1" points="783,303 838,303 838,0 783,0 				"/>
				<polygon id="Fill-8" class="st1" points="850,303 916,303 916,63 850,63 				"/>
				<polygon id="Fill-9" class="st1" points="612,303 709,303 709,219 612,219 				"/>
				<polygon id="Fill-10" class="st1" points="750,303 804,303 804,153 750,153 				"/>
				<polygon id="Fill-11" class="st1" points="731,303 770,303 770,256 731,256 				"/>
				<polygon id="Fill-12" class="st1" points="397,303 436,303 436,256 397,256 				"/>
				<polygon id="Fill-13" class="st1" points="784,303 862,303 862,208 784,208 				"/>
				<polygon id="Fill-14" class="st1" points="908,303 1081,303 1081,176 908,176 				"/>
				<polygon id="Fill-15" class="st1" points="1400,303 1573,303 1573,283 1400,283 				"/>
				<polygon id="Fill-16" class="st1" points="1080,303 1112,303 1112,249 1080,249 				"/>
				<polygon id="Fill-17" class="st1" points="1096,303 1208,303 1208,163 1096,163 				"/>
				<polygon id="Fill-18" class="st1" points="1190,304 1252,304 1252,64 1190,64 				"/>
				<polygon id="Fill-19" class="st1" points="1226,303 1310,303 1310,216 1226,216 				"/>
				<polygon id="Fill-20" class="st1" points="1289,303 1337,303 1337,150 1289,150 				"/>
				<polygon id="Fill-21" class="st1" points="1326,303 1486,303 1486,197 1326,197 				"/>
				<polygon id="Fill-22" class="st1" points="940,303 1003,303 1003,127 940,127 				"/>
				<polygon id="Fill-23" class="st1" points="1038,303 1068,303 1068,219 1038,219 				"/>
				<polygon id="Fill-24" class="st1" points="228,303 286,303 286,168 228,168 				"/>
				<polygon id="Fill-25" class="st1" points="78,303 354,303 354,216 78,216 				"/>
				<polygon id="Fill-26" class="st1" points="299,303 349,303 349,139 299,139 				"/>
				<polygon id="Fill-27" class="st1" points="312,304 408,304 408,209 312,209 				"/>
				<polygon id="Fill-28" class="st1" points="268,303 325,303 325,243 268,243 				"/>
				<polygon id="Fill-29" class="st1" points="384,303 421,303 421,170 384,170 				"/>
				<polygon id="Fill-30" class="st1" points="444,304 527,304 527,129 444,129 				"/>
				<polygon id="Fill-31" class="st1" points="566,303 616,303 616,0 566,0 				"/>
				<polygon id="Fill-32" class="st1" points="628,304 688,304 688,72 628,72 				"/>
				<polygon id="Fill-33" class="st1" points="408,303 497,303 497,221 408,221 				"/>
				<polygon id="Fill-34" class="st1" points="535,303 584,303 584,158 535,158 				"/>
				<polygon id="Fill-35" class="st1" points="517,303 552,303 552,257 517,257 				"/>
				<polygon id="Fill-36" class="st1" points="211,303 246,303 246,257 211,257 				"/>
				<polygon id="Fill-37" class="st1" points="567,303 638,303 638,212 567,212 				"/>
				<polygon id="Fill-38" class="st1" points="681,303 839,303 839,180 681,180 				"/>
				<polygon id="Fill-39" class="st1" points="1133,303 1291,303 1291,180 1133,180 				"/>
				<polygon id="Fill-40" class="st1" points="838,303 868,303 868,251 838,251 				"/>
				<polygon id="Fill-41" class="st1" points="853,303 957,303 957,169 853,169 				"/>
				<polygon id="Fill-42" class="st1" points="940,303 973,303 973,153 940,153 				"/>
				<polygon id="Fill-43" class="st1" points="972,303 1050,303 1050,219 972,219 				"/>
				<polygon id="Fill-44" class="st1" points="1030,303 1075,303 1075,155 1030,155 				"/>
				<polygon id="Fill-45" class="st1" points="1065,303 1171,303 1171,112 1065,112 				"/>
				<polygon id="Fill-46" class="st1" points="708,303 741,303 741,51 708,51 				"/>
				<polygon id="Fill-47" class="st1" points="799,303 826,303 826,221 799,221 				"/>
				<polygon id="Fill-48" class="st2" points="188,303 260,303 260,233 188,233 				"/>
				<polygon id="Fill-49" class="st2" points="277,304 376,304 376,178 277,178 				"/>
				<polygon id="Fill-50" class="st2" points="291,303 413,303 413,231 291,231 				"/>
				<polygon id="Fill-51" class="st2" points="237,304 308,304 308,257 237,257 				"/>
				<polygon id="Fill-52" class="st2" points="382,303 429,303 429,201 382,201 				"/>
				<polygon id="Fill-53" class="st2" points="458,303 563,303 563,100 458,100 				"/>
				<polygon id="Fill-54" class="st2" points="627,303 690,303 690,38 627,38 				"/>
				<polygon id="Fill-55" class="st2" points="689,303 766,303 766,151 689,151 				"/>
				<polygon id="Fill-56" class="st2" points="413,303 525,303 525,241 413,241 				"/>
				<polygon id="Fill-57" class="st2" points="573,303 635,303 635,192 573,192 				"/>
				<polygon id="Fill-58" class="st2" points="551,303 596,303 596,268 551,268 				"/>
				<polygon id="Fill-59" class="st2" points="93,303 210,303 210,268 93,268 				"/>
				<polygon id="Fill-60" class="st2" points="612,303 702,303 702,233 612,233 				"/>
				<polygon id="Fill-61" class="st2" points="756,303 954,303 954,210 756,210 				"/>
				<polygon id="Fill-62" class="st2" points="1324,303 1560,303 1560,245 1324,245 				"/>
				<polygon id="Fill-63" class="st2" points="955,303 991,303 991,264 955,264 				"/>
				<polygon id="Fill-64" class="st2" points="974,303 1103,303 1103,200 974,200 				"/>
				<polygon id="Fill-65" class="st2" points="1081,303 1160,303 1160,200 1081,200 				"/>
				<polygon id="Fill-66" class="st2" points="1122,303 1219,303 1219,239 1122,239 				"/>
				<polygon id="Fill-67" class="st2" points="1195,303 1251,303 1251,190 1195,190 				"/>
				<polygon id="Fill-68" class="st2" points="1411,304 1243,303.35 1243,209 1411,209.65 				"/>
				<polygon id="Fill-69" class="st2" points="790,303 831,303 831,140 790,140 				"/>
				<polygon id="Fill-70" class="st2" points="905,303 940,303 940,241 905,241 				"/>
				<g id="Group-80" transform="translate(0.000000, 11.000000)">
					<g id="Group-73" transform="translate(0.000000, 240.164727)">
						<g id="Clip-72">
						</g>
						<defs>
							<filter id="Adobe_OpacityMaskFilter" filterUnits="userSpaceOnUse" x="5" y="0.29" width="1609.77" height="55.78">
								<feColorMatrix  type="matrix" values="1 0 0 0 0  0 1 0 0 0  0 0 1 0 0  0 0 0 1 0"/>
							</filter>
						</defs>
						<mask maskUnits="userSpaceOnUse" x="5" y="0.29" width="1609.77" height="55.78" id="mask-2_1_">
							<g class="st3">
								<polygon id="path-1_1_" class="st4" points="5,0.29 1614.77,0.29 1614.77,56.07 5,56.07 								"/>
							</g>
						</mask>
						<path id="Fill-71" class="st5" d="M94.52,32.65L5,56.07h1609.77c0,0-107.89-73.68-229.72-44.27
							c-66.25,15.99-214.8,0.14-269.16,3.25c-54.36,3.11-86.78,17.11-177.93,11.74c-13.67-0.8-91.63-25.57-142.37-22.67
							C744.85,7.04,656.6,15.52,612.35,20.04C568.1,24.56,505.9,3.49,474.41,0.51c-31.48-2.98-176.15,25.08-191.73,27.65
							c-15.57,2.57-65.85-11.57-98.59-6.09C151.36,27.54,94.52,32.65,94.52,32.65"/>
					</g>
					<path id="Fill-74" class="st1" d="M326.47,86.18c-6.69,0-12.1-5.41-12.1-12.09c0-6.68,5.42-12.09,12.1-12.09
						s12.1,5.41,12.1,12.09C338.58,80.77,333.16,86.18,326.47,86.18 M326.47,52.35c-12.02,0-21.76,9.73-21.76,21.73
						c0,12,21.76,37.45,21.76,37.45s21.76-25.45,21.76-37.45C348.23,62.08,338.49,52.35,326.47,52.35"/>
					<path id="Fill-76" class="st1" d="M1378.53,121.05c-8.79,0-15.92-7.12-15.92-15.9c0-8.78,7.13-15.9,15.92-15.9
						s15.92,7.12,15.92,15.9C1394.45,113.93,1387.33,121.05,1378.53,121.05 M1378.53,76.56c-15.8,0-28.61,12.8-28.61,28.58
						c0,15.79,28.61,49.25,28.61,49.25s28.61-33.47,28.61-49.25C1407.15,89.36,1394.34,76.56,1378.53,76.56"/>
					<path id="Fill-78" class="st2" d="M876.67,22.43c-4.4,0-7.96-3.56-7.96-7.95s3.56-7.95,7.96-7.95c4.4,0,7.96,3.56,7.96,7.95
						S881.06,22.43,876.67,22.43 M876.67,0.18c-7.9,0-14.31,6.4-14.31,14.29s14.31,24.63,14.31,24.63s14.31-16.73,14.31-24.63
						S884.57,0.18,876.67,0.18"/>
				</g>
				<g id="Group-89" transform="translate(877.000000, 420.000000)">
					<path id="Fill-81" class="st6" d="M56.63,15.42c4.59,0,7.39,4.6,4.84,7.31c-2.55,2.71-8.67,12.72-7.65,16.51
						c1.02,3.79,5.61,13.54-8.67,13.54c-14.28,0-30.46-2.03-35.31-7.45S1.31,35.18,12.78,32.2c11.47-2.98,13.26-2.71,18.35-7.58
						C36.23,19.75,56.63,15.42,56.63,15.42"/>
					<path id="Fill-83" class="st7" d="M36.23,34.78c-2.42,5.14,0.68,6.5,5.23,6.5c4.54,0,11.22-3.36,11.22-6.5
						c0-3.14-3.68-5.69-8.22-5.69S37.55,31.97,36.23,34.78"/>
					<path id="Fill-85" class="st8" d="M62.63,1.61c0,0,0.25,4.84-0.25,7.26c-0.51,2.42,1.77,6.61-2.78,8.37
						c-4.54,1.76-7.57,2.2-7.57,2.2s-12.62-0.88-11.61-3.52c1.01-2.64,5.81-12.33,5.81-12.33l5.56-3.52L62.63,1.61z"/>
					<path id="Fill-87" class="st8" d="M54.8,16.58c0,0-7.32-8.37-9.08-8.37c-1.77,0-8.86-1.75-8.71,0.55
						c0.46,7.23-8.33,6.02-9.09,8.66c-0.76,2.65-1.64,6.65,1.14,8.86c2.78,2.2,6.82,2.42,6.82,4.62c0,2.2,0.25,3.74,3.54,3.97
						c3.29,0.22,8.58,0,10.85,0.43c2.27,0.45,2.27-1.32,2.53-4.84c0.25-3.53,1.01-7.05,1.01-9.47C53.79,18.56,54.8,16.58,54.8,16.58
						"/>
				</g>
				<g id="Group-92" transform="translate(899.000000, 427.000000)">
					<g id="Clip-91">
					</g>
					<defs>
						<filter id="Adobe_OpacityMaskFilter_1_" filterUnits="userSpaceOnUse" x="2.47" y="11.35" width="28.98" height="18.15">
							<feColorMatrix  type="matrix" values="1 0 0 0 0  0 1 0 0 0  0 0 1 0 0  0 0 0 1 0"/>
						</filter>
					</defs>
					<mask maskUnits="userSpaceOnUse" x="2.47" y="11.35" width="28.98" height="18.15" id="mask-4_1_">
						<g class="st9">
							<path id="path-3_1_" class="st4" d="M14.92,1.37c0.46,7.18-8.33,5.98-9.09,8.6l0,0c-0.76,2.63-1.64,6.61,1.14,8.8l0,0
								c2.78,2.19,6.81,2.41,6.81,4.59l0,0c0,2.19,0.25,3.72,3.53,3.94l0,0c3.28,0.22,8.58,0,10.85,0.43l0,0
								c2.27,0.44,2.27-1.31,2.53-4.81l0,0c0.25-3.5,1.01-7,1.01-9.41l0,0c0-2.41,1.01-4.38,1.01-4.38l0,0c0,0-7.32-8.32-9.08-8.32
								l0,0c-1.07,0-4.07-0.63-6.26-0.63l0,0C15.94,0.19,14.86,0.47,14.92,1.37"/>
						</g>
					</mask>
					<path id="Fill-90" class="st10" d="M14.29,11.55c-3.75-0.84-11.82,1.2-11.82,1.2s3.74,9.96,4.5,10.4
						c0.75,0.44,5.55,5.25,7.82,5.69c2.27,0.44,16.66,0.66,16.66,0.66s-1.77-3.5-3.03-5.69c-1.26-2.19,1.01-3.72-3.03-7
						C21.35,13.52,18.03,12.39,14.29,11.55"/>
				</g>
				<path id="Fill-93" class="st11" d="M959.96,274c0,0,0.4,17.01-1.28,27.2c-1.69,10.19-9.34,40.87-10.01,43.78
					c-0.68,2.91-2.36,9.03-2.03,15.43c0.34,6.4-1.02,31.94-3.73,40.67c-0.84,2.71-2.84,5.84-2.11,9.24
					c0.74,3.48,4.2,7.25,3.29,10.48c-0.21,0.76-7.59,1.32-7.78,2.04c-0.76,2.85-1.32,5.33-1.52,7.06c-0.68,5.82-3.17,11.1-3.17,11.1
					s-3.85-9.58-8.95-11.21c-2.85-0.91-9.97,0.43-9.97,0.43s-0.17-1.67,2.87-6.33c3.04-4.66,4.01-8.84,4.01-12.04
					c0-3.2-1.35-4.37-3.04-12.81c-1.69-8.44-10.77-31.08-11.79-37.48c-1.02-6.4-3.46-25.02-6.16-33.17
					c-2.7-8.15-4.38-26.59-5.39-36.49c-1.02-9.9,2.05-17.47,2.05-17.47L959.96,274z"/>
				<g id="Group-97" transform="translate(887.000000, 274.000000)">
					<g id="Clip-96">
					</g>
					<defs>
						<filter id="Adobe_OpacityMaskFilter_2_" filterUnits="userSpaceOnUse" x="9.37" y="-4.95" width="60.2" height="152.39">
							<feColorMatrix  type="matrix" values="1 0 0 0 0  0 1 0 0 0  0 0 1 0 0  0 0 0 1 0"/>
						</filter>
					</defs>
					<mask maskUnits="userSpaceOnUse" x="9.37" y="-4.95" width="60.2" height="152.39" id="mask-6_1_">
						<g class="st12">
							<path id="path-5_1_" class="st4" d="M7.59,0.45c0,0-3.09,7.6-2.07,17.55l0,0c1.02,9.94,2.71,28.46,5.43,36.65l0,0
								c2.72,8.18,5.18,26.88,6.21,33.31l0,0c1.02,6.43,10.17,29.16,11.88,37.64l0,0c1.7,8.48,3.06,9.65,3.06,12.86l0,0
								c0,3.22-0.98,7.41-4.04,12.09l0,0c-3.06,4.68-2.89,6.36-2.89,6.36l0,0c0,0,7.17-1.35,10.04-0.44l0,0
								c5.14,1.64,9.02,11.26,9.02,11.26l0,0c0,0,2.52-5.3,3.2-11.14l0,0c0.2-1.74,0.77-4.22,1.53-7.09l0,0
								c0.19-0.72,7.62-1.28,7.83-2.05l0,0c0.91-3.25-2.57-7.02-3.32-10.52l0,0c-0.73-3.42,1.28-6.56,2.13-9.28l0,0
								c2.72-8.77,4.09-34.42,3.75-40.85l0,0c-0.34-6.43,1.36-12.57,2.04-15.5l0,0c0.68-2.92,8.39-33.75,10.09-43.97l0,0
								c1.7-10.23,1.29-27.32,1.29-27.32l0,0"/>
						</g>
					</mask>
					<path id="Fill-95" class="st13" d="M39.42-4.95L67.76-2.1c0,0,2.05,4.39,1.79,8.55c-0.26,4.17-1.87,9.32-4.09,11.85
						C53.02,32.47,38.91,45.92,37.89,52.29c-1.02,6.36-2.87,17.09-2.1,23.01c0.77,5.92,0.17,12.49,3.99,15.99
						c3.83,3.51,8.14,5.75,7.63,12.33c-0.51,6.58-3.13,21.47-4.15,25.2c-1.02,3.73-6.39,11.4-8.94,16.01
						c-2.55,4.6-5.87,1.75-5.87,1.75L17.2,107.76c0,0-5.31-50.58-7.1-61.11C8.32,36.13,10.28,8.03,10.79,7.38
						c0.51-0.66,2.27-11.01,4.06-11.01C16.64-3.63,39.42-4.95,39.42-4.95"/>
				</g>
				<g id="Group-104" transform="translate(855.000000, 170.000000)">
					<path id="Fill-98" class="st14" d="M135.26,108.9c0.32,0.81,5.14,8.37,5.47,11.61c0.32,3.24,0.64,6.49-3.22,10.53
						c-3.86,4.05-8.37,8.1-10.3,8.64c-1.93,0.54-1.65-1.81-1.29-3.51c0.48-2.21,1.55-7.62,1.55-7.62s-2.76,4.84-5.58,3.43
						c-1.07-0.54,1.29-12.87,1.93-15.75c0.48-2.14-1.44-3.82-0.48-3.82C124.32,112.41,135.26,108.9,135.26,108.9"/>
					<path id="Fill-100" class="st14" d="M12.87,95.86c0,0-5.84,14.83-6.71,17.08c-0.88,2.26-1.46,6.01-0.58,8.51
						c0.87,2.51,3.2,5.76,4.66,6.51c1.45,0.75,8.45,2.75,8.45,2.75s0.87-1.76-0.87-3.26c-1.75-1.5-4.37-4-4.95-5.76
						c-0.59-1.75,0-5.51,0-5.51s1.02,8.55,3.35,8.55c2.33,0,1.89-8.3,1.61-10.05c-0.29-1.76,2.62-4.26,3.2-6.51
						c0.58-2.25,0.87-7.01,0.87-7.01L12.87,95.86z"/>
					<path id="Fill-102" class="st15" d="M136.85,109.6c0,0-10.16,5.16-13.89,4.58c-2.93-4.93-2.6-9.29-4.3-15.71
						c-1.7-6.42-5.25-24.46-5.93-30.59c-0.68-6.13-4.39-6.21-4.39-6.21s-3.77,15.93-3.1,19.73c0.68,3.79-0.68,4.52,0,8.31
						c0.68,3.79,0.39,17.29,0.39,17.29s-16.86-1.29-26.71-1c-9.85,0.29-40.64,0.33-40.64,0.33s1.35-6.64,0.9-17.18
						c-0.38-8.98-1.77-32.97-2.45-37.35c-4.26,5.98-3.63,9.29-6.68,16.88c-3.06,7.59-6.84,16.69-6.84,32.74
						c0,4.25-0.76-4.36-5.34-4.58c-4.8-0.23-7.48,2.29-7.48,2.29s1.43-16.8,3.13-24.39c1.7-7.58,5.62-17.93,6.97-25.81
						c1.36-7.88,4.62-21.25,7.33-26.5c2.72-5.25,6.72-14.57,18.46-17.12c5.21-1.13,9.54-3.77,9.54-3.77S66-0.79,72.45,0.37
						c6.45,1.17,19.02,2.33,19.02,2.33s9.55,2.28,14.65,4.32c5.1,2.04,11.09,12.92,12.82,17.66c5.03,13.74,14.84,38.83,15.18,44.96
						C134.47,75.78,136.85,109.6,136.85,109.6"/>
				</g>
				<g id="Group-108" transform="translate(861.000000, 170.000000)">
					<g id="Clip-106">
					</g>
					<defs>
						<filter id="Adobe_OpacityMaskFilter_3_" filterUnits="userSpaceOnUse" x="24.96" y="101.94" width="85.7" height="8.4">
							<feColorMatrix  type="matrix" values="1 0 0 0 0  0 1 0 0 0  0 0 1 0 0  0 0 0 1 0"/>
						</filter>
					</defs>
					<mask maskUnits="userSpaceOnUse" x="24.96" y="101.94" width="85.7" height="8.4" id="mask-8_1_">
						<g class="st16">
							<path id="path-7_1_" class="st4" d="M50.6,1.54c0,0-4.34,2.64-9.56,3.76l0,0C29.27,7.84,25.26,17.14,22.54,22.37l0,0
								c-2.72,5.24-5.99,18.57-7.35,26.43l0,0c-1.36,7.85-5.29,18.17-6.99,25.73l0,0c-1.71,7.56-3.14,24.31-3.14,24.31l0,0
								c0,0,2.69-2.51,7.5-2.28l0,0c4.6,0.22,5.36,8.8,5.36,4.56l0,0c0-16,3.79-25.08,6.86-32.64l0,0
								c3.07-7.57,2.43-10.86,6.7-16.83l0,0c0.68,4.36,2.07,28.28,2.46,37.24l0,0c0.45,10.5-0.91,17.13-0.91,17.13l0,0
								c0,0,30.87-0.04,40.74-0.33l0,0c9.87-0.29,26.77,0.99,26.77,0.99l0,0c0,0,0.29-13.46-0.39-17.24l0,0
								c-0.68-3.78,0.68-4.51,0-8.29l0,0c-0.68-3.79,3.1-19.67,3.1-19.67l0,0c0,0,3.71,0.08,4.4,6.19l0,0
								c0.68,6.11,4.25,24.1,5.95,30.5l0,0c1.7,6.4,1.38,10.75,4.31,15.66l0,0c3.74,0.58,13.93-4.56,13.93-4.56l0,0
								c0,0-2.38-33.72-2.72-39.83l0,0c-0.34-6.11-10.18-31.13-15.22-44.83l0,0c-1.74-4.72-7.75-15.57-12.86-17.6l0,0
								C95.93,4.97,86.36,2.7,86.36,2.7l0,0c0,0-12.6-1.16-19.07-2.33l0,0c-1.29-0.23-2.74-0.33-4.22-0.33l0,0
								C57.14,0.05,50.6,1.54,50.6,1.54L50.6,1.54z"/>
						</g>
					</mask>
					<polygon id="Fill-105" class="st17" points="24.96,110.33 110.66,110.33 110.66,101.94 24.96,101.94 					"/>
					<defs>
						<filter id="Adobe_OpacityMaskFilter_4_" filterUnits="userSpaceOnUse" x="34.16" y="6.24" width="29.97" height="103.43">
							<feColorMatrix  type="matrix" values="1 0 0 0 0  0 1 0 0 0  0 0 1 0 0  0 0 0 1 0"/>
						</filter>
					</defs>
					<mask maskUnits="userSpaceOnUse" x="34.16" y="6.24" width="29.97" height="103.43" id="mask-8_2_">
						<g class="st18">
							<path id="path-7_2_" class="st4" d="M50.6,1.54c0,0-4.34,2.64-9.56,3.76l0,0C29.27,7.84,25.26,17.14,22.54,22.37l0,0
								c-2.72,5.24-5.99,18.57-7.35,26.43l0,0c-1.36,7.85-5.29,18.17-6.99,25.73l0,0c-1.71,7.56-3.14,24.31-3.14,24.31l0,0
								c0,0,2.69-2.51,7.5-2.28l0,0c4.6,0.22,5.36,8.8,5.36,4.56l0,0c0-16,3.79-25.08,6.86-32.64l0,0
								c3.07-7.57,2.43-10.86,6.7-16.83l0,0c0.68,4.36,2.07,28.28,2.46,37.24l0,0c0.45,10.5-0.91,17.13-0.91,17.13l0,0
								c0,0,30.87-0.04,40.74-0.33l0,0c9.87-0.29,26.77,0.99,26.77,0.99l0,0c0,0,0.29-13.46-0.39-17.24l0,0
								c-0.68-3.78,0.68-4.51,0-8.29l0,0c-0.68-3.79,3.1-19.67,3.1-19.67l0,0c0,0,3.71,0.08,4.4,6.19l0,0
								c0.68,6.11,4.25,24.1,5.95,30.5l0,0c1.7,6.4,1.38,10.75,4.31,15.66l0,0c3.74,0.58,13.93-4.56,13.93-4.56l0,0
								c0,0-2.38-33.72-2.72-39.83l0,0c-0.34-6.11-10.18-31.13-15.22-44.83l0,0c-1.74-4.72-7.75-15.57-12.86-17.6l0,0
								C95.93,4.97,86.36,2.7,86.36,2.7l0,0c0,0-12.6-1.16-19.07-2.33l0,0c-1.29-0.23-2.74-0.33-4.22-0.33l0,0
								C57.14,0.05,50.6,1.54,50.6,1.54L50.6,1.54z"/>
						</g>
					</mask>
					<path id="Fill-107" class="st19" d="M53.52,6.24c0,0-9.93,41.11,1.33,42.77c6.39,0.94-0.87,2.57-2.18,7.96
						c-2.18,8.99-0.17,22.97,0.36,24.42c1.94,5.3-4.36,12.38,4.36,12.38c8.72,0,10.17,3.98-2.91,5.75
						c-13.07,1.77-20.34,10.17-20.34,10.17l4.6-100.12L53.52,6.24z"/>
				</g>
				<path id="Fill-109" class="st14" d="M945.08,141.36l-3.32,8.5c0,0-1.89,8.97,0.38,14.78c1.77,4.52,5.86,7.86,5.86,7.86
					s-14.02,11.64-24.96,10.41c-10.93-1.23-13.48-10.67-13.48-10.67l6.88-7.76c0,0,1.35-3.74,0.98-5.71
					c-0.24-1.27-2.57-0.22-3.87-1.69c-0.72-0.81-1.35-3.52-2.02-5.39c-1.21-3.39-2.4-8.68-1.26-12.18c0.6-1.85-1.29-5.96-1.26-7.31
					c0.14-7.36,3.33-16.53,10.03-17.38c13.45-1.71,16.82-0.5,20.26,1.36c7.83,4.25,7.92,9.57,8.35,14.04
					C948,133.98,945.08,141.36,945.08,141.36"/>
				<g id="Group-113" transform="translate(903.000000, 114.000000)">
					<g id="Clip-112">
					</g>
					<defs>
						<filter id="Adobe_OpacityMaskFilter_5_" filterUnits="userSpaceOnUse" x="-3.25" y="3.74" width="47.67" height="84.15">
							<feColorMatrix  type="matrix" values="1 0 0 0 0  0 1 0 0 0  0 0 1 0 0  0 0 0 1 0"/>
						</filter>
					</defs>
					<mask maskUnits="userSpaceOnUse" x="-3.25" y="3.74" width="47.67" height="84.15" id="mask-10_1_">
						<g class="st20">
							<path id="path-9_1_" class="st4" d="M15.43,1.07C8.61,1.93,5.37,11.06,5.22,18.39l0,0c-0.03,1.34,1.89,5.44,1.28,7.28l0,0
								c-1.16,3.48,0.06,8.76,1.28,12.13l0,0c0.68,1.87,1.32,4.57,2.06,5.37l0,0c1.32,1.46,3.69,0.42,3.94,1.68l0,0
								c0.38,1.96-1,5.68-1,5.68l0,0l-7,7.73c0,0,2.59,9.41,13.72,10.63l0,0c11.14,1.23,25.41-10.37,25.41-10.37l0,0
								c0,0-4.17-3.32-5.96-7.83l0,0c-2.31-5.79-0.38-14.72-0.38-14.72l0,0l3.38-8.47c0,0,2.97-7.35,2.61-11.09l0,0
								c-0.44-4.46-0.53-9.76-8.5-13.99l0,0c-2.32-1.23-4.61-2.18-9.88-2.18l0,0C23.49,0.25,20.04,0.5,15.43,1.07"/>
						</g>
					</mask>
					<path id="Fill-111" class="st21" d="M32.26,10.33C34.17,15.89,30.02,21,30.02,21l-2.38,5.58c0,0,1.32,2.03,0.7,5.93
						c-0.86,5.48,2.1,9.94-4.18,11.41l4.9,1.38c2.1,2.13,7.74,6.86,7.92,9.04c0.57,6.87,2.69,8.84,5.35,10.47l2.09,12.52L18.74,87.9
						L-3.25,77.1l3.71-21.61c0,0,6-3.19,6.56-3.93c0.57-0.74,1.43-4.42,1.43-4.42S0.18,36.59,0.75,34.88
						C1.32,33.16,1.7,18.9,1.98,17.92c0.29-0.98-1.03-9.1,3.95-11.77C15.43,1.07,30.36,4.76,32.26,10.33"/>
				</g>
				<g id="Group-118" transform="translate(928.000000, 138.000000)">
					<path id="Fill-114" class="st22" d="M18.99,5.41c-0.73,2.51-2.46,4.31-3.85,4.01s-1.94-2.59-1.21-5.1
						c0.73-2.51,2.46-4.31,3.86-4C19.18,0.62,19.72,2.9,18.99,5.41"/>
					<path id="Fill-116" class="st8" d="M13.8,24.51c0.58,6,0.51,40.15-2.83,60.37c-2.63,15.89-5.75,27.1-5.75,27.1l6.74,29.08
						c1.19,5.13,6.09,8.81,11.78,8.83l17.07,0.08l-5.4-56.43l4.63,13.33l6.69,42.21l21.1-6.66l-5.66-50.65L41.12,39.66l-20.37-8.98
						L13.8,24.51z"/>
				</g>
				<g id="Group-125" transform="translate(928.000000, 163.000000)">
					<g id="Group-121">
						<g id="Clip-120">
						</g>
						<defs>
							<filter id="Adobe_OpacityMaskFilter_6_" filterUnits="userSpaceOnUse" x="2.16" y="9.47" width="62.54" height="120.48">
								<feColorMatrix  type="matrix" values="1 0 0 0 0  0 1 0 0 0  0 0 1 0 0  0 0 0 1 0"/>
							</filter>
						</defs>
						<mask maskUnits="userSpaceOnUse" x="2.16" y="9.47" width="62.54" height="120.48" id="mask-12_1_">
							<g class="st23">
								<path id="path-11_1_" class="st4" d="M10.97,60.2C8.34,76.01,5.23,87.17,5.23,87.17l0,0l6.74,28.94
									c1.19,5.11,6.09,8.77,11.78,8.79l0,0l17.07,0.07l-5.4-56.15l4.63,13.26l6.69,42l21.1-6.63l-5.66-50.4L41.12,15.2L20.75,6.26
									L13.8,0.12C14.38,6.09,14.32,40.08,10.97,60.2L10.97,60.2z"/>
							</g>
						</mask>
						<path id="Fill-119" class="st24" d="M2.16,101.76c0.3-10.28,7.35-11.61,14.3-4.31c6.95,7.3,15.87,16.14,6.95-9.4
							c-8.92-25.53,2.87-43,7.94-61.24c5.07-18.24,7.7-21.89,8.19-11.94c0.49,9.95,5.59,14.26,7.01,20.89
							c1.43,6.63-1.1,23.38,5.76,26.78c6.86,3.4,17.22,2.29,9.87,4.5c-7.34,2.21-9.02,4.53-6.02,5.53c3.01,0.99,3.01,1.66-1.69,5.97
							c-4.7,4.31-9.39,51.4-9.39,51.4H11.94L2.16,101.76z"/>
					</g>
					<g id="Group-124">
						<g id="Clip-123">
						</g>
						<defs>
							<filter id="Adobe_OpacityMaskFilter_7_" filterUnits="userSpaceOnUse" x="6.46" y="1.97" width="19.99" height="87.98">
								<feColorMatrix  type="matrix" values="1 0 0 0 0  0 1 0 0 0  0 0 1 0 0  0 0 0 1 0"/>
							</filter>
						</defs>
						<mask maskUnits="userSpaceOnUse" x="6.46" y="1.97" width="19.99" height="87.98" id="mask-14_1_">
							<g class="st25">
								<path id="path-13_1_" class="st4" d="M10.97,60.2C8.34,76.01,5.23,87.17,5.23,87.17l0,0l6.74,28.94
									c1.19,5.11,6.09,8.77,11.78,8.79l0,0l17.07,0.07l-5.4-56.15l4.63,13.26l6.69,42l21.1-6.63l-5.66-50.4L41.12,15.2L20.75,6.26
									L13.8,0.12C14.38,6.09,14.32,40.08,10.97,60.2L10.97,60.2z"/>
							</g>
						</mask>
						<path id="Fill-122" class="st26" d="M23.32,9.48l2.65,5.31l-4.33,2.43l4.82,2.65L6.46,89.95c0,0,1.2-35.16,1.57-49.41
							c0.36-14.25,6.62-38.58,6.62-38.58L23.32,9.48z"/>
					</g>
				</g>
				<g id="Group-130" transform="translate(857.000000, 161.000000)">
					<path id="Fill-126" class="st8" d="M93.84,7.72l2.66,5.32l-4.36,2.44l4.84,2.66L76.89,88.4c0,0,1.21-35.25,1.57-49.54
						c0.36-14.29,6.66-38.68,6.66-38.68L93.84,7.72z"/>
					<path id="Fill-128" class="st8" d="M51.76,6.78l-18.42,9.14c0,0-18.31,39.13-18.7,42.12c-0.39,2.99-2.83,10.43-2.45,11.43
						c0.39,1-6.99,41.55-6.99,41.55s5.99-5.43,11.41-2.66c5.33,2.72,7.6,5.65,7.6,5.65l8.15-34.02l3.1-19.84l1.55,20.95l-6.6,42.89
						l1.74,1.38c3.62,2.85,9.26,1.17,10.35-3.09l8.47-33.2c0,0-7.44-72.92,8.54-86.11C55.84,5.78,51.76,6.78,51.76,6.78"/>
				</g>
				<g id="Group-137" transform="translate(857.000000, 164.000000)">
					<g id="Group-133">
						<g id="Clip-132">
						</g>
						<defs>
							<filter id="Adobe_OpacityMaskFilter_8_" filterUnits="userSpaceOnUse" x="14.26" y="17.14" width="42" height="115.42">
								<feColorMatrix  type="matrix" values="1 0 0 0 0  0 1 0 0 0  0 0 1 0 0  0 0 0 1 0"/>
							</filter>
						</defs>
						<mask maskUnits="userSpaceOnUse" x="14.26" y="17.14" width="42" height="115.42" id="mask-16_1_">
							<g class="st27">
								<path id="path-15_1_" class="st4" d="M52.05,4.13l-18.54,9.19c0,0-18.42,39.34-18.81,42.35l0,0
									c-0.39,3.01-2.85,10.49-2.46,11.49l0,0c0.39,1-7.04,41.77-7.04,41.77l0,0c0,0,6.03-5.46,11.48-2.67l0,0
									c5.36,2.74,7.65,5.68,7.65,5.68l0,0l8.2-34.21l3.12-19.94l1.56,21.06l-6.64,43.12l1.75,1.38c3.64,2.87,9.31,1.18,10.41-3.1
									l0,0l8.53-33.38c0,0-7.48-73.32,8.59-86.58l0,0C56.15,3.13,52.05,4.13,52.05,4.13L52.05,4.13z"/>
							</g>
						</mask>
						<path id="Fill-131" class="st28" d="M47.86,41.07C40.92,29.04,30.81,8.98,29.35,20.68c-1.46,11.7-7.06,19.39-8.53,26.07
							c-1.46,6.69-5.11,10.7-2.56,15.38c2.56,4.68,3.65,7.35,0.37,7.02c-3.29-0.33-6.94-0.33-1.83,2.67
							c5.12,3.01,3.65,8.69,4.38,14.37c0.73,5.68,0,16.71,0.37,23.4c0.37,6.69-0.73,11.03,2.92,15.38
							c3.65,4.35,4.75-29.42,4.75-29.42l6.45-31.64c0,0,2.44,7.58,3.9,15.6c1.46,8.02,1.34,6.69,0.97,13.71
							c-0.37,7.02-3.76,6.24-2.43,18.16c1.33,11.92-0.49,29.64,4.62,16.6c5.12-13.04,13.52-73.2,13.52-73.2L47.86,41.07z"/>
					</g>
					<g id="Group-136">
						<g id="Clip-135">
						</g>
						<defs>
							<filter id="Adobe_OpacityMaskFilter_9_" filterUnits="userSpaceOnUse" x="41.04" y="4.63" width="16.56" height="86.69">
								<feColorMatrix  type="matrix" values="1 0 0 0 0  0 1 0 0 0  0 0 1 0 0  0 0 0 1 0"/>
							</filter>
						</defs>
						<mask maskUnits="userSpaceOnUse" x="41.04" y="4.63" width="16.56" height="86.69" id="mask-18_1_">
							<g class="st29">
								<path id="path-17_1_" class="st4" d="M52.05,4.13l-18.54,9.19c0,0-18.42,39.34-18.81,42.35l0,0
									c-0.39,3.01-2.85,10.49-2.46,11.49l0,0c0.39,1-7.04,41.77-7.04,41.77l0,0c0,0,6.03-5.46,11.48-2.67l0,0
									c5.36,2.74,7.65,5.68,7.65,5.68l0,0l8.2-34.21l3.12-19.94l1.56,21.06l-6.64,43.12l1.75,1.38c3.64,2.87,9.31,1.18,10.41-3.1
									l0,0l8.53-33.38c0,0-7.48-73.32,8.59-86.58l0,0C56.15,3.13,52.05,4.13,52.05,4.13L52.05,4.13z"/>
							</g>
						</mask>
						<path id="Fill-134" class="st30" d="M48.83,7.7l-5.85,5.85l3.41,2.01l-5.36,4.01l8.04,71.76c0,0,1.33-52.14,2.44-63.96
							C52.62,15.55,57.6,4.63,57.6,4.63L48.83,7.7z"/>
					</g>
				</g>
				<g id="Group-142" transform="translate(894.000000, 140.000000)">
					<path id="Fill-138" class="st8" d="M12.99,27.28l-5.92,5.78l3.46,1.98l-5.43,3.97l8.14,70.94c0,0,1.34-51.55,2.47-63.23
						c1.12-11.68,6.17-22.47,6.17-22.47L12.99,27.28z"/>
					<path id="Fill-140" class="st31" d="M14.64,2.56c0,0,4.41-2.52,7.3-2.52s17.95,2.27,17.95,2.27v9.1c0,0-10.28,8.14-16.44,8.18
						c-4.31,0.03-6.95-4.43-7.45-6.39S14.64,2.56,14.64,2.56"/>
				</g>
				<g id="Group-145" transform="translate(904.000000, 140.000000)">
					<g id="Clip-144">
					</g>
					<defs>
						<filter id="Adobe_OpacityMaskFilter_10_" filterUnits="userSpaceOnUse" x="1.65" y="-3.44" width="12.07" height="24.95">
							<feColorMatrix  type="matrix" values="1 0 0 0 0  0 1 0 0 0  0 0 1 0 0  0 0 0 1 0"/>
						</filter>
					</defs>
					<mask maskUnits="userSpaceOnUse" x="1.65" y="-3.44" width="12.07" height="24.95" id="mask-20_1_">
						<g class="st32">
							<path id="path-19_1_" class="st4" d="M5.13,2.57c0,0,0.83,8.72,1.32,10.7l0,0c0.5,1.98,3.09,6.46,7.31,6.43l0,0
								c6.04-0.04,16.13-8.23,16.13-8.23l0,0V2.32c0,0-14.77-2.28-17.61-2.28l0,0C9.45,0.04,5.13,2.57,5.13,2.57L5.13,2.57z"/>
						</g>
					</mask>
					<path id="Fill-143" class="st33" d="M12.22-3.44c0,0-0.69,6.39-0.91,8.42c-0.22,2.03-0.51,4.44,0.91,5.35
						c1.42,0.91,1.86,2.56,1.2,6.72c-0.66,4.16-5.47,4.46-5.47,4.46L2.23,7.72L1.65-2.12L12.22-3.44z"/>
				</g>
				<g id="Group-158" transform="translate(666.000000, 138.000000)">
					<path id="Stroke-146" class="st34" d="M267.02,5.15c0,0,11.02-4.97,12.72-5.14"/>
					<path id="Stroke-148" class="st34" d="M267.02,12.83c0,0,7.41-1.95,10.41-3.68"/>
					<path id="Fill-150" class="st6" d="M71.59,389.93c5.93,0,9.56,6.38,6.26,10.13c-3.3,3.75-11.21,17.63-9.89,22.88
						c1.32,5.25,7.25,18.76-11.21,18.76s-39.39-2.81-45.65-10.32c-6.26-7.5-11.04-14.07,3.79-18.19
						c14.83-4.13,17.14-3.75,23.73-10.5C45.22,395.93,71.59,389.93,71.59,389.93"/>
					<path id="Fill-152" class="st7" d="M45.22,416.75c-3.13,7.13,0.89,9,6.76,9c5.87,0,14.5-4.65,14.5-9s-4.76-7.88-10.63-7.88
						S46.93,412.86,45.22,416.75"/>
					<path id="Fill-154" class="st35" d="M77.99,367.7c0,0,0.33,7.28-0.33,10.93c-0.66,3.64,2.32,9.93-3.65,12.58
						s-9.95,3.31-9.95,3.31s-16.58-1.32-15.25-5.3c1.33-3.97,7.63-18.54,7.63-18.54l7.29-5.3L77.99,367.7z"/>
					<path id="Fill-156" class="st35" d="M67.71,390.21c0,0-9.62-12.58-11.94-12.58c-2.32,0-11.63-2.63-11.44,0.82
						c0.6,10.87-10.94,9.05-11.94,13.02c-0.99,3.97-2.15,9.99,1.49,13.31c3.65,3.31,8.95,3.64,8.95,6.95c0,3.31,0.33,5.63,4.64,5.96
						s11.27,0,14.26,0.66c2.98,0.66,2.98-1.99,3.32-7.28c0.33-5.3,1.33-10.6,1.33-14.24C66.39,393.19,67.71,390.21,67.71,390.21"/>
				</g>
				<g id="Group-161" transform="translate(693.000000, 515.000000)">
					<g id="Clip-160">
					</g>
					<defs>
						<filter id="Adobe_OpacityMaskFilter_11_" filterUnits="userSpaceOnUse" x="1.76" y="16.9" width="37.47" height="27.35">
							<feColorMatrix  type="matrix" values="1 0 0 0 0  0 1 0 0 0  0 0 1 0 0  0 0 0 1 0"/>
						</filter>
					</defs>
					<mask maskUnits="userSpaceOnUse" x="1.76" y="16.9" width="37.47" height="27.35" id="mask-22_1_">
						<g class="st36">
							<path id="path-21_1_" class="st4" d="M17.86,1.87c0.59,10.82-10.77,9.01-11.75,12.97l0,0c-0.98,3.96-2.12,9.95,1.47,13.25
								l0,0c3.59,3.3,8.81,3.63,8.81,6.92l0,0c0,3.3,0.33,5.61,4.57,5.94l0,0c4.24,0.33,11.09,0,14.03,0.66l0,0
								c2.94,0.66,2.94-1.98,3.26-7.25l0,0c0.33-5.28,1.3-10.55,1.3-14.18l0,0c0-3.63,1.31-6.59,1.31-6.59l0,0
								c0,0-9.46-12.53-11.75-12.53l0,0c-1.38,0-5.27-0.95-8.09-0.95l0,0C19.18,0.09,17.79,0.5,17.86,1.87"/>
						</g>
					</mask>
					<path id="Fill-159" class="st37" d="M17.05,17.2c-4.84-1.27-15.28,1.81-15.28,1.81S6.6,34.02,7.58,34.68
						c0.98,0.66,7.18,7.91,10.12,8.57c2.94,0.66,21.54,0.99,21.54,0.99s-2.28-5.28-3.92-8.57c-1.63-3.3,1.31-5.61-3.92-10.55
						C26.18,20.17,21.89,18.47,17.05,17.2"/>
				</g>
				<path id="Fill-162" class="st38" d="M719.69,45.95c0,0,1-5.95,4.66-6.61c3.67-0.66,15.21-0.94,24.32,4.96
					c12.44,8.04,18.99,29.4,20.66,40.3c1.67,10.9-0.67,12.88,3.33,20.81c4,7.93,12.33,13.21,12.33,13.21s-5,4.96-12.66,1.98
					l-7.66-2.97c0,0,4.61,5.77,13.94,17.67c1.65,2.1-4.12,15.02-4.12,15.02L711.36,151l-13.66-6.61c0,0-3.33-12.22-3-20.15
					c0.33-7.93,2.67-9.25-0.67-15.2c-3.33-5.95-7.93-4.7-2.6-14.94c5.33-10.24,7.99-17.42,10.26-27.02c1.86-7.83-4-12.22,3.67-18.83
					C713.03,41.65,719.69,45.95,719.69,45.95"/>
				<g id="Group-166" transform="translate(684.000000, 38.000000)">
					<g id="Clip-165">
					</g>
					<defs>
						<filter id="Adobe_OpacityMaskFilter_12_" filterUnits="userSpaceOnUse" x="13.13" y="-0.2" width="67.06" height="107.45">
							<feColorMatrix  type="matrix" values="1 0 0 0 0  0 1 0 0 0  0 0 1 0 0  0 0 0 1 0"/>
						</filter>
					</defs>
					<mask maskUnits="userSpaceOnUse" x="13.13" y="-0.2" width="67.06" height="107.45" id="mask-24_1_">
						<g class="st39">
							<path id="path-23_1_" class="st4" d="M40.44,0.46c-3.64,0.67-4.64,6.65-4.64,6.65l0,0c0,0-6.62-4.32-14.24,2.33l0,0
								c-7.62,6.65-1.8,11.07-3.64,18.94l0,0c-2.26,9.65-4.9,16.88-10.2,27.18l0,0c-5.3,10.3-0.73,9.05,2.58,15.03l0,0
								c3.31,5.98,0.99,7.31,0.66,15.29l0,0c-0.33,7.98,2.98,20.27,2.98,20.27l0,0l13.58,6.65l62.76-0.68c0,0,5.73-13,4.09-15.11
								l0,0c-9.27-11.96-13.85-17.77-13.85-17.77l0,0l7.62,2.99c7.62,2.99,12.59-1.99,12.59-1.99l0,0c0,0-8.28-5.32-12.25-13.29l0,0
								c-3.97-7.98-1.66-9.97-3.31-20.94l0,0c-1.66-10.97-8.17-32.46-20.53-40.55l0,0c-6.54-4.28-14.34-5.33-19.54-5.33l0,0
								C43.07,0.12,41.45,0.28,40.44,0.46"/>
						</g>
					</mask>
					<path id="Fill-164" class="st40" d="M24.01-0.2c0,0,16.23,0,22.52,3.32s17.22,8.31,20.87,15.95
						c3.64,7.64,7.95,19.94,8.28,27.25c0.33,7.31-1.99,12.3,2.32,19.28c4.31,6.98,1.66,8.31-2.65,12.3
						c-4.31,3.99-5.63,3.99-1.32,9.31c4.31,5.32-0.33,19.94-0.33,19.94s-49.68,1.33-53.32-5.98c-3.64-7.31-4.97-6.65-2.65-15.29
						c2.32-8.64,6.96-8.31,1.32-15.62c-5.63-7.31-8.94-15.95-1.99-25.59c6.96-9.64,8.61-15.62,5.96-23.26
						C20.37,13.75,24.01-0.2,24.01-0.2"/>
				</g>
				<path id="Fill-167" class="st8" d="M774.33,281.64c0,0,1.78,28.65-0.44,44.07c-2.22,15.43-18.25,70.52-19.14,74.93
					c-0.89,4.41-3.11,13.66-2.67,23.36c0.44,9.7-0.89,38.34-4.44,51.57c-1.1,4.1-3.73,8.84-2.78,13.99
					c0.97,5.28,5.53,10.98,4.33,15.87c-0.28,1.15-9.98,2-10.23,3.09c-1,4.32-1.73,8.07-2,10.69c-0.89,8.81-4.17,16.8-4.17,16.8
					s-5.06-14.49-11.78-16.97c-3.75-1.38-13.11,0.66-13.11,0.66s-0.22-2.54,3.78-9.59c4-7.05,5.28-13.38,5.28-18.23
					c0-4.85-1.78-6.61-4-19.39c-2.22-12.78-7.56-44.08-8.89-53.77c-1.33-9.7-13-55.53-16.56-67.87c-3.56-12.34-8.95-26-10.28-40.99
					c-1.33-14.99,3.56-30.85,3.56-30.85L774.33,281.64z"/>
				<g id="Group-171" transform="translate(671.000000, 278.000000)">
					<g id="Clip-170">
					</g>
					<defs>
						<filter id="Adobe_OpacityMaskFilter_13_" filterUnits="userSpaceOnUse" x="-1.21" y="-3.23" width="105.84" height="230.39">
							<feColorMatrix  type="matrix" values="1 0 0 0 0  0 1 0 0 0  0 0 1 0 0  0 0 0 1 0"/>
						</filter>
					</defs>
					<mask maskUnits="userSpaceOnUse" x="-1.21" y="-3.23" width="105.84" height="230.39" id="mask-26_1_">
						<g class="st41">
							<path id="path-25_1_" class="st4" d="M5.42,31.03c1.33,15.03,6.7,28.73,10.25,41.11l0,0c3.55,12.38,15.18,58.34,16.51,68.07
								l0,0c1.33,9.72,6.65,41.11,8.86,53.92l0,0c2.22,12.82,3.99,14.59,3.99,19.45l0,0c0,4.86-1.28,11.21-5.27,18.28l0,0
								c-3.99,7.07-3.77,9.61-3.77,9.61l0,0c0,0,9.33-2.05,13.07-0.66l0,0c6.7,2.48,11.74,17.02,11.74,17.02l0,0
								c0,0,3.27-8,4.16-16.85l0,0c0.26-2.63,1-6.39,1.99-10.72l0,0c0.25-1.09,9.92-1.94,10.2-3.1l0,0
								c1.19-4.91-3.35-10.62-4.32-15.91l0,0c-0.95-5.17,1.67-9.92,2.77-14.03l0,0c3.55-13.26,4.87-41.99,4.43-51.71l0,0
								c-0.44-9.72,1.77-19.01,2.66-23.43l0,0c0.89-4.42,16.86-59.67,19.08-75.14l0,0c2.22-15.47,0.44-44.2,0.44-44.2l0,0L8.96,0.09
								C8.96,0.09,4.09,16,5.42,31.03"/>
						</g>
					</mask>
					<path id="Fill-169" class="st42" d="M54.55-3.23l50.07,1.99c0,0-1.54,10.94-1.87,17.24c-0.33,6.3-10.31,13.26-14.3,15.91
						c-3.99,2.65-21.24,10.32-27.08,40.42c-1.85,9.53-5.54,56.32-6.28,68.95c-0.99,16.83,10.1,18.25,9.43,28.2
						c-0.66,9.94-3.66,23.87-4.99,29.5c-1.33,5.64-8.31,17.24-11.63,24.2s-7.64,2.65-7.64,2.65l-14.62-58.68
						c0,0-23.26-92.16-25.59-108.07c-2.33-15.91-0.83-43.43-0.17-44.42S2.54-0.57,4.86-0.57C7.19-0.57,54.55-3.23,54.55-3.23"/>
				</g>
				<g id="Group-178" transform="translate(636.000000, 124.000000)">
					<path id="Fill-172" class="st14" d="M168.01,175.75c0.33,1,5.31,10.29,5.64,14.27c0.33,3.98,0.66,7.96-3.32,12.94
						c-3.98,4.98-8.62,9.96-10.61,10.62c-1.99,0.66-1.71-2.22-1.33-4.31c0.5-2.72,1.6-9.35,1.6-9.35s-2.85,5.94-5.75,4.2
						c-1.11-0.66,1.33-15.82,1.99-19.36c0.49-2.63-1.49-4.69-0.5-4.69C156.73,180.07,168.01,175.75,168.01,175.75"/>
					<path id="Fill-174" class="st14" d="M12.43,154.51c0,0-4.98,11.28-5.97,14.27s-1.66,7.96-0.66,11.28
						c1,3.32,3.65,7.63,5.31,8.63c1.66,1,9.62,3.65,9.62,3.65s1-2.32-1-4.31c-1.99-1.99-4.98-5.31-5.64-7.63c-0.66-2.32,0-7.3,0-7.3
						s1.16,11.33,3.81,11.33c2.65,0,2.16-11,1.83-13.32c-0.33-2.32,2.99-5.64,3.65-8.63c0.66-2.99,1-9.29,1-9.29L12.43,154.51z"/>
					<path id="Fill-176" class="st15" d="M178.79,175.36c0,0-18.69,8.46-23.55,7.58c-3.82-7.47-7.9-23.55-10.12-33.29
						c-2.21-9.73-8.85-39.38-9.73-48.67c-0.88-9.29-3.1-28.76-3.1-28.76s-5.31,16.37-4.87,23.89c0.44,7.52,4.42,15.04,5.31,20.79
						c0.88,5.75,3.98,13.72,4.87,19.47c0.88,5.75,1.77,24.34,1.77,24.34s-26.09-0.44-38.92,0c-12.83,0.44-61.04-3.1-61.04-3.1
						s2.93-13.72,6.03-26.99c3.1-13.27,5.75-22.57,4.87-29.64c-0.88-7.08,1.49-18.14,0.61-24.78c-0.88-6.64-1.77-15.04-1.77-15.04
						s-8.35,31.46-12.33,42.97c-3.98,11.5-9.29,34.95-9.29,59.29c0,6.44-6.19-9.85-11.94-7.19c-5.75,2.65-7.52,5.42-7.52,5.42
						s0.83-37.22,3.04-48.72c2.21-11.5,7.52-29.64,9.29-41.59c1.77-11.95,12.88-38.89,16.42-46.85C40.35,16.52,50.47,8.5,57.11,6.29
						c6.63-2.21,13.27-3.98,13.27-3.98s13.27-3.54,21.67-1.77s24.77,3.54,24.77,3.54s10.23,4.03,16.86,7.13
						c6.63,3.1,16.38,18.52,17.91,25.88c2.68,12.83,5.92,23.62,6.36,32.91s1.77,39.82,3.1,50
						C162.37,130.18,178.79,175.36,178.79,175.36"/>
				</g>
				<g id="Group-181" transform="translate(639.000000, 124.000000)">
					<g id="Clip-180">
					</g>
					<defs>
						<filter id="Adobe_OpacityMaskFilter_14_" filterUnits="userSpaceOnUse" x="29.7" y="-2.68" width="129.28" height="189.74">
							<feColorMatrix  type="matrix" values="1 0 0 0 0  0 1 0 0 0  0 0 1 0 0  0 0 0 1 0"/>
						</filter>
					</defs>
					<mask maskUnits="userSpaceOnUse" x="29.7" y="-2.68" width="129.28" height="189.74" id="mask-28_1_">
						<g class="st43">
							<path id="path-27_1_" class="st4" d="M67.38,2.31c0,0-6.63,1.77-13.27,3.98l0,0C47.48,8.5,37.36,16.51,33.82,24.47l0,0
								c-3.54,7.96-14.65,34.9-16.42,46.84l0,0c-1.77,11.94-7.08,30.08-9.29,41.58l0,0c-2.21,11.5-3.04,48.71-3.04,48.71l0,0
								c0,0,1.77-2.77,7.52-5.42l0,0c2.61-1.21,5.32,1.5,7.49,4.21l0,0c2.61,3.25,4.45,6.49,4.45,2.98l0,0
								c0-24.33,5.31-47.77,9.29-59.27l0,0c3.98-11.5,12.33-42.96,12.33-42.96l0,0c0,0,0.88,8.4,1.77,15.04l0,0
								c0.88,6.63-1.5,17.69-0.61,24.77l0,0c0.88,7.08-1.77,16.37-4.87,29.64l0,0c-3.1,13.27-6.03,26.98-6.03,26.98l0,0
								c0,0,48.22,3.54,61.04,3.1l0,0c12.83-0.44,38.92,0,38.92,0l0,0c0,0-0.89-18.58-1.77-24.33l0,0
								c-0.88-5.75-3.98-13.71-4.87-19.46l0,0c-0.88-5.75-4.87-13.27-5.31-20.79l0,0c-0.44-7.52,4.87-23.89,4.87-23.89l0,0
								c0,0,2.21,19.46,3.1,28.75l0,0c0.88,9.29,7.52,38.93,9.73,48.66l0,0c2.21,9.73,6.3,25.81,10.11,33.28l0,0
								c4.86,0.88,23.55-7.57,23.55-7.57l0,0c0,0-16.42-45.17-17.74-55.34l0,0c-1.33-10.17-2.65-40.7-3.1-49.98l0,0
								c-0.44-9.29-3.68-20.08-6.36-32.91l0,0c-1.54-7.36-11.28-22.78-17.91-25.88l0,0c-6.63-3.1-16.86-7.13-16.86-7.13l0,0
								c0,0-16.36-1.77-24.77-3.54l0,0c-1.68-0.35-3.56-0.5-5.48-0.5l0,0C75.87,0.04,67.38,2.31,67.38,2.31"/>
						</g>
					</mask>
					<path id="Fill-179" class="st44" d="M158.98,187.06c0,0-4.05-31.68-9.1-52.9c-7.5-31.55-36.49-35.55-43.08-46.7
						c-10.87-18.38,4.83-41.14,8.27-51.79c3.45-10.64,3.08-24.88-11.48-30.01C89.05,0.54,70.52-6.54,62.32-0.12
						c-8.2,6.41-17.68,16.01-20.28,29.89C39.44,43.65,29.7,56.83,29.7,69.08c0,12.25,0.15,16.32,4.12,35.01
						c3.97,18.69,0.8,53.39-0.58,62.08C31.87,174.87,158.98,187.06,158.98,187.06"/>
				</g>
				<path id="Fill-182" class="st14" d="M748.33,85.3c0,0,3.53-3.11,4.86,0c1.32,3.11,1.32,6.21-2.21,7.99
					c-3.53,1.78-5.3,3.11-5.3,3.11s-5.3,15.98-3.53,22.19c1.77,6.21,8.39,9.76,8.39,9.76s-14.74,25.24-27.65,23.57
					c-12.91-1.66-12.91-10.65-15.62-19.58c-2.19-7.23-0.88-5.33-0.88-5.33l7.5-5.77c0,0,2.21-9.76,1.77-12.43
					c-0.44-2.66-3.53-2.22-5.74-9.32c-2.21-7.1-3.97-14.2-2.65-23.97c1.32-9.76,2.65-15.98,7.95-18.2
					c5.3-2.22,14.57-5.77,19.43-0.89c4.86,4.88,9.27,10.65,10.6,15.53C746.56,76.87,748.33,85.3,748.33,85.3"/>
				<g id="Group-186" transform="translate(701.000000, 54.000000)">
					<g id="Clip-185">
					</g>
					<defs>
						<filter id="Adobe_OpacityMaskFilter_15_" filterUnits="userSpaceOnUse" x="-4.96" y="-0.91" width="55.12" height="114">
							<feColorMatrix  type="matrix" values="1 0 0 0 0  0 1 0 0 0  0 0 1 0 0  0 0 0 1 0"/>
						</filter>
					</defs>
					<mask maskUnits="userSpaceOnUse" x="-4.96" y="-0.91" width="55.12" height="114" id="mask-30_1_">
						<g class="st45">
							<path id="path-29_1_" class="st4" d="M14.3,3.41c-5.28,2.22-6.6,8.42-7.92,18.17l0,0c-1.32,9.75,0.44,16.84,2.64,23.93l0,0
								c2.2,7.09,5.28,6.65,5.72,9.31l0,0c0.44,2.66-1.76,12.41-1.76,12.41l0,0L5.5,72.98c0,0-1.3-1.9,0.88,5.32l0,0
								c2.69,8.91,2.69,17.89,15.57,19.55l0,0c12.87,1.66,27.56-23.54,27.56-23.54l0,0c0,0-6.6-3.55-8.36-9.75l0,0
								c-1.76-6.2,3.52-22.16,3.52-22.16l0,0c0,0,1.76-1.33,5.28-3.1l0,0c3.52-1.77,3.52-4.87,2.2-7.98l0,0c-1.32-3.1-4.84,0-4.84,0
								l0,0c0,0-1.76-8.42-3.08-13.29l0,0C42.9,13.16,38.5,7.39,33.66,2.52l0,0c-1.78-1.79-4.16-2.45-6.71-2.45l0,0
								C22.56,0.07,17.64,2.01,14.3,3.41"/>
						</g>
					</mask>
					<path id="Fill-184" class="st46" d="M26.53-0.91c0,0,7.37,1.44,9.57,8.97c2.2,7.53,1.96,14.4,1.96,14.4l2.66,3.55
						c0,0-3.92,2.69-4.62,7.98c-0.99,7.42-1.76,16.4-9.02,18.39l10.12,0.44c2.42,2.88-1.09,8.78-0.88,11.74
						c0.66,9.31,8.34,15.07,11.42,17.28l2.42,16.95l-29.71,14.29L-4.96,98.46l4.29-29.25c0,0,6.93-4.32,7.59-5.32
						c0.66-1,1.65-5.98,1.65-5.98S-0.99,43.62-0.33,41.3c0.66-2.33,1.65-30.91,1.98-32.24s1.32-9.64,7.92-8.64
						S26.53-0.91,26.53-0.91"/>
				</g>
				<path id="Fill-187" class="st31" d="M706,85.87c0,0,6.29-3.87,10.41-3.87c4.12,0,25.59,3.48,25.59,3.48v13.97
					c0,0-14.66,12.49-23.45,12.55c-6.14,0.05-9.9-6.79-10.63-9.81C707.2,99.17,706,85.87,706,85.87"/>
				<g id="Group-191" transform="translate(700.000000, 82.000000)">
					<g id="Clip-190">
					</g>
					<defs>
						<filter id="Adobe_OpacityMaskFilter_16_" filterUnits="userSpaceOnUse" x="-0.03" y="-5.19" width="17.87" height="37.95">
							<feColorMatrix  type="matrix" values="1 0 0 0 0  0 1 0 0 0  0 0 1 0 0  0 0 0 1 0"/>
						</filter>
					</defs>
					<mask maskUnits="userSpaceOnUse" x="-0.03" y="-5.19" width="17.87" height="37.95" id="mask-32_1_">
						<g class="st47">
							<path id="path-31_1_" class="st4" d="M5.11,3.95c0,0,1.22,13.26,1.96,16.27l0,0c0.74,3.01,4.58,9.83,10.83,9.78l0,0
								c8.95-0.07,23.89-12.51,23.89-12.51l0,0V3.56c0,0-21.88-3.47-26.08-3.47l0,0C11.52,0.09,5.11,3.95,5.11,3.95L5.11,3.95z"/>
						</g>
					</mask>
					<path id="Fill-189" class="st48" d="M15.62-5.19c0,0-1.01,9.72-1.34,12.8c-0.33,3.09-0.76,6.75,1.34,8.14s2.76,3.9,1.77,10.22
						c-0.98,6.32-8.09,6.79-8.09,6.79L0.82,11.78L-0.03-3.19L15.62-5.19z"/>
				</g>
				<g id="Group-204" transform="translate(238.000000, 79.000000)">
					<path id="Stroke-192" class="st49" d="M503.49,8.68c0,0,12.89-8.22,15.41-8.48"/>
					<path id="Stroke-194" class="st49" d="M503.49,20.39c0,0,10.97-2.97,15.41-5.61"/>
					<path id="Fill-196" class="st6" d="M36.9,338.13c3.98-0.84,7.29,2.81,5.6,5.73c-1.7,2.92-5.1,13.1-3.49,16.34
						c1.61,3.24,7.45,11.22-4.94,13.84s-18.18,4.6-23.41,0.58c-5.23-4.01-9.39-10.54,0-15.33c9.39-4.79,2.38-2.82,5.88-8.16
						C20.02,345.78,36.9,338.13,36.9,338.13"/>
					<path id="Fill-198" class="st7" d="M20.87,362.04c-1.12,5.1,1.83,5.75,5.77,4.92s9.1-5.09,8.5-7.93
						c-0.6-2.84-4.28-4.47-8.22-3.64C22.98,356.22,21.48,359.26,20.87,362.04"/>
					<path id="Fill-200" class="st35" d="M42.86,332.02c0,0,0.19,4.22-0.19,6.33c-0.38,2.11,1.34,5.75-2.11,7.29
						c-3.45,1.53-5.75,1.92-5.75,1.92s-9.58-0.77-8.82-3.07c0.77-2.3,4.41-10.74,4.41-10.74l4.22-3.07L42.86,332.02z"/>
					<path id="Fill-202" class="st35" d="M36.92,345.06c0,0-5.56-7.29-6.9-7.29c-1.34,0-6.72-1.52-6.61,0.48
						c0.35,6.29-6.32,5.24-6.9,7.54c-0.57,2.3-1.24,5.79,0.86,7.71c2.11,1.92,5.17,2.11,5.17,4.03c0,1.92,0.19,3.26,2.68,3.45
						c2.49,0.19,6.52,0,8.24,0.38c1.72,0.38,1.72-1.15,1.92-4.22c0.19-3.07,0.77-6.14,0.77-8.25
						C36.15,346.78,36.92,345.06,36.92,345.06"/>
				</g>
				<g id="Group-207" transform="translate(248.000000, 416.000000)">
					<g id="Clip-206">
					</g>
					<defs>
						<filter id="Adobe_OpacityMaskFilter_17_" filterUnits="userSpaceOnUse" x="3.28" y="9.67" width="22.41" height="15.5">
							<feColorMatrix  type="matrix" values="1 0 0 0 0  0 1 0 0 0  0 0 1 0 0  0 0 0 1 0"/>
						</filter>
					</defs>
					<mask maskUnits="userSpaceOnUse" x="3.28" y="9.67" width="22.41" height="15.5" id="mask-34_1_">
						<g class="st50">
							<path id="path-33_1_" class="st4" d="M12.91,1.15c0.36,6.14-6.44,5.11-7.02,7.35l0,0c-0.59,2.24-1.27,5.64,0.88,7.51l0,0
								c2.15,1.87,5.27,2.06,5.27,3.93l0,0c0,1.87,0.2,3.18,2.73,3.37l0,0c2.54,0.19,6.63,0,8.39,0.37l0,0
								c1.76,0.37,1.76-1.12,1.95-4.11l0,0c0.19-2.99,0.78-5.98,0.78-8.04l0,0c0-2.06,0.78-3.74,0.78-3.74l0,0
								c0,0-5.66-7.1-7.02-7.1l0,0c-0.82,0-3.15-0.54-4.84-0.54l0,0C13.69,0.14,12.86,0.37,12.91,1.15"/>
						</g>
					</mask>
					<path id="Fill-205" class="st51" d="M12.42,9.84c-2.9-0.72-9.14,1.03-9.14,1.03s2.9,8.51,3.48,8.88
						c0.59,0.37,4.29,4.49,6.05,4.86c1.76,0.37,12.88,0.56,12.88,0.56s-1.37-2.99-2.34-4.86c-0.98-1.87,0.78-3.18-2.34-5.98
						C17.88,11.52,15.32,10.56,12.42,9.84"/>
				</g>
				<path id="Fill-208" class="st52" d="M266.84,144.03c0,0,0.58-3.45,2.71-3.83c2.13-0.38,8.84-0.54,14.14,2.88
					c7.23,4.67,11.04,17.06,12.01,23.39c0.97,6.33,2.68,4.7,5,9.3c2.32,4.6,0.81,15.4,0.81,15.4s-0.73-3.89-5.19-5.61
					c-4.46-1.73-3.53,2.17-3.53,2.17s-11.88-2.72-6.46,4.18c0.96,1.22-0.71,10.65-0.71,10.65L262,205l-7.94-3.83
					c0,0,8.37-6.05,8.56-10.65c0.19-4.6-8.76-6.42-10.69-9.87c-1.94-3.45-4.61-2.73-1.51-8.67s-1.44-6.53-0.11-12.1
					c1.08-4.54,3.76-10.67,8.21-14.51C262.97,141.54,266.84,144.03,266.84,144.03"/>
				<g id="Group-212" transform="translate(243.000000, 140.000000)">
					<g id="Clip-211">
					</g>
					<defs>
						<filter id="Adobe_OpacityMaskFilter_18_" filterUnits="userSpaceOnUse" x="9.78" y="-0.05" width="38.91" height="61.8">
							<feColorMatrix  type="matrix" values="1 0 0 0 0  0 1 0 0 0  0 0 1 0 0  0 0 0 1 0"/>
						</filter>
					</defs>
					<mask maskUnits="userSpaceOnUse" x="9.78" y="-0.05" width="38.91" height="61.8" id="mask-36_1_">
						<g class="st53">
							<path id="path-35_1_" class="st4" d="M25.62,0.34c-2.11,0.38-2.69,3.82-2.69,3.82l0,0c0,0-3.84-2.48-8.26,1.34l0,0
								c-4.42,3.82-7.07,9.93-8.14,14.47l0,0c-1.31,5.55,3.19,6.14,0.11,12.06l0,0c-3.07,5.93-0.42,5.2,1.5,8.65l0,0
								c1.92,3.44,10.8,5.25,10.61,9.84l0,0c-0.19,4.59-8.49,10.62-8.49,10.62l0,0l7.88,3.82l23.44-2.44c0,0,1.66-9.4,0.7-10.62l0,0
								c-5.38-6.88,6.4-4.17,6.4-4.17l0,0c0,0-0.92-3.88,3.5-2.16l0,0c4.42,1.72,5.14,5.6,5.14,5.6l0,0c0,0,1.5-10.77-0.8-15.35l0,0
								c-2.31-4.59-4-2.96-4.96-9.27l0,0C50.6,20.22,46.82,7.86,39.65,3.2l0,0c-3.79-2.46-8.32-3.06-11.34-3.06l0,0
								C27.15,0.14,26.21,0.23,25.62,0.34"/>
						</g>
					</mask>
					<path id="Fill-210" class="st54" d="M16.09-0.05c0,0,9.42,0,13.07,1.91c3.65,1.91,9.99,4.78,12.11,9.18s4.61,11.47,4.8,15.68
						s-1.15,7.07,1.35,11.09c2.5,4.01,0.96,4.78-1.54,7.07c-2.5,2.29-3.27,2.29-0.77,5.35S44.91,61.7,44.91,61.7
						s-28.82,0.76-30.94-3.44s-2.88-3.82-1.54-8.79s4.04-4.78,0.77-8.98c-3.27-4.21-5.19-9.18-1.15-14.72s-0.46-0.92-2-5.32
						C8.52,16.05,16.09-0.05,16.09-0.05"/>
				</g>
				<path id="Fill-213" class="st8" d="M298.61,279.54c0,0,1.03,16.72-0.26,25.72c-1.29,9-10.61,41.16-11.13,43.73
					c-0.52,2.57-1.81,7.98-1.55,13.63c0.26,5.66-0.52,22.38-2.59,30.1c-0.64,2.39-2.17,5.16-1.62,8.17
					c0.57,3.08,3.21,6.41,2.52,9.26c-0.16,0.67-5.8,1.17-5.95,1.8c-0.58,2.52-1.01,4.71-1.16,6.24c-0.52,5.14-2.43,9.8-2.43,9.8
					s-2.94-8.46-6.85-9.9c-2.18-0.81-7.63,0.39-7.63,0.39s-0.13-1.48,2.2-5.6c2.33-4.12,3.07-7.81,3.07-10.64
					c0-2.83-1.03-3.86-2.33-11.32c-1.29-7.46-4.4-25.72-5.17-31.38c-0.78-5.66-7.56-32.41-9.63-39.62
					c-2.07-7.2-5.2-15.18-5.98-23.92c-0.78-8.75,2.07-18.01,2.07-18.01L298.61,279.54z"/>
				<g id="Group-217" transform="translate(237.000000, 278.000000)">
					<g id="Clip-216">
					</g>
					<defs>
						<filter id="Adobe_OpacityMaskFilter_19_" filterUnits="userSpaceOnUse" x="1.54" y="-1.66" width="54.93" height="133.84">
							<feColorMatrix  type="matrix" values="1 0 0 0 0  0 1 0 0 0  0 0 1 0 0  0 0 0 1 0"/>
						</filter>
					</defs>
					<mask maskUnits="userSpaceOnUse" x="1.54" y="-1.66" width="54.93" height="133.84" id="mask-38_1_">
						<g class="st55">
							<path id="path-37_1_" class="st4" d="M5.37,18.24c0.77,8.73,3.88,16.69,5.93,23.88l0,0c2.05,7.19,8.78,33.89,9.54,39.54l0,0
								c0.77,5.65,3.84,23.88,5.12,31.33l0,0c1.28,7.45,2.31,8.47,2.31,11.3l0,0c0,2.82-0.74,6.51-3.04,10.62l0,0
								c-2.31,4.11-2.18,5.59-2.18,5.59l0,0c0,0,5.4-1.19,7.56-0.39l0,0c3.87,1.44,6.79,9.89,6.79,9.89l0,0c0,0,1.89-4.65,2.4-9.79
								l0,0c0.15-1.53,0.58-3.71,1.15-6.23l0,0c0.14-0.63,5.73-1.13,5.89-1.8l0,0c0.69-2.85-1.94-6.17-2.5-9.24l0,0
								c-0.55-3,0.97-5.76,1.6-8.15l0,0c2.05-7.7,2.82-24.39,2.56-30.04l0,0c-0.26-5.65,1.02-11.04,1.54-13.61l0,0
								c0.51-2.57,9.75-34.66,11.03-43.65l0,0c1.28-8.99,0.26-25.68,0.26-25.68l0,0L7.42,0.26C7.42,0.26,4.6,9.51,5.37,18.24"/>
						</g>
					</mask>
					<path id="Fill-215" class="st56" d="M33.77-1.66l21.33,2.5c0,0,1.54,3.85,1.35,7.51c-0.19,3.66-0.77,8.86-3.07,10.4
						c-2.31,1.54-12.28,6-15.66,23.48c-1.07,5.53-3.2,32.72-3.63,40.06c-0.57,9.77,5.84,10.6,5.45,16.38
						c-0.38,5.78-2.11,13.87-2.88,17.14c-0.77,3.27-4.8,10.01-6.73,14.06c-1.92,4.04-4.42,1.54-4.42,1.54l-8.45-34.09
						c0,0-13.45-53.54-14.8-62.78C0.92,25.3,1.78,9.31,2.16,8.74C2.55,8.16,3.7-0.12,5.05-0.12C6.39-0.12,33.77-1.66,33.77-1.66"/>
				</g>
				<g id="Group-224" transform="translate(217.000000, 190.000000)">
					<path id="Fill-218" class="st14" d="M99.57,101.89c0.19,0.58,3.08,5.96,3.28,8.26c0.19,2.31,0.39,4.61-1.93,7.49
						c-2.31,2.88-5.01,5.76-6.17,6.15c-1.16,0.38-0.99-1.29-0.77-2.5c0.29-1.57,0.93-5.42,0.93-5.42s-1.66,3.44-3.34,2.43
						c-0.64-0.38,0.77-9.16,1.16-11.21c0.29-1.52-0.87-2.72-0.29-2.72C93.02,104.39,99.57,101.89,99.57,101.89"/>
					<path id="Fill-220" class="st14" d="M9.16,89.6c0,0-2.89,6.53-3.47,8.26c-0.58,1.73-0.96,4.61-0.39,6.53
						c0.58,1.92,2.12,4.42,3.08,5c0.96,0.58,5.59,2.11,5.59,2.11s0.58-1.34-0.58-2.5c-1.16-1.15-2.89-3.07-3.28-4.42s0-4.23,0-4.23
						s0.67,6.56,2.22,6.56c1.54,0,1.25-6.37,1.06-7.71c-0.19-1.35,1.74-3.27,2.12-5c0.39-1.73,0.58-5.38,0.58-5.38L9.16,89.6z"/>
					<path id="Fill-222" class="st15" d="M105.84,101.67c0,0-10.86,4.9-13.69,4.39c-2.22-4.32-4.59-13.64-5.88-19.27
						c-1.28-5.64-5.14-22.8-5.65-28.18c-0.51-5.38-1.8-16.65-1.8-16.65s-3.08,9.48-2.83,13.83c0.26,4.35,2.57,8.71,3.08,12.04
						c0.51,3.33,2.31,7.94,2.83,11.27c0.51,3.33,1.03,14.09,1.03,14.09s-15.17-0.26-22.62,0c-7.45,0.26-35.48-1.79-35.48-1.79
						s1.7-7.94,3.5-15.63c1.8-7.69,3.34-13.07,2.83-17.17s0.87-10.5,0.35-14.35c-0.51-3.84-1.03-8.71-1.03-8.71
						s-4.85,18.22-7.17,24.88c-2.31,6.66-5.4,20.24-5.4,34.33c0,3.73-3.6-5.7-6.94-4.16c-3.34,1.54-4.37,3.14-4.37,3.14
						S7.1,72.17,8.39,65.51c1.29-6.66,4.37-17.16,5.4-24.08c1.03-6.92,7.49-22.52,9.54-27.13c2.06-4.61,7.94-9.25,11.79-10.53
						c3.86-1.28,7.71-2.31,7.71-2.31s7.71-2.05,12.59-1.02c4.88,1.02,14.39,2.05,14.39,2.05s5.94,2.33,9.8,4.13
						c3.86,1.79,9.52,10.72,10.41,14.99c1.56,7.43,3.44,13.68,3.7,19.06c0.26,5.38,1.03,23.06,1.8,28.95
						C96.3,75.51,105.84,101.67,105.84,101.67"/>
				</g>
				<g id="Group-227" transform="translate(218.000000, 190.000000)">
					<g id="Clip-226">
					</g>
					<defs>
						<filter id="Adobe_OpacityMaskFilter_20_" filterUnits="userSpaceOnUse" x="3.21" y="5.08" width="93.84" height="102.62">
							<feColorMatrix  type="matrix" values="1 0 0 0 0  0 1 0 0 0  0 0 1 0 0  0 0 0 1 0"/>
						</filter>
					</defs>
					<mask maskUnits="userSpaceOnUse" x="3.21" y="5.08" width="93.84" height="102.62" id="mask-40_1_">
						<g class="st57">
							<path id="path-39_1_" class="st4" d="M41.25,1.46c0,0-3.83,1.02-7.66,2.3l0,0c-3.83,1.28-9.67,5.9-11.72,10.5l0,0
								c-2.04,4.6-8.46,20.15-9.48,27.04l0,0c-1.02,6.9-4.09,17.37-5.36,24.01l0,0c-1.28,6.64-1.76,28.12-1.76,28.12l0,0
								c0,0,1.02-1.6,4.34-3.13l0,0c1.51-0.7,3.07,0.87,4.32,2.43l0,0c1.51,1.87,2.57,3.75,2.57,1.72l0,0
								c0-14.05,3.06-27.58,5.36-34.22l0,0c2.3-6.64,7.12-24.8,7.12-24.8l0,0c0,0,0.51,4.85,1.02,8.68l0,0
								c0.51,3.83-0.86,10.22-0.35,14.3l0,0c0.51,4.09-1.02,9.45-2.81,17.11l0,0c-1.79,7.66-3.48,15.58-3.48,15.58l0,0
								c0,0,27.84,2.04,35.24,1.79l0,0c7.41-0.26,22.47,0,22.47,0l0,0c0,0-0.51-10.73-1.02-14.05l0,0
								c-0.51-3.32-2.3-7.92-2.81-11.24l0,0c-0.51-3.32-2.81-7.66-3.06-12l0,0C73.94,51.26,77,41.81,77,41.81l0,0
								c0,0,1.28,11.24,1.79,16.6l0,0c0.51,5.36,4.34,22.47,5.62,28.09l0,0c1.28,5.62,3.64,14.91,5.84,19.21l0,0
								c2.81,0.51,13.6-4.37,13.6-4.37l0,0c0,0-9.48-26.08-10.24-31.95l0,0c-0.77-5.87-1.53-23.5-1.79-28.86l0,0
								c-0.26-5.36-2.13-11.59-3.67-19l0,0C87.25,17.29,81.63,8.38,77.8,6.6l0,0c-3.83-1.79-9.73-4.12-9.73-4.12l0,0
								c0,0-9.45-1.02-14.3-2.04l0,0c-0.97-0.2-2.05-0.29-3.16-0.29l0,0C46.15,0.15,41.25,1.46,41.25,1.46"/>
						</g>
					</mask>
					<path id="Fill-225" class="st58" d="M20.06,23.04c1.72-3.45,0.97-9,6.91-12.64c5.94-3.64,22.97-5.94,28.71-5.17
						c5.75,0.77,7.66,0.38,11.49,1.15c3.83,0.77,9.38,1.92,11.87,4.41c2.49,2.49,4.86,7.47,5.63,12.64
						c0.77,5.17,1.84,19.16,2.8,23.56c0.96,4.41,1.27,14.4,0.24,20.21c-2.92,16.44,9.72,19.73,8.57,32.27
						c-0.18,1.92,0.77,6.51,0.77,6.51l-6.7,1.72l-7.85-22.03l-5.55-33.14c0,0,1.72-4.41-0.77-7.09c-2.49-2.68-5.55,0.19-5.55,4.79
						c0,4.6,1.34,14.75,2.49,19.15c1.15,4.41,2.87,6.7,2.87,11.49V94.1l-53.91-0.96l4.31-30.84l2.49-20.5c0,0,2.68-8.05-0.38-3.45
						s-6.13,13.22-6.89,16.47c-0.77,3.26-8.16,4.6-10.46,9.58c-2.3,4.98-2.3,10.53-3.06,13.03C7.3,79.93,3.21,95.83,3.21,95.83
						l2.11-45.97c0,0,0.57-1.72,4.6-9c4.02-7.28,5.55-9.19,8.04-13.03C20.44,24,20.06,23.04,20.06,23.04"/>
				</g>
				<path id="Fill-228" class="st14" d="M283.69,166.29c0,0,2.06-1.8,2.83,0c0.77,1.8,0.77,3.61-1.29,4.64
					c-2.06,1.03-3.09,1.8-3.09,1.8s-3.09,9.27-2.06,12.88s4.89,5.67,4.89,5.67s-8.6,14.64-16.13,13.68
					c-7.53-0.97-7.53-6.18-9.11-11.36c-1.28-4.2-0.51-3.09-0.51-3.09l4.38-3.35c0,0,1.29-5.67,1.03-7.21
					c-0.26-1.55-2.06-1.29-3.35-5.41c-1.29-4.12-2.32-8.24-1.55-13.91c0.77-5.67,2.62-6.89,5.71-8.17c3.09-1.29,2.1,0.3,4.94,3.13
					c2.83,2.83,10.73,0.15,11.5,2.98C282.66,161.4,283.69,166.29,283.69,166.29"/>
				<g id="Group-232" transform="translate(254.000000, 152.000000)">
					<g id="Clip-231">
					</g>
					<defs>
						<filter id="Adobe_OpacityMaskFilter_21_" filterUnits="userSpaceOnUse" x="-0.64" y="-4.26" width="31.71" height="65.91">
							<feColorMatrix  type="matrix" values="1 0 0 0 0  0 1 0 0 0  0 0 1 0 0  0 0 0 1 0"/>
						</filter>
					</defs>
					<mask maskUnits="userSpaceOnUse" x="-0.64" y="-4.26" width="31.71" height="65.91" id="mask-42_1_">
						<g class="st59">
							<path id="path-41_1_" class="st4" d="M11.49,0.61c-3.04,1.28-4.85,2.5-5.61,8.13l0,0c-0.76,5.64,0.25,9.74,1.52,13.83l0,0
								c1.27,4.1,3.04,3.84,3.29,5.38l0,0c0.25,1.54-1.01,7.17-1.01,7.17l0,0l-4.3,3.33c0,0-0.75-1.1,0.51,3.07l0,0
								c1.55,5.15,1.55,10.34,8.96,11.3l0,0c7.41,0.96,15.86-13.61,15.86-13.61l0,0c0,0-3.8-2.05-4.81-5.64l0,0
								c-1.01-3.59,2.02-12.81,2.02-12.81l0,0c0,0,1.01-0.77,3.04-1.79l0,0c2.02-1.02,2.03-2.82,1.27-4.61l0,0
								c-0.76-1.79-2.79,0-2.79,0l0,0c0,0-1.01-4.87-1.77-7.69l0,0c-0.76-2.82-8.52-0.15-11.31-2.97l0,0
								c-2.12-2.14-2.06-3.57-3.25-3.57l0,0C12.72,0.16,12.22,0.3,11.49,0.61"/>
						</g>
					</mask>
					<path id="Fill-230" class="st60" d="M17.47-4.26c0,0,4.24,0.83,5.51,5.19c1.27,4.36,1.13,8.33,1.13,8.33l1.53,2.05
						c0,0-2.25,1.55-2.66,4.61c-0.57,4.29-1.01,9.48-5.19,10.63l5.82,0.26c1.39,1.67-0.63,5.08-0.51,6.79
						c0.38,5.38,4.8,8.71,6.57,9.99l1.39,9.8l-17.09,8.26l-14.62-8.45l2.47-16.91c0,0,3.99-2.5,4.37-3.07
						c0.38-0.58,0.95-3.46,0.95-3.46s-5.51-8.26-5.13-9.61S2.96,2.28,3.15,1.51c0.19-0.77,0.76-5.57,4.56-5S17.47-4.26,17.47-4.26"
						/>
				</g>
				<path id="Fill-233" class="st31" d="M259,168.19c0,0,3.67-2.19,6.07-2.19c2.4,0,14.93,1.97,14.93,1.97v7.91
					c0,0-8.55,7.08-13.68,7.11c-3.58,0.03-5.78-3.85-6.2-5.56C259.7,175.73,259,168.19,259,168.19"/>
				<g id="Group-237" transform="translate(254.000000, 166.000000)">
					<g id="Clip-236">
					</g>
					<defs>
						<filter id="Adobe_OpacityMaskFilter_22_" filterUnits="userSpaceOnUse" x="2.13" y="-2.96" width="10.49" height="21.52">
							<feColorMatrix  type="matrix" values="1 0 0 0 0  0 1 0 0 0  0 0 1 0 0  0 0 0 1 0"/>
						</filter>
					</defs>
					<mask maskUnits="userSpaceOnUse" x="2.13" y="-2.96" width="10.49" height="21.52" id="mask-44_1_">
						<g class="st61">
							<path id="path-43_1_" class="st4" d="M5.15,2.22c0,0,0.72,7.52,1.15,9.23l0,0c0.43,1.71,2.69,5.57,6.36,5.55l0,0
								c5.25-0.04,14.02-7.1,14.02-7.1l0,0V2.01c0,0-12.84-1.97-15.31-1.97l0,0C8.91,0.04,5.15,2.22,5.15,2.22L5.15,2.22z"/>
						</g>
					</mask>
					<path id="Fill-235" class="st62" d="M11.32-2.96c0,0-0.6,5.51-0.79,7.26c-0.19,1.75-0.45,3.83,0.79,4.61s1.62,2.21,1.04,5.8
						s-4.75,3.85-4.75,3.85L2.63,6.66l-0.5-8.48L11.32-2.96z"/>
				</g>
				<g id="Group-251" transform="translate(274.000000, 163.000000)">
					<path id="Stroke-238" class="st63" d="M5.25,5.08c0,0,7.49-4.76,8.95-4.9"/>
					<path id="Stroke-240" class="st63" d="M5.25,11.85c0,0,6.37-1.72,8.95-3.25"/>
					<g id="Group-244" transform="translate(133.200000, 392.446994)">
						<g id="Clip-243">
						</g>
						<defs>
							<filter id="Adobe_OpacityMaskFilter_23_" filterUnits="userSpaceOnUse" x="5.08" y="0.27" width="86.83" height="73.63">
								<feColorMatrix  type="matrix" values="1 0 0 0 0  0 1 0 0 0  0 0 1 0 0  0 0 0 1 0"/>
							</filter>
						</defs>
						<mask maskUnits="userSpaceOnUse" x="5.08" y="0.27" width="86.83" height="73.63" id="mask-46_1_">
							<g class="st64">
								<polygon id="path-45_1_" class="st4" points="5.08,0.27 91.91,0.27 91.91,73.9 5.08,73.9 								"/>
							</g>
						</mask>
						<path id="Fill-242" class="st65" d="M80.48,0.53c7.69-1.61,13.87,4.45,10.48,9.49c-3.39,5.04-10.4,22.53-7.47,27.98
							c2.93,5.45,13.77,18.76-10.14,23.78C49.44,66.8,34.06,78.52,24.2,71.94c-9.86-6.59-29.98-21.68-11.73-30.28
							c18.25-8.59,21.33-8.81,28.29-18.06C47.73,14.34,80.48,0.53,80.48,0.53"/>
					</g>
					<path id="Fill-245" class="st7" d="M183.51,429.8c-2.39,8.73,3.25,9.71,10.85,8.11c7.61-1.6,17.7-9.09,16.69-13.89
						c-1.02-4.81-8-7.41-15.61-5.81C187.83,419.8,184.81,425.03,183.51,429.8"/>
					<path id="Fill-247" class="st15" d="M226.75,371.3c0,0,0.39,8.17-0.4,12.26c-0.8,4.09,2.79,11.16-4.38,14.13
						c-7.16,2.98-11.94,3.72-11.94,3.72s-19.91-1.48-18.32-5.95c1.59-4.46,9.16-20.81,9.16-20.81l8.76-5.95L226.75,371.3z"/>
					<path id="Fill-249" class="st15" d="M214.39,396.57c0,0-11.55-14.12-14.33-14.12c-2.8,0-13.97-2.95-13.75,0.93
						c0.73,12.2-13.14,10.16-14.34,14.61c-1.2,4.47-2.58,11.23,1.8,14.95c4.38,3.71,10.75,4.09,10.75,7.8c0,3.71,0.4,6.32,5.58,6.7
						c5.18,0.37,13.54,0,17.12,0.73c3.59,0.75,3.59-2.22,3.99-8.17c0.4-5.95,1.59-11.89,1.59-15.99
						C212.81,399.92,214.39,396.57,214.39,396.57"/>
				</g>
				<g id="Group-254" transform="translate(439.000000, 544.000000)">
					<g id="Clip-253">
					</g>
					<defs>
						<filter id="Adobe_OpacityMaskFilter_24_" filterUnits="userSpaceOnUse" x="1.09" y="19.08" width="45.67" height="30.65">
							<feColorMatrix  type="matrix" values="1 0 0 0 0  0 1 0 0 0  0 0 1 0 0  0 0 0 1 0"/>
						</filter>
					</defs>
					<mask maskUnits="userSpaceOnUse" x="1.09" y="19.08" width="45.67" height="30.65" id="mask-48_1_">
						<g class="st66">
							<path id="path-47_1_" class="st4" d="M20.71,2.23c0.73,12.13-13.12,10.1-14.32,14.53l0,0C5.2,21.2,3.81,27.92,8.19,31.62l0,0
								c4.37,3.69,10.74,4.06,10.74,7.76l0,0c0,3.69,0.4,6.28,5.57,6.66l0,0c5.18,0.36,13.52,0,17.1,0.73l0,0
								c3.58,0.75,3.58-2.21,3.98-8.13l0,0c0.4-5.92,1.59-11.83,1.59-15.9l0,0c0-4.06,1.58-7.39,1.58-7.39l0,0
								c0,0-11.53-14.04-14.31-14.04l0,0c-1.68,0-6.42-1.07-9.86-1.07l0,0C22.32,0.24,20.62,0.7,20.71,2.23"/>
						</g>
					</mask>
					<path id="Fill-252" class="st67" d="M19.72,19.42c-5.9-1.43-18.63,2.03-18.63,2.03s5.9,16.82,7.1,17.56
						c1.19,0.74,8.75,8.87,12.33,9.61c3.58,0.74,26.24,1.11,26.24,1.11s-2.78-5.91-4.77-9.61c-1.99-3.69,1.59-6.28-4.77-11.83
						C30.85,22.75,25.62,20.84,19.72,19.42"/>
				</g>
				<path id="Fill-255" class="st8" d="M530.93,284c0,0,0.63,28.93-2.01,46.26c-2.65,17.32-14.63,69.51-15.69,74.46
					c-1.06,4.95-3.7,15.35-3.18,26.24c0.53,10.89-1.6,54.32-5.84,69.17c-1.32,4.6-4.45,9.92-3.31,15.72
					c1.16,5.93,6.58,12.32,5.16,17.82c-0.33,1.29-11.89,2.24-12.18,3.47c-1.19,4.85-2.07,9.06-2.38,12
					c-1.06,9.9-4.97,18.87-4.97,18.87s-6.03-16.29-14.03-19.06c-4.47-1.55-15.62,0.74-15.62,0.74s-0.27-2.84,4.5-10.76
					c4.77-7.92,6.29-15.03,6.29-20.48c0-5.45-2.11-7.43-4.76-21.78c-2.65-14.35-16.89-52.85-18.47-63.74
					c-1.59-10.89-5.42-42.55-9.66-56.41c-4.24-13.87-6.87-45.22-8.45-62.05c-1.59-16.84,3.22-29.71,3.22-29.71L530.93,284z"/>
				<g id="Group-259" transform="translate(421.000000, 284.000000)">
					<g id="Clip-258">
					</g>
					<defs>
						<filter id="Adobe_OpacityMaskFilter_25_" filterUnits="userSpaceOnUse" x="11.5" y="-8.26" width="93.16" height="257.78">
							<feColorMatrix  type="matrix" values="1 0 0 0 0  0 1 0 0 0  0 0 1 0 0  0 0 0 1 0"/>
						</filter>
					</defs>
					<mask maskUnits="userSpaceOnUse" x="11.5" y="-8.26" width="93.16" height="257.78" id="mask-50_1_">
						<g class="st68">
							<path id="path-49_1_" class="st4" d="M8.74,0.87c0,0-4.79,12.85-3.2,29.68l0,0c1.57,16.82,4.19,48.14,8.41,61.99l0,0
								c4.22,13.84,8.02,45.47,9.61,56.35l0,0c1.58,10.87,15.74,49.33,18.38,63.67l0,0c2.64,14.34,4.74,16.32,4.74,21.76l0,0
								c0,5.44-1.51,12.54-6.26,20.45l0,0c-4.74,7.91-4.47,10.75-4.47,10.75l0,0c0,0,11.09-2.28,15.54-0.74l0,0
								c7.96,2.77,13.96,19.04,13.96,19.04l0,0c0,0,3.89-8.96,4.95-18.85l0,0c0.31-2.94,1.19-7.14,2.37-11.99l0,0
								c0.29-1.22,11.79-2.17,12.12-3.47l0,0c1.41-5.49-3.98-11.88-5.13-17.8l0,0c-1.13-5.79,1.98-11.1,3.29-15.7l0,0
								c4.22-14.84,6.34-58.22,5.81-69.1l0,0c-0.52-10.88,2.11-21.26,3.16-26.21l0,0c1.06-4.95,12.98-57.08,15.61-74.38l0,0
								c2.63-17.31,2-46.21,2-46.21l0,0"/>
						</g>
					</mask>
					<path id="Fill-257" class="st69" d="M58-8.26l43.86,4.82c0,0,3.17,7.42,2.77,14.47c-0.4,7.05-2.89,15.76-6.32,20.04
						C79.04,55.04,57.2,77.79,55.63,88.56c-1.58,10.76-4.44,28.91-3.26,38.92c1.19,10.01,0.26,21.12,6.18,27.05
						c5.93,5.93,12.59,9.73,11.8,20.85c-0.79,11.13-4.85,36.31-6.43,42.62c-1.58,6.3-9.88,19.28-13.83,27.08
						c-3.95,7.79-9.09,2.96-9.09,2.96l-17.39-65.65c0,0-8.21-85.56-10.98-103.37c-2.76-17.8,0.27-65.32,1.06-66.43
						c0.8-1.11,3.51-18.62,6.28-18.62C22.74-6.03,58-8.26,58-8.26"/>
				</g>
				<g id="Group-266" transform="translate(371.000000, 105.000000)">
					<path id="Fill-260" class="st14" d="M204.46,192.24c0.49,1.38,8,14.26,8.52,19.78c0.49,5.52,0.99,11.05-5.02,17.94
						c-6.01,6.9-13.02,13.8-16.03,14.72c-3,0.92-2.58-3.08-2-5.97c0.75-3.77,2.41-12.97,2.41-12.97s-4.3,8.24-8.68,5.83
						c-1.67-0.93,2.01-21.92,3.01-26.83c0.74-3.64-2.25-6.51-0.75-6.51C187.43,198.22,204.46,192.24,204.46,192.24"/>
					<path id="Fill-262" class="st14" d="M15.03,174.13c0,0-6.8,14.49-8.15,18.32c-1.36,3.84-2.27,10.24-0.91,14.5
						c1.35,4.27,4.98,9.81,7.25,11.09c2.26,1.28,13.14,4.69,13.14,4.69s1.36-2.99-1.36-5.54c-2.72-2.56-6.8-6.81-7.71-9.8
						c-0.91-2.99,0-9.38,0-9.38s1.58,14.56,5.21,14.56s2.95-14.14,2.5-17.12c-0.45-2.99,4.08-7.25,4.99-11.08
						c0.91-3.84,1.36-11.94,1.36-11.94L15.03,174.13z"/>
					<path id="Fill-264" class="st15" d="M213.72,197.08c0,0-22.34,9.51-28.15,8.52c-4.56-8.39-0.99-26.87-3.64-37.8
						c-2.64-10.93-8.17-41.66-9.23-52.1c-1.06-10.44-6.83-10.57-6.83-10.57s-5.87,27.13-4.82,33.6c1.06,6.46-1.06,7.7,0,14.16
						c1.06,6.46,0.6,29.45,0.6,29.45s-26.23-2.2-41.56-1.7c-15.33,0.5-63.24,0.57-63.24,0.57s2.1-11.32,1.41-29.26
						c-0.6-15.3-2.76-56.16-3.81-63.61c-6.63,10.19-5.64,15.82-10.4,28.74c-4.76,12.92-9.47,36.98-9.47,64.31
						c0,7.23-5.26-4.15-12.4-4.53c-7.47-0.4-12.48,4.82-12.48,4.82s5.99-41.36,8.64-54.28c2.64-12.92,8.74-30.54,10.85-43.95
						c2.11-13.42,7.18-36.19,11.41-45.14c4.23-8.94,1.01-24.73,19.28-29.07c8.1-1.93,24.28-6.52,24.28-6.52s15.86-3.97,25.9-1.99
						c10.04,1.99,29.6,3.98,29.6,3.98s24.71,4.83,32.64,8.31c7.93,3.48,14.17,19.88,16.86,27.94c7.83,23.41,16.34,67.33,16.86,77.77
						C206.55,129.15,213.72,197.08,213.72,197.08"/>
				</g>
				<g id="Group-271" transform="translate(376.000000, 107.000000)">
					<g id="Clip-268">
					</g>
					<defs>
						<filter id="Adobe_OpacityMaskFilter_26_" filterUnits="userSpaceOnUse" x="39.63" y="173.41" width="132.81" height="14.28">
							<feColorMatrix  type="matrix" values="1 0 0 0 0  0 1 0 0 0  0 0 1 0 0  0 0 0 1 0"/>
						</filter>
					</defs>
					<mask maskUnits="userSpaceOnUse" x="39.63" y="173.41" width="132.81" height="14.28" id="mask-52_1_">
						<g class="st70">
							<path id="path-51_1_" class="st4" d="M79.37,2.7c0,0-16.15,4.58-24.24,6.49l0,0C36.89,13.52,40.1,29.23,35.88,38.13l0,0
								c-4.22,8.91-9.28,31.58-11.39,44.93l0,0c-2.11,13.36-8.2,30.89-10.83,43.75l0,0c-2.64,12.86-8.62,54.03-8.62,54.03l0,0
								c0,0,5-5.2,12.46-4.8l0,0c7.13,0.38,12.38,11.71,12.38,4.51l0,0c0-27.21,4.7-51.16,9.45-64.02l0,0
								c4.75-12.86,3.77-18.47,10.38-28.61l0,0c1.05,7.42,3.21,48.09,3.81,63.32l0,0c0.7,17.86-1.4,29.12-1.4,29.12l0,0
								c0,0,47.83-0.07,63.13-0.56l0,0c15.3-0.5,41.49,1.69,41.49,1.69l0,0c0,0,0.46-22.88-0.6-29.31l0,0
								c-1.06-6.43,1.06-7.66,0-14.09l0,0c-1.05-6.44,4.81-33.44,4.81-33.44l0,0c0,0,5.76,0.13,6.81,10.52l0,0
								c1.06,10.39,6.59,40.98,9.22,51.86l0,0c2.64,10.88-0.92,29.27,3.63,37.63l0,0c5.8,0.99,28.1-8.48,28.1-8.48l0,0
								c0,0-7.15-67.62-7.68-78.01l0,0c-0.52-10.39-9.02-54.11-16.84-77.41l0,0c-2.69-8.02-8.92-24.34-16.84-27.81l0,0
								c-7.92-3.46-32.59-8.27-32.59-8.27l0,0c0,0-19.52-1.98-29.55-3.96l0,0c-2.01-0.4-4.24-0.55-6.54-0.55l0,0
								C89.5,0.17,79.37,2.7,79.37,2.7L79.37,2.7z"/>
						</g>
					</mask>
					<polygon id="Fill-267" class="st71" points="39.63,187.69 172.44,187.69 172.44,173.41 39.63,173.41 					"/>
					<defs>
						<filter id="Adobe_OpacityMaskFilter_27_" filterUnits="userSpaceOnUse" x="61.52" y="-43.79" width="76.29" height="73.28">
							<feColorMatrix  type="matrix" values="1 0 0 0 0  0 1 0 0 0  0 0 1 0 0  0 0 0 1 0"/>
						</filter>
					</defs>
					<mask maskUnits="userSpaceOnUse" x="61.52" y="-43.79" width="76.29" height="73.28" id="mask-52_2_">
						<g class="st72">
							<path id="path-51_2_" class="st4" d="M79.37,2.7c0,0-16.15,4.58-24.24,6.49l0,0C36.89,13.52,40.1,29.23,35.88,38.13l0,0
								c-4.22,8.91-9.28,31.58-11.39,44.93l0,0c-2.11,13.36-8.2,30.89-10.83,43.75l0,0c-2.64,12.86-8.62,54.03-8.62,54.03l0,0
								c0,0,5-5.2,12.46-4.8l0,0c7.13,0.38,12.38,11.71,12.38,4.51l0,0c0-27.21,4.7-51.16,9.45-64.02l0,0
								c4.75-12.86,3.77-18.47,10.38-28.61l0,0c1.05,7.42,3.21,48.09,3.81,63.32l0,0c0.7,17.86-1.4,29.12-1.4,29.12l0,0
								c0,0,47.83-0.07,63.13-0.56l0,0c15.3-0.5,41.49,1.69,41.49,1.69l0,0c0,0,0.46-22.88-0.6-29.31l0,0
								c-1.06-6.43,1.06-7.66,0-14.09l0,0c-1.05-6.44,4.81-33.44,4.81-33.44l0,0c0,0,5.76,0.13,6.81,10.52l0,0
								c1.06,10.39,6.59,40.98,9.22,51.86l0,0c2.64,10.88-0.92,29.27,3.63,37.63l0,0c5.8,0.99,28.1-8.48,28.1-8.48l0,0
								c0,0-7.15-67.62-7.68-78.01l0,0c-0.52-10.39-9.02-54.11-16.84-77.41l0,0c-2.69-8.02-8.92-24.34-16.84-27.81l0,0
								c-7.92-3.46-32.59-8.27-32.59-8.27l0,0c0,0-19.52-1.98-29.55-3.96l0,0c-2.01-0.4-4.24-0.55-6.54-0.55l0,0
								C89.5,0.17,79.37,2.7,79.37,2.7L79.37,2.7z"/>
						</g>
					</mask>
					<path id="Fill-269" class="st73" d="M137.8-7.15c0,20.23-17.08,36.64-38.14,36.64c-21.07,0-38.14-16.4-38.14-36.64
						s17.08-36.64,38.14-36.64C120.73-43.79,137.8-27.38,137.8-7.15"/>
					<defs>
						<filter id="Adobe_OpacityMaskFilter_28_" filterUnits="userSpaceOnUse" x="53.89" y="10.7" width="46.44" height="175.87">
							<feColorMatrix  type="matrix" values="1 0 0 0 0  0 1 0 0 0  0 0 1 0 0  0 0 0 1 0"/>
						</filter>
					</defs>
					<mask maskUnits="userSpaceOnUse" x="53.89" y="10.7" width="46.44" height="175.87" id="mask-52_3_">
						<g class="st74">
							<path id="path-51_3_" class="st4" d="M79.37,2.7c0,0-16.15,4.58-24.24,6.49l0,0C36.89,13.52,40.1,29.23,35.88,38.13l0,0
								c-4.22,8.91-9.28,31.58-11.39,44.93l0,0c-2.11,13.36-8.2,30.89-10.83,43.75l0,0c-2.64,12.86-8.62,54.03-8.62,54.03l0,0
								c0,0,5-5.2,12.46-4.8l0,0c7.13,0.38,12.38,11.71,12.38,4.51l0,0c0-27.21,4.7-51.16,9.45-64.02l0,0
								c4.75-12.86,3.77-18.47,10.38-28.61l0,0c1.05,7.42,3.21,48.09,3.81,63.32l0,0c0.7,17.86-1.4,29.12-1.4,29.12l0,0
								c0,0,47.83-0.07,63.13-0.56l0,0c15.3-0.5,41.49,1.69,41.49,1.69l0,0c0,0,0.46-22.88-0.6-29.31l0,0
								c-1.06-6.43,1.06-7.66,0-14.09l0,0c-1.05-6.44,4.81-33.44,4.81-33.44l0,0c0,0,5.76,0.13,6.81,10.52l0,0
								c1.06,10.39,6.59,40.98,9.22,51.86l0,0c2.64,10.88-0.92,29.27,3.63,37.63l0,0c5.8,0.99,28.1-8.48,28.1-8.48l0,0
								c0,0-7.15-67.62-7.68-78.01l0,0c-0.52-10.39-9.02-54.11-16.84-77.41l0,0c-2.69-8.02-8.92-24.34-16.84-27.81l0,0
								c-7.92-3.46-32.59-8.27-32.59-8.27l0,0c0,0-19.52-1.98-29.55-3.96l0,0c-2.01-0.4-4.24-0.55-6.54-0.55l0,0
								C89.5,0.17,79.37,2.7,79.37,2.7L79.37,2.7z"/>
						</g>
					</mask>
					<path id="Fill-270" class="st75" d="M83.9,10.7c0,0-15.38,69.9,2.06,72.71c9.9,1.6-1.35,4.36-3.38,13.53
						c-3.37,15.28-0.26,39.06,0.56,41.52c3,9.02-6.75,21.04,6.75,21.04c13.51,0,15.76,6.76-4.5,9.77
						c-20.26,3.01-31.51,17.29-31.51,17.29l7.13-170.23L83.9,10.7z"/>
				</g>
				<path id="Fill-272" class="st14" d="M508.36,57.49l-5.27,14.4c0,0-3,15.18,0.6,25.02c2.81,7.66,9.31,13.31,9.31,13.31
					s-22.28,19.7-39.68,17.62c-17.38-2.08-21.43-18.07-21.43-18.07l10.93-13.14c0,0,2.15-6.33,1.56-9.66
					c-0.39-2.15-4.09-0.38-6.16-2.86c-1.15-1.37-2.15-5.96-3.21-9.13c-1.92-5.74-3.81-14.7-2-20.62c0.96-3.13-2.04-10.09-2-12.37
					c0.23-12.46,1.42-22.4,11.77-25.33c7.37-2.09,21.06-2.53,29.48,0.52c10,3.62,16.31,16.29,18.1,22.4
					C512.13,45.71,508.36,57.49,508.36,57.49"/>
				<g id="Group-276" transform="translate(446.000000, 14.000000)">
					<g id="Clip-275">
					</g>
					<defs>
						<filter id="Adobe_OpacityMaskFilter_29_" filterUnits="userSpaceOnUse" x="-8.18" y="2.27" width="75.24" height="143.9">
							<feColorMatrix  type="matrix" values="1 0 0 0 0  0 1 0 0 0  0 0 1 0 0  0 0 0 1 0"/>
						</filter>
					</defs>
					<mask maskUnits="userSpaceOnUse" x="-8.18" y="2.27" width="75.24" height="143.9" id="mask-54_1_">
						<g class="st76">
							<path id="path-53_1_" class="st4" d="M17.08,1.91C6.62,4.85,5.41,14.84,5.18,27.38l0,0c-0.04,2.29,2.99,9.29,2.03,12.44l0,0
								c-1.83,5.95,0.09,14.96,2.02,20.74l0,0c1.07,3.19,2.09,7.8,3.25,9.19l0,0c2.09,2.49,5.83,0.71,6.22,2.87l0,0
								c0.6,3.35-1.58,9.71-1.58,9.71l0,0L6.08,95.54c0,0,4.09,16.08,21.66,18.17l0,0c17.58,2.09,40.11-17.72,40.11-17.72l0,0
								c0,0-6.58-5.68-9.41-13.38l0,0c-3.64-9.9-0.61-25.16-0.61-25.16l0,0l5.33-14.48c0,0,3.81-11.85,2-18.01l0,0
								c-1.81-6.15-8.19-18.89-18.29-22.53l0,0c-4.29-1.54-9.92-2.2-15.41-2.2l0,0C26.04,0.23,20.77,0.86,17.08,1.91"/>
						</g>
					</mask>
					<path id="Fill-274" class="st77" d="M34.8,2.27c0,0,10.06,1.82,13.07,11.33c3.01,9.51-3.54,18.24-3.54,18.24l-3.76,9.53
						c0,0,2.08,3.47,1.11,10.14c-1.35,9.37,3.32,17-6.6,19.51l7.73,2.36c3.31,3.64,12.22,11.72,12.51,15.46
						c0.9,11.75,4.24,15.1,8.44,17.9l3.31,21.4l-40.55,18.04l-34.7-18.45l5.85-36.93c0,0,9.47-5.45,10.36-6.71
						c0.9-1.26,2.26-7.55,2.26-7.55S-2.78,58.48-1.88,55.55c0.9-2.94,2.25-39.02,2.7-40.7C1.28,13.17,2.63,2.69,11.64,3.95
						C20.65,5.21,34.8,2.27,34.8,2.27"/>
				</g>
				<g id="Group-283" transform="translate(441.000000, 4.000000)">
					<path id="Fill-277" class="st8" d="M21.63,0.07c0,0-15.91,7.6-16.43,16.94C4.54,28.65,9.52,34.1,26.02,33.58
						c6.54-0.21,20.46-5.11,22.31-5.1c1.85,0.02,6.32,3.37,5.81,8.72c-0.17,1.8,1.74,21.14,1.74,21.14l3.79,0.75l4.15-9.79
						c0,0,10.89-3.8,1.57,14.63c6.78-10.2,8.6-32.86,8.46-38.97C73.7,18.84,62.11,1.49,54.28,2.89C42.03,5.08,31.29,2.03,28.2,3.35
						C12,10.27,21.63,0.07,21.63,0.07"/>
					<path id="Fill-279" class="st14" d="M70.51,58.23c-1.14,4.25-3.84,7.29-6.02,6.77c-2.18-0.51-3.03-4.38-1.89-8.63
						c1.14-4.25,3.84-7.29,6.02-6.77C70.81,50.11,71.65,53.98,70.51,58.23"/>
					<path id="Fill-281" class="st8" d="M62.41,90.53c0.9,10.15,0.8,67.92-4.42,102.11c-4.11,26.88-8.98,45.84-8.98,45.84
						l10.53,49.19c1.86,8.68,9.52,14.9,18.41,14.94l26.66,0.13l-8.44-95.44l7.23,22.55l10.45,71.4l32.95-11.27l-8.84-85.67
						l-27.33-90.93l-37.37-12.4L62.41,90.53z"/>
				</g>
				<g id="Group-290" transform="translate(484.000000, 93.000000)">
					<g id="Group-286">
						<g id="Clip-285">
						</g>
						<defs>
							<filter id="Adobe_OpacityMaskFilter_30_" filterUnits="userSpaceOnUse" x="0.29" y="16.08" width="98.57" height="205.14">
								<feColorMatrix  type="matrix" values="1 0 0 0 0  0 1 0 0 0  0 0 1 0 0  0 0 0 1 0"/>
							</filter>
						</defs>
						<mask maskUnits="userSpaceOnUse" x="0.29" y="16.08" width="98.57" height="205.14" id="mask-56_1_">
							<g class="st78">
								<path id="path-55_1_" class="st4" d="M14.18,102.46c-4.14,26.92-9.06,45.92-9.06,45.92l0,0l10.63,49.27
									c1.88,8.7,9.6,14.93,18.57,14.97l0,0l26.9,0.13l-8.52-95.61l7.3,22.58l10.54,71.52l33.25-11.29l-8.92-85.82L67.3,23.03
									L29.59,10.61L18.64,0.16C19.55,10.33,19.45,68.2,14.18,102.46L14.18,102.46z"/>
							</g>
						</mask>
						<path id="Fill-284" class="st79" d="M0.29,173.22c0.46-17.5,11.58-19.76,22.53-7.34c10.95,12.42,25.02,27.48,10.95-16
							S38.3,76.67,46.28,45.62S58.42,8.35,59.19,25.29c0.77,16.94,8.8,24.28,11.05,35.57c2.25,11.29-1.74,39.81,9.08,45.59
							s27.13,3.91,15.56,7.67c-11.57,3.76-14.22,7.72-9.48,9.41c4.74,1.69,4.74,2.82-2.66,10.16c-7.4,7.34-14.8,87.52-14.8,87.52
							H15.7L0.29,173.22z"/>
					</g>
					<g id="Group-289">
						<g id="Clip-288">
						</g>
						<defs>
							<filter id="Adobe_OpacityMaskFilter_31_" filterUnits="userSpaceOnUse" x="7.07" y="3.3" width="31.5" height="149.81">
								<feColorMatrix  type="matrix" values="1 0 0 0 0  0 1 0 0 0  0 0 1 0 0  0 0 0 1 0"/>
							</filter>
						</defs>
						<mask maskUnits="userSpaceOnUse" x="7.07" y="3.3" width="31.5" height="149.81" id="mask-58_1_">
							<g class="st80">
								<path id="path-57_1_" class="st4" d="M14.18,102.46c-4.14,26.92-9.06,45.92-9.06,45.92l0,0l10.63,49.27
									c1.88,8.7,9.6,14.93,18.57,14.97l0,0l26.9,0.13l-8.52-95.61l7.3,22.58l10.54,71.52l33.25-11.29l-8.92-85.82L67.3,23.03
									L29.59,10.61L18.64,0.16C19.55,10.33,19.45,68.2,14.18,102.46L14.18,102.46z"/>
							</g>
						</mask>
						<path id="Fill-287" class="st81" d="M33.64,16.1l4.18,9.03l-6.83,4.14l7.59,4.52L7.07,153.11c0,0,1.9-59.86,2.47-84.13
							C10.1,44.72,19.97,3.3,19.97,3.3L33.64,16.1z"/>
					</g>
				</g>
				<g id="Group-295" transform="translate(373.000000, 92.000000)">
					<path id="Fill-291" class="st8" d="M142.85,13.01l4.14,9.02l-6.77,4.13l7.52,4.51l-31.22,119.14c0,0,1.88-59.77,2.44-84
						c0.56-24.23,10.34-65.58,10.34-65.58L142.85,13.01z"/>
					<path id="Fill-293" class="st8" d="M77.48,11.41L40.1,25.79c0,0-19.69,67.46-20.29,72.54c-0.6,5.07-4.4,17.69-3.8,19.38
						c0.6,1.69-10.87,70.45-10.87,70.45s9.3-9.21,17.73-4.51c8.27,4.62,11.81,9.58,11.81,9.58l12.66-57.69l4.82-33.64l2.41,35.52
						l-10.25,72.72l2.71,2.33c5.63,4.84,14.38,1.99,16.07-5.24l13.17-56.29c0,0-11.55-123.65,13.26-146.01
						C83.81,9.72,77.48,11.41,77.48,11.41"/>
				</g>
				<g id="Group-302" transform="translate(373.000000, 97.000000)">
					<g id="Group-298">
						<g id="Clip-297">
						</g>
						<defs>
							<filter id="Adobe_OpacityMaskFilter_32_" filterUnits="userSpaceOnUse" x="19" y="28.79" width="64.24" height="195.26">
								<feColorMatrix  type="matrix" values="1 0 0 0 0  0 1 0 0 0  0 0 1 0 0  0 0 0 1 0"/>
							</filter>
						</defs>
						<mask maskUnits="userSpaceOnUse" x="19" y="28.79" width="64.24" height="195.26" id="mask-60_1_">
							<g class="st82">
								<path id="path-59_1_" class="st4" d="M76.79,6.78L39.77,21.2c0,0-19.51,67.67-20.1,72.76l0,0
									c-0.6,5.09-4.36,17.74-3.77,19.44l0,0c0.6,1.7-10.76,70.67-10.76,70.67l0,0c0,0,9.22-9.24,17.56-4.52l0,0
									c8.2,4.63,11.7,9.61,11.7,9.61l0,0l12.54-57.87l4.78-33.74l2.39,35.63l-10.15,72.95l2.68,2.34
									c5.57,4.86,14.25,1.99,15.92-5.25l0,0l13.04-56.46c0,0-11.44-124.03,13.14-146.47l0,0C83.06,5.08,76.79,6.78,76.79,6.78
									L76.79,6.78z"/>
							</g>
						</mask>
						<path id="Fill-296" class="st83" d="M70.39,69.27c-10.62-20.36-26.08-54.29-28.32-34.5c-2.24,19.79-10.8,32.8-13.04,44.11
							s-7.82,18.1-3.91,26.01c3.91,7.92,5.59,12.44,0.56,11.88c-5.03-0.57-10.62-0.57-2.79,4.52c7.82,5.09,5.59,14.7,6.71,24.32
							c1.12,9.61,0,28.28,0.56,39.59c0.56,11.31-1.12,18.66,4.47,26.01c5.59,7.35,7.27-49.76,7.27-49.76l9.87-53.53
							c0,0,3.73,12.82,5.96,26.39c2.24,13.57,2.05,11.31,1.49,23.19c-0.56,11.88-5.75,10.56-3.71,30.73
							c2.04,20.17-0.76,50.14,7.07,28.09S83.24,92.45,83.24,92.45L70.39,69.27z"/>
					</g>
					<g id="Group-301">
						<g id="Clip-300">
						</g>
						<defs>
							<filter id="Adobe_OpacityMaskFilter_33_" filterUnits="userSpaceOnUse" x="59.96" y="7.63" width="25.33" height="146.65">
								<feColorMatrix  type="matrix" values="1 0 0 0 0  0 1 0 0 0  0 0 1 0 0  0 0 0 1 0"/>
							</filter>
						</defs>
						<mask maskUnits="userSpaceOnUse" x="59.96" y="7.63" width="25.33" height="146.65" id="mask-62_1_">
							<g class="st84">
								<path id="path-61_1_" class="st4" d="M76.79,6.78L39.77,21.2c0,0-19.51,67.67-20.1,72.76l0,0
									c-0.6,5.09-4.36,17.74-3.77,19.44l0,0c0.6,1.7-10.76,70.67-10.76,70.67l0,0c0,0,9.22-9.24,17.56-4.52l0,0
									c8.2,4.63,11.7,9.61,11.7,9.61l0,0l12.54-57.87l4.78-33.74l2.39,35.63l-10.15,72.95l2.68,2.34
									c5.57,4.86,14.25,1.99,15.92-5.25l0,0l13.04-56.46c0,0-11.44-124.03,13.14-146.47l0,0C83.06,5.08,76.79,6.78,76.79,6.78
									L76.79,6.78z"/>
							</g>
						</mask>
						<path id="Fill-299" class="st85" d="M71.88,12.81l-8.94,9.9l5.22,3.39l-8.2,6.79l12.29,121.4c0,0,2.03-88.21,3.73-108.2
							c1.7-19.99,9.31-38.45,9.31-38.45L71.88,12.81z"/>
					</g>
				</g>
				<g id="Group-307" transform="translate(431.000000, 56.000000)">
					<path id="Fill-303" class="st8" d="M17.43,46.57l-9.1,9.88l5.31,3.39L5.29,66.6l12.52,121.18c0,0,2.07-88.05,3.79-108.01
						c1.73-19.96,9.48-38.39,9.48-38.39L17.43,46.57z"/>
					<path id="Fill-305" class="st31" d="M19.97,4.33c0,0,6.78-4.3,11.22-4.3s27.59,3.88,27.59,3.88v15.54
						c0,0-15.8,13.9-25.27,13.97c-6.62,0.05-10.68-7.56-11.46-10.92C21.27,19.14,19.97,4.33,19.97,4.33"/>
				</g>
				<g id="Group-310" transform="translate(446.000000, 55.000000)">
					<g id="Clip-309">
					</g>
					<defs>
						<filter id="Adobe_OpacityMaskFilter_34_" filterUnits="userSpaceOnUse" x="-0.19" y="-5.94" width="18.79" height="42.86">
							<feColorMatrix  type="matrix" values="1 0 0 0 0  0 1 0 0 0  0 0 1 0 0  0 0 0 1 0"/>
						</filter>
					</defs>
					<mask maskUnits="userSpaceOnUse" x="-0.19" y="-5.94" width="18.79" height="42.86" id="mask-64_1_">
						<g class="st86">
							<path id="path-63_1_" class="st4" d="M5.21,4.38c0,0,1.29,14.98,2.06,18.38l0,0c0.78,3.4,4.81,11.1,11.39,11.05l0,0
								c9.41-0.07,25.12-14.13,25.12-14.13l0,0V3.95c0,0-23-3.92-27.42-3.92l0,0C11.95,0.03,5.21,4.38,5.21,4.38L5.21,4.38z"/>
						</g>
					</mask>
					<path id="Fill-308" class="st87" d="M16.26-5.94c0,0-1.07,10.98-1.41,14.46c-0.35,3.49-0.8,7.62,1.41,9.19
						c2.21,1.57,2.9,4.4,1.87,11.54c-1.04,7.14-8.51,7.66-8.51,7.66L0.7,13.23l-0.89-16.9L16.26-5.94z"/>
				</g>
				<g id="Group-315" transform="translate(483.000000, 53.000000)">
					<path id="Stroke-311" class="st49" d="M5.04,9.59c0,0,13.32-9.22,15.92-9.5"/>
					<path id="Stroke-313" class="st49" d="M5.04,22.71c0,0,11.32-3.33,15.92-6.29"/>
				</g>
			</g>
		</g>
	</g>
</g>
</svg>
