<?xml version="1.0" encoding="UTF-8"?>
<svg width="532px" height="766px" viewBox="0 0 532 766" version="1.1" xmlns="http://www.w3.org/2000/svg" xmlns:xlink="http://www.w3.org/1999/xlink">
    <!-- Generator: Sketch 59.1 (86144) - https://sketch.com -->
    <title>Group 19</title>
    <desc>Created with Sketch.</desc>
    <defs>
        <polygon id="path-1" points="0 0.885724579 592.98757 0.885724579 592.98757 731.994559 0 731.994559"></polygon>
        <polygon id="path-3" points="0.175002779 0.442523962 480.938069 0.442523962 480.938069 809.649345 0.175002779 809.649345"></polygon>
    </defs>
    <g id="Page-1" stroke="none" stroke-width="1" fill="none" fill-rule="evenodd">
        <g id="Extra-large:-Desktops---12-col" transform="translate(-879.000000, -258.000000)">
            <g id="Group-19" transform="translate(855.000000, 258.000000)">
                <g id="Group-3" transform="translate(0.000000, 465.000000)">
                    <mask id="mask-2" fill="white">
                        <use xlink:href="#path-1"></use>
                    </mask>
                    <g id="Clip-2"></g>
                    <path d="M400.609566,41.4788772 C381.77599,2.22813027 311.825295,2.7178577 300.47802,2.7178577 C300.47802,2.7178577 255.016413,-12.554383 210.624278,45.0883497 C196.068588,63.970063 116.528902,223.004513 69.925317,297.642601 C60.4632122,312.769737 37.6961555,370.448746 36.91671,489.543203 C36.1372646,608.655798 -0.00725065502,731.994559 -0.00725065502,731.994559 L592.98757,731.994559 C592.98757,731.994559 488.777531,225.017836 400.609566,41.4788772" id="Fill-1" fill="#E61933" mask="url(#mask-2)"></path>
                </g>
                <path d="M115.321107,62 L87,97.6605293 L157.512666,270.948696 L293.570019,351 C293.570019,351 370.718745,322.951379 376.520764,308.91805 C382.340915,294.920796 385.658945,186.784796 383.156824,175.222631 C380.672835,163.678505 282.78189,68.7641368 278.62982,66.2749345 C274.47775,63.8218075 115.321107,62 115.321107,62" id="Fill-4" fill="#49331D"></path>
                <path d="M109.737382,89 C109.737382,89 91.6672172,100.821947 82.3143178,129.452092 C72.9795793,158.082238 76.7207391,187.310733 69.2384196,202.269485 C61.737939,217.173842 52.4213616,228.995789 52.4213616,228.995789 C52.4213616,228.995789 33.6974018,365.274555 100.384483,385.799777 L167.071564,406.324998 L172.683303,406.324998 L210.621569,511 L272.732086,480.538541 L246.525806,301.178568 C246.525806,301.178568 268.246326,304.931855 280.30521,277.951706 C292.345933,250.989688 292.345933,230.246885 277.381294,216.55736 C262.434816,202.867835 244.982124,209.902982 237.917507,215.723296 C230.852889,221.525479 227.947134,231.497981 222.553326,239.367191 C217.141357,247.236401 212.746402,261.415485 212.746402,261.415485 C212.746402,261.415485 205.100634,224.861734 190.553697,201.199708 C176.006761,177.573945 123.666846,171.753631 109.737382,89" id="Fill-6" fill="#EEC295"></path>
                <g id="Group-10" transform="translate(75.000000, 0.000000)">
                    <mask id="mask-4" fill="white">
                        <use xlink:href="#path-3"></use>
                    </mask>
                    <g id="Clip-9"></g>
                    <path d="M5.71662366,135.625831 C5.71662366,135.625831 -7.471,119.702732 6.84129032,83.0379393 C21.1717204,46.3550319 86.5293656,5.95854633 148.150215,0.958801917 C209.789204,-3.98659744 240.898935,27.09877 264.571355,33.3122204 C288.207495,39.5075559 340.504495,68.1111661 354.200032,162.599089 C367.89557,257.105128 362.943409,331.304233 407.258903,372.82385 C459.120548,421.426438 474.339828,527.471741 480.561774,598.989824 C486.78372,670.489792 413.952484,797.222444 402.143484,809.649345 C402.143484,809.649345 398.896462,674.982316 351.479065,613.771677 C295.064333,540.931198 194.225269,527.471741 171.496118,455.392093 C148.785108,383.258099 171.496118,301.215192 171.496118,301.215192 C171.496118,301.215192 171.296581,310.49008 192.719667,295.762572 C214.124613,281.035064 248.372527,215.132636 248.372527,215.132636 L171.496118,139.611134 L50.2860753,118.978131 L34.8491183,89.2332748 C13.698129,105.029569 5.71662366,135.625831 5.71662366,135.625831" id="Fill-8" fill="#49331D" mask="url(#mask-4)"></path>
                </g>
                <path d="M176.286908,242 C176.286908,242 74.3690808,317.046172 184,338.869526 L154.505571,364 L98.1058496,347.936848 L80,261.71552 L176.286908,242 Z" id="Fill-11" fill="#BA9268"></path>
                <path d="M51.5073168,214 L117.690877,247.720814 L237.374482,214.710104 L230.241143,223.722956 L116.744617,260.539093 C116.744617,260.539093 107.700562,297.391646 105.189335,308.990004 C102.696306,320.533738 113.63288,328.654409 117.690877,331.167083 L121.730676,333.643342 L178.26967,340.507676 L246,300.523385 L244.143876,316.455195 L185.439404,352.087826 C185.439404,352.087826 169.826125,408.003927 161.400778,418 L87.0830274,405.199929 C87.0830274,405.199929 38.6964215,350.503749 34.9477788,342.383077 C31.1991361,334.262406 24.9574641,283.662978 24.0294021,273.648697 C23.0831428,263.670832 45.2474475,228.038201 51.5073168,214" id="Fill-13" fill="#FFFFFF"></path>
                <path d="M173.612733,340.205518 L173.612733,340.205518 L88,405.25186 L161.888927,418 C170.247567,408.044482 185.788847,352.355239 185.788847,352.355239 L242.218711,317.284253 L246,301 L178.642391,340.822071 L173.612733,340.205518 Z" id="Fill-15" fill="#E2E2E2"></path>
                <path d="M36,342.371508 C36.9007798,344.36257 40.3237429,349.045251 45.0077978,355 L103,322 L36,342.371508 Z" id="Fill-17" fill="#E2E2E2"></path>
            </g>
        </g>
    </g>
</svg>