<?xml version="1.0" encoding="UTF-8"?>
<svg width="297px" height="302px" viewBox="0 0 297 302" version="1.1" xmlns="http://www.w3.org/2000/svg" xmlns:xlink="http://www.w3.org/1999/xlink">
    <!-- Generator: Sketch 59.1 (86144) - https://sketch.com -->
    <title>Group 18</title>
    <desc>Created with Sketch.</desc>
    <defs>
        <polygon id="path-1" points="0 0.025837037 344.901659 0.025837037 344.901659 218 0 218"></polygon>
    </defs>
    <g id="Page-1" stroke="none" stroke-width="1" fill="none" fill-rule="evenodd">
        <g id="Extra-large:-Desktops---12-col" transform="translate(-817.000000, -722.000000)">
            <g id="Group-18" transform="translate(793.000000, 722.000000)">
                <path d="M266.840034,39.0850384 C266.840034,39.0850384 281.742923,71.3960768 286.322874,84.951346 C286.322874,84.951346 279.416853,96.6544931 282.946062,103.755642 C286.45923,110.86488 290.862721,116.477861 290.862721,116.477861 C290.862721,116.477861 299.669702,181.302135 268.267759,191.072281 L236.857796,200.850515 L234.21891,200.850515 L213.53293,261 L135,224.66929 L149.702366,168.83064 C149.702366,168.83064 159.351545,154.029839 153.672726,141.19439 C148.001928,128.375117 139.114737,95.1905887 146.157114,88.6717659 C153.207512,82.1610311 146.654412,109.465678 149.983098,112.23173 C153.311784,114.989693 150.841338,101.90352 153.383973,105.648204 C155.934628,109.400975 163.033152,89.9172978 163.033152,89.9172978 C163.033152,89.9172978 169.096975,54.1365635 175.954871,42.8944249 C182.796725,31.6441986 214.816279,22.4563789 266.840034,39.0850384" id="Fill-1" fill="#E2B083"></path>
                <path d="M233.632,123 C233.632,123 281.656,158.669879 230,169.061444 L243.896,181 L270.472,173.35414 L279,132.379137 L233.632,123 Z" id="Fill-3" fill="#BA9268"></path>
                <path d="M289,30.6551017 C289,30.6551017 269.583495,46.7440222 264.18824,48.0337152 C244.274699,52.7975189 239.881534,49.3072871 225.154813,52.7975189 C214.083718,55.4172078 207.045034,64.9367545 207.045034,64.9367545 C207.942907,68.3786227 206.628165,80.5581612 207.902824,93.3906068 C209.153433,105.997356 210.171557,115.05745 210.171557,115.05745 L196.438909,112.437761 C196.438909,112.437761 193.408587,102.72476 188.285901,98.3801067 C179.691973,91.1094623 165.782958,94.3095131 165.077486,110.511282 C164.444165,125.246025 168.123841,132.855213 172.525022,137.844713 C172.525022,137.844713 159.12106,156.666171 154.30301,164.049664 C149.484959,171.425096 148.627169,169.861343 148.627169,169.861343 C148.627169,169.861343 135.720244,141.447793 132.321153,128.824923 C128.930079,116.193992 102.338607,61.0918571 139.76869,27.3099604 C194.28241,-21.8998891 250.824362,5.57057235 289,30.6551017" id="Fill-5" fill="#603C1F"></path>
                <path d="M291.102024,111.524908 L260.0594,127.313575 L195.125176,109 L196.717721,112.891235 L260.49955,133.306237 C260.49955,133.306237 264.749005,150.549124 265.925407,155.96649 C267.085804,161.383857 261.964051,165.179209 260.0594,166.345781 L258.162751,167.512352 L231.649677,170.7404 L180,142.079494 L185.353832,152.978149 L228.280524,176.133795 C228.280524,176.133795 235.60303,202.309743 239.564385,207 L274.40831,200.991358 C274.40831,200.991358 297.104078,175.414676 298.86468,171.611333 C300.61728,167.80799 303.554285,144.12499 303.986433,139.450713 C304.426584,134.760457 294.031026,118.092866 291.102024,111.524908" id="Fill-7" fill="#FFFFFF"></path>
                <path d="M233.522022,170.408 L233.522022,170.408 L274,200.984 L239.065082,207 C235.102316,202.304 227.762373,176.104 227.762373,176.104 L168,143.872 L172.187377,138 L231.139549,170.696 L233.522022,170.408 Z" id="Fill-9" fill="#E2E2E2"></path>
                <path d="M299,171.884817 C298.593443,172.831414 296.998487,175.101571 294.832787,178 L268,162 L299,171.884817 Z" id="Fill-11" fill="#E2E2E2"></path>
                <path d="M276.148093,60 C276.148093,60 277.612755,48.0393151 284.407827,43.5311183 C291.202899,39.0069633 294.14823,24.5647753 286.344703,18.6123597 C275.03559,10.0029007 278.173009,17.5591173 252.33733,9.86725587 C227.886277,2.58232902 214,18.9634405 214,18.9634405 C214,18.9634405 224.660819,42.9646015 225.797333,43.5311183 C226.94185,44.0896559 260.629078,42.6773536 260.909205,41.8395471 C261.189331,40.9857824 261.189331,41.831568 262.317842,38.7276944 L263.454355,35.6158418 C263.454355,35.6158418 263.734482,31.8098066 264.590869,32.7274042 C265.439253,33.6450018 270.817684,37.6265773 270.817684,37.6265773 L271.954198,42.6773536 L269.489083,45.2147103 L276.148093,60 Z" id="Fill-13" fill="#603C1F"></path>
                <g id="Group-17" transform="translate(0.000000, 213.000000)">
                    <mask id="mask-2" fill="white">
                        <use xlink:href="#path-1"></use>
                    </mask>
                    <g id="Clip-16"></g>
                    <path d="M51.7344443,50.0689481 C68.9602176,31.8053926 110.395403,12.8636148 138.70006,0.025837037 C138.70006,0.025837037 177.10203,43.8842074 220.508404,27.4453926 L224.362279,17.9825778 C224.362279,17.9825778 291.889563,44.9903556 306.967143,63.6172444 C329.897294,91.9088 332.777643,146.594504 344.902464,203.540948 L1.02260429,218.001615 C1.02260429,218.001615 -11.5930018,117.229096 51.7344443,50.0689481" id="Fill-15" fill="#AA172F" mask="url(#mask-2)"></path>
                </g>
            </g>
        </g>
    </g>
</svg>