<?xml version="1.0" encoding="UTF-8"?>
<svg width="140px" height="217px" viewBox="0 0 140 217" version="1.1" xmlns="http://www.w3.org/2000/svg" xmlns:xlink="http://www.w3.org/1999/xlink">
    <!-- Generator: Sketch 59.1 (86144) - https://sketch.com -->
    <title>Group 53</title>
    <desc>Created with Sketch.</desc>
    <defs>
        <polygon id="path-1" points="0.0667672122 0.174337748 57.7496842 0.174337748 57.7496842 64.9144925 0.0667672122 64.9144925"></polygon>
        <polygon id="path-3" points="0 217 140 217 140 0 0 0"></polygon>
    </defs>
    <g id="Page-1" stroke="none" stroke-width="1" fill="none" fill-rule="evenodd">
        <g id="Extra-large:-Desktops---12-col" transform="translate(-698.000000, -700.000000)">
            <g id="Group-53" transform="translate(698.000000, 700.000000)">
                <path d="M44.5244437,29 C44.5244437,29 47.8805584,50.5989537 42.8522317,54.6018162 C39.3133947,57.4211623 41.3402264,63.9357979 44.7885683,65.2592005 C44.7885683,65.2592005 48.3382301,63.1732638 50.211783,64.6475846 C52.9842256,66.8297205 56.7785274,65.5826596 59.2612989,64.5465312 C61.7445034,63.5104027 72.041034,63.6780896 74.6580327,65.2680261 C77.2745985,66.8579625 85.1030793,65.7106312 89,63.2429863 L89,29.0445694 L44.5244437,29 Z" id="Fill-1" fill="#892B19"></path>
                <path d="M80.7023706,58 L80.7023706,75.8176802 C80.7023706,81.2249016 87.0467116,83.5388634 94,85.3037053 C94,85.3037053 85.8239664,96.3204785 69.8056959,95.992834 C53.7865435,95.6660598 50.5429396,88.8277326 48,85.2262542 C48,85.2262542 59.4099366,81.3967735 59.7027252,76.267593 C59.9963957,71.1397178 59.7080166,58 59.7080166,58 L80.7023706,58 Z" id="Fill-3" fill="#EA997D"></path>
                <path d="M69.1217348,72 C64.3233384,72 60.9865946,68.8630353 59.1135913,66.2347446 C59.0860287,61.7929759 59,58 59,58 L78.9665908,58 C78.9665908,58 79.0417615,61.8214242 78.9665908,66.0623559 C77.3600259,68.7165474 74.0458332,72 69.1217348,72" id="Fill-5" fill="#D87E66"></path>
                <path d="M49.1460921,35.5333041 C50.8647902,56.7911501 59.0568395,67 69.5176939,67 C79.9432567,67 88.2548561,58.5709277 89.8910603,35.5333041 C91.0993545,18.5217682 82.1247152,8 69.5176939,8 C56.911996,8 47.7189903,17.873142 49.1460921,35.5333041" id="Fill-7" fill="#EA997D"></path>
                <g id="Group-11" transform="translate(44.000000, 0.000000)">
                    <mask id="mask-2" fill="white">
                        <use xlink:href="#path-1"></use>
                    </mask>
                    <g id="Clip-10"></g>
                    <path d="M57.7496842,59.7886358 C57.7496842,59.7886358 55.8553083,66.7983046 50.8197744,63.8151921 C49.7587669,63.1854238 48.3615338,64.4070795 46.4649774,64.8465828 C44.2875789,65.3515166 43.3909774,63.4721126 44.3769774,44.2562185 C45.0664361,30.8197285 33.3133684,26.5658874 32.6164962,21.4080728 C32.6164962,21.4080728 32.2314286,26.6717815 35.6468872,30.5407881 C35.6468872,30.5407881 31.8747068,31.2321126 29.8294436,30.1968477 C27.7327218,29.1366159 26.1706466,25.5848609 25.3861203,22.6030397 C25.3861203,22.6030397 25.7458947,27.3755894 28.729188,30.5407881 C28.729188,30.5407881 25.0132632,31.8308874 23.3709474,28.2197285 C23.3709474,28.2197285 23.8153233,30.1968477 24.0774135,30.713404 C24.0774135,30.713404 16.2068571,32.0344967 14.6731278,17.7887351 C14.6731278,17.7887351 9.29744361,24.0330397 7.41876692,37.7256556 C6.47332331,44.6122119 1.914,37.3261854 1.914,37.3261854 C1.914,37.3261854 -1.33966917,25.8160199 0.789323308,17.4714834 C2.20487218,11.9228079 6.89240602,7.79078808 13.9356992,8.27247682 C13.9356992,8.27247682 17.5896992,-2.27861589 31.3958797,0.706218543 C36.5404361,1.81853642 39.9772632,3.39446358 44.5008271,7.55446358 C48.0196391,10.7902583 52.2021805,15.7638344 51.6928271,27.9782384 C50.7704962,50.0670464 51.4787068,48.9551589 57.7496842,59.7886358" id="Fill-9" fill="#9E3A20" mask="url(#mask-2)"></path>
                </g>
                <path d="M86.3704613,38.6067153 C86.3704613,38.6067153 87.4225171,35.6849029 91.5591841,36.0280156 C95.5563619,36.359991 94.2008721,46.0738072 90.6814897,47.6749998 C87.163013,49.2749074 86,44.44777 86,44.44777 L86.3704613,38.6067153 Z" id="Fill-12" fill="#EA997D"></path>
                <path d="M52.6303993,38.6201522 C50.9884843,36.2277874 49.826235,35.8475241 47.441495,36.0451413 C43.4429225,36.3766418 44.799484,46.0765626 48.3192967,47.6754648 C51.8382036,49.2730837 53,44.4528514 53,44.4528514 L52.6303993,38.6201522 Z" id="Fill-14" fill="#EA997D"></path>
                <polygon id="Fill-16" fill="#D87E66" points="0 162 7.71549622 129 29 134.399681 21.529364 162"></polygon>
                <polygon id="Fill-18" fill="#D87E66" points="138 158.738094 132.811582 129 112 133.38165 118.327466 161"></polygon>
                <path d="M25.1480738,92 C25.1480738,92 14.9030993,96.486826 5,137.694352 C5,137.694352 10.4660978,145 30.4536465,145 C30.4536465,145 34.9080021,133.934312 35.4646339,130.632578 C37.8417074,116.529681 31.9265731,99.8456838 25.1480738,92" id="Fill-20" fill="#E61933"></path>
                <path d="M115.605912,93 C115.605912,93 127.772252,96.4164941 137,140.002916 C137,140.002916 128.698189,146 110.870228,146 C110.870228,146 107.562419,135.851054 107.23195,131.874803 C106.105149,118.323851 109.113664,100.949868 115.605912,93" id="Fill-22" fill="#E61933"></path>
                <path d="M48.5482399,84 C48.5482399,84 56.2889191,93.8635792 68.9956039,94.5120588 C78.8355314,95.0141636 87.3193957,90.1082176 91.6607957,84.5676911 C91.6607957,84.5676911 104.532536,88.4646497 116,92.923653 C116,92.923653 111.217728,120.841721 110.266485,126.049538 C108.653283,134.877635 104.721047,163.192696 106.363786,175.964227 C106.37812,176.072813 106.392454,176.1814 106.406787,176.290856 C109.300475,197.828371 92.6107348,217 70.879411,217 L69.0325243,217 C48.1395098,217 31.6447961,199.204816 33.2810195,178.376154 C33.3027374,178.096869 33.3218491,177.829746 33.3379203,177.575653 C33.7892174,170.398508 34.4529152,138.213852 32.5413093,126.627219 C31.6017947,120.930763 26.9111716,97.6093852 25,92.3533557 L48.5482399,84 Z" id="Fill-24" fill="#E61933"></path>
                <path d="M113.019924,105 C111.589804,113.391085 109.872693,123.429057 109.343979,126.351824 C108.664079,130.109351 108.303252,133.222059 108,136.542902 C108.326106,136.660061 108.637709,136.814054 108.929534,137 C109.2385,133.563329 109.597129,130.384942 110.295048,126.527563 C110.827278,123.583494 112.563727,113.433689 114,105.008876 C113.673454,105.005769 113.346469,105.003106 113.019924,105" id="Fill-26" fill="#AF1731"></path>
                <path d="M27.9709968,103 C27.6450804,103.053232 27.3209646,103.111384 27,103.178931 C28.9829582,111.985909 31.1185209,122.776336 31.771254,126.709237 C32.2988424,129.888392 32.7111897,132.550883 33.0456592,135 C33.350418,134.857303 33.6704823,134.746365 34,134.668083 C33.6691318,132.265936 33.263537,129.653098 32.7481029,126.549989 C32.0949196,122.614851 29.9593569,111.83516 27.9709968,103" id="Fill-28" fill="#AF1731"></path>
                <path d="M50.6897739,124 C40.9124898,121.164911 36.5321476,109.456739 37.0394147,107.100696 C37.6941527,104.060001 47.6808704,105.10025 50.7265384,105.492081 L50.5844375,106.641031 C44.8120024,105.899922 38.4372908,106.006939 38.1489582,107.348856 C37.8279919,108.840342 41.5296372,120.138987 51,122.885598 L50.6897739,124 Z" id="Fill-30" fill="#DDD0CE"></path>
                <path d="M88.3102339,124 C98.087764,121.164911 102.468216,109.456739 101.960523,107.100696 C101.306182,104.060001 91.3188,105.10025 88.2730554,105.492081 L88.415986,106.641031 C94.1881533,105.899922 100.562612,106.006939 100.850952,107.348856 C101.171926,108.840342 97.470601,120.138987 88,122.885598 L88.3102339,124 Z" id="Fill-32" fill="#DDD0CE"></path>
                <mask id="mask-4" fill="white">
                    <use xlink:href="#path-3"></use>
                </mask>
                <g id="Clip-35"></g>
                <polygon id="Fill-34" fill="#CBE8EC" mask="url(#mask-4)" points="50 124 89 124 89 105 50 105"></polygon>
                <polygon id="Fill-36" fill="#8FB9BC" mask="url(#mask-4)" points="50 107 89 107 89 105 50 105"></polygon>
                <path d="M52,111.193408 C52,111.193408 73.4107079,110.323073 87,111.193408 L52,111.193408 Z" id="Fill-37" fill="#8FB9BC" mask="url(#mask-4)"></path>
                <path d="M52,116 C52,116 73.4107079,113.75 87,116 L52,116 Z" id="Fill-38" fill="#8FB9BC" mask="url(#mask-4)"></path>
                <path d="M52,121 C52,121 73.4107079,118.75 87,121 L52,121 Z" id="Fill-39" fill="#8FB9BC" mask="url(#mask-4)"></path>
                <path d="M86.9787017,122.867499 L51.0603249,122.867499 C50.9497171,122.867499 51.0250523,123.075359 51.0250523,122.970392 L51.0250523,107.189605 C51.0250523,107.085053 51.1321765,107 51.2427843,107 C51.3529567,107 51.4605163,107.085053 51.4605163,107.189605 L51.4605163,122.452608 L86.297636,122.452608 L86.297636,107.189605 C86.297636,107.085053 86.4047602,107 86.515368,107 C86.6246695,107 86.7331,107.085053 86.7331,107.189605 L86.7331,122.970392 C86.7331,123.075359 87.0893096,122.867499 86.9787017,122.867499" id="Fill-40" fill="#8FB9BC" mask="url(#mask-4)"></path>
                <path d="M20,125.170299 C20,125.170299 25.8473416,111.223829 29.7855904,104.236897 C29.7855904,104.236897 34.9536039,97.5 38.5484367,98.0296718 C39.258222,98.1349085 40.1785592,98.8572148 40.6177609,100.098747 C41.4237733,102.376556 41.7976465,104.057298 42.1957972,105.882416 C42.1957972,105.882416 45.1898727,106.747357 43.4423354,110.766789 C43.4423354,110.766789 45.1832515,111.960921 42.51317,116.241706 C42.51317,116.241706 43.6392037,118.545171 40.8199261,121.638782 C40.8199261,121.638782 38.6031714,122.803778 36.6768637,121.503105 C36.6768637,121.503105 35.9988598,123.306044 35.5349393,123.970514 C35.0701358,124.634113 32.9571122,130.485621 28.2539021,130.780023 C28.2539021,130.780023 21.7479786,132.704288 20,125.170299" id="Fill-41" fill="#EA997D" mask="url(#mask-4)"></path>
                <path d="M42.9824714,105.794064 C43.0407122,105.635815 42.9492526,105.464081 42.7758245,105.410141 C41.047583,104.873522 39.2861226,104.49079 37.8232003,104.226645 C38.1152671,103.993039 38.496205,103.667815 38.6346886,103.459593 C38.7291681,103.316812 38.6782614,103.130403 38.5216584,103.044338 C38.3646239,102.955893 38.1631539,103.004677 38.0699687,103.147061 C37.9603897,103.314829 37.416809,103.75745 37.06607,104.019612 C37.0410481,104.038253 37.0250858,104.062446 37.006535,104.08545 C35.4469761,103.83003 34.3826796,103.727307 34.363266,103.725721 C34.181641,103.708667 34.0194296,103.829634 34.0017417,103.994625 C33.9857794,104.138993 34.0811217,104.269082 34.2226253,104.31271 C34.2459216,104.319849 34.2696493,104.325005 34.2963969,104.326988 C34.3378126,104.332144 38.5531515,104.738277 42.564432,105.984042 C42.7378601,106.037585 42.9242306,105.951916 42.9824714,105.794064" id="Fill-42" fill="#D87E66" mask="url(#mask-4)"></path>
                <path d="M42.5475527,110.966944 C42.6974153,111.043461 42.8886335,110.982902 42.9660216,110.829049 C43.0446381,110.675196 42.9819906,110.486153 42.8280333,110.408408 C41.0706275,109.520889 35.5748445,109.021276 35.3406329,109.001226 C35.1690689,108.986086 35.01634,109.112933 35.0011899,109.28479 C34.9884967,109.430459 35.078578,109.563035 35.2128812,109.607636 C35.2354015,109.61582 35.2595597,109.62073 35.2853557,109.623185 C35.3414519,109.628913 40.8904648,110.130982 42.5475527,110.966944" id="Fill-43" fill="#D87E66" mask="url(#mask-4)"></path>
                <path d="M42.7207368,115.370469 C40.0271082,114.446621 36.5335125,114.02094 36.3855209,114.002489 C36.1969217,113.980085 36.0250168,114.111435 36.0029083,114.295502 C35.981251,114.455847 36.0827696,114.603452 36.2334685,114.653092 C36.2560282,114.661 39.8488865,115.133247 42.4671657,115.994276 C42.4685193,115.995593 42.8998608,116.049188 42.9860389,115.800105 C43.0469501,115.624824 42.8994096,115.431971 42.7207368,115.370469" id="Fill-44" fill="#D87E66" mask="url(#mask-4)"></path>
                <path d="M40.8311151,119.702609 C39.7495108,119.196217 37.5038461,119.009403 37.4079279,119.00106 C37.3157959,118.994168 37.2228225,119.021011 37.1567736,119.077962 C37.0890418,119.133462 37.0528621,119.211452 37.0587518,119.292344 C37.0793659,119.643844 37.0015375,120.69399 37.0006961,120.704873 C36.9910201,120.832922 37.0831521,120.946098 37.2190363,120.985637 C37.2430158,120.992529 37.2720437,120.997608 37.3006509,120.999421 C37.4777631,121.009216 37.630475,120.8935 37.6418337,120.741147 C37.6443579,120.705961 37.6931584,120.053746 37.7024137,119.587618 C38.3654275,119.659442 39.7920009,119.847344 40.5252705,120.189412 C40.675879,120.261236 40.8757086,120.212628 40.9606888,120.078049 C41.0460897,119.943108 40.9876132,119.77552 40.8311151,119.702609" id="Fill-45" fill="#D87E66" mask="url(#mask-4)"></path>
                <path d="M28.9946446,130.58642 C28.9946446,130.58642 29.551716,156.936569 19.3026619,170.779632 C19.3026619,170.779632 13.4514238,177.931549 6.9512263,176.897845 C0.451028762,175.865007 -1.07793574,163.988883 0.670146472,158.206289 C2.41867045,152.425426 15.1646063,137.368508 20.7339953,125 C20.7339953,125 27.2845546,126.323852 28.9946446,130.58642" id="Fill-46" fill="#EA997D" mask="url(#mask-4)"></path>
                <path d="M120,125.170299 C120,125.170299 114.153031,111.223829 110.214295,104.236897 C110.214295,104.236897 105.045779,97.5 101.451346,98.0296718 C100.741552,98.1349085 99.8216457,98.8572148 99.3819974,100.098747 C98.576417,102.376556 98.202098,104.057298 97.8048255,105.882416 C97.8048255,105.882416 94.8098321,106.747357 96.5578312,110.766789 C96.5578312,110.766789 94.8168947,111.960921 97.4861246,116.241706 C97.4861246,116.241706 96.3605192,118.545171 99.1798298,121.638782 C99.1798298,121.638782 101.396169,122.803778 103.323382,121.503105 C103.323382,121.503105 104.000511,123.306044 104.464437,123.970514 C104.929688,124.634113 107.042736,130.485621 111.746001,130.780023 C111.746001,130.780023 118.252001,132.704288 120,125.170299" id="Fill-47" fill="#EA997D" mask="url(#mask-4)"></path>
                <path d="M97.0172337,105.794064 C96.9594258,105.635815 97.0517459,105.464081 97.2238755,105.410141 C98.952505,104.873522 100.714784,104.49079 102.177238,104.226645 C101.884747,103.993039 101.503388,103.667815 101.365339,103.459593 C101.270862,103.316812 101.322199,103.130403 101.478798,103.044338 C101.635397,102.955893 101.837293,103.004677 101.930476,103.147061 C102.039621,103.314829 102.583188,103.75745 102.934781,104.019612 C102.958939,104.038253 102.975333,104.062446 102.993883,104.08545 C104.553403,103.83003 105.617241,103.727307 105.636654,103.725721 C105.819138,103.708667 105.980482,103.829634 105.99817,103.994625 C106.014563,104.138993 105.919223,104.269082 105.777291,104.31271 C105.753996,104.319849 105.7307,104.325005 105.704384,104.326988 C105.662538,104.332144 101.447305,104.738277 97.4356941,105.984042 C97.2631331,106.037585 97.0763359,105.951916 97.0172337,105.794064" id="Fill-48" fill="#D87E66" mask="url(#mask-4)"></path>
                <path d="M97.4524435,110.966944 C97.3025821,111.043461 97.1113655,110.982902 97.0339781,110.829049 C96.9553623,110.675196 97.0180093,110.486153 97.1719652,110.408408 C98.9289465,109.520889 104.424682,109.021276 104.659302,109.001226 C104.831274,108.986086 104.983182,109.112933 104.998742,109.28479 C105.011844,109.430459 104.921354,109.563035 104.786643,109.607636 C104.764532,109.61582 104.739965,109.62073 104.714578,109.623185 C104.658073,109.628913 99.1095172,110.130982 97.4524435,110.966944" id="Fill-49" fill="#D87E66" mask="url(#mask-4)"></path>
                <path d="M97.2796724,115.370469 C99.9727303,114.446621 103.46572,114.02094 103.614156,114.002489 C103.802747,113.980085 103.974193,114.111435 103.997203,114.295502 C104.018408,114.455847 103.916894,114.603452 103.765751,114.653092 C103.744545,114.661 100.150944,115.133247 97.5323299,115.994276 C97.5309763,115.995593 97.1001051,116.049188 97.0139309,115.800105 C96.9530224,115.624824 97.1010075,115.431971 97.2796724,115.370469" id="Fill-50" fill="#D87E66" mask="url(#mask-4)"></path>
                <path d="M99.1691948,119.702609 C100.250292,119.196217 102.496197,119.009403 102.591266,119.00106 C102.683391,118.994168 102.776357,119.021011 102.843242,119.077962 C102.910968,119.133462 102.947145,119.211452 102.941256,119.292344 C102.919802,119.643844 102.998045,120.69399 102.999307,120.704873 C103.008982,120.832922 102.916437,120.946098 102.780563,120.985637 C102.756586,120.992529 102.72756,120.997608 102.698955,120.999421 C102.522278,121.009216 102.368737,120.8935 102.357379,120.741147 C102.355276,120.705961 102.306479,120.053746 102.297225,119.587618 C101.634264,119.659442 100.207805,119.847344 99.4741735,120.189412 C99.3239978,120.261236 99.1241841,120.212628 99.0392107,120.078049 C98.9538167,119.943108 99.0127091,119.77552 99.1691948,119.702609" id="Fill-51" fill="#D87E66" mask="url(#mask-4)"></path>
                <path d="M111.005355,130.58642 C111.005355,130.58642 110.44828,156.936569 120.6974,170.779632 C120.6974,170.779632 126.548676,177.931549 133.048915,176.897845 C139.549155,175.865007 141.077687,163.988883 139.330036,158.206289 C137.5815,152.425426 124.835483,137.368508 119.266058,125 C119.266058,125 112.715015,126.323852 111.005355,130.58642" id="Fill-52" fill="#EA997D" mask="url(#mask-4)"></path>
            </g>
        </g>
    </g>
</svg>