<?xml version="1.0" encoding="UTF-8"?>
<svg width="255px" height="272px" viewBox="0 0 255 272" version="1.1" xmlns="http://www.w3.org/2000/svg" xmlns:xlink="http://www.w3.org/1999/xlink">
    <!-- Generator: Sketch 59.1 (86144) - https://sketch.com -->
    <title>Group 48</title>
    <desc>Created with Sketch.</desc>
    <defs>
        <polygon id="path-1" points="9.05861457e-05 0.0511358792 254.972069 0.0511358792 254.972069 254.999955 9.05861457e-05 254.999955"></polygon>
    </defs>
    <g id="Page-1" stroke="none" stroke-width="1" fill="none" fill-rule="evenodd">
        <g id="Extra-large:-Desktops---12-col" transform="translate(-355.000000, -596.000000)">
            <g id="Group-48" transform="translate(355.000000, 596.000000)">
                <g id="Group-3" transform="translate(0.000000, 17.000000)">
                    <mask id="mask-2" fill="white">
                        <use xlink:href="#path-1"></use>
                    </mask>
                    <g id="Clip-2"></g>
                    <path d="M254.97216,127.525772 C254.97216,174.670425 229.368288,215.842131 191.321503,237.868756 C190.33819,238.44745 189.331023,239.014972 188.323856,239.559395 C188.266183,239.593667 188.207906,239.628241 188.150233,239.65134 C187.826538,239.836891 187.513412,240.010363 187.189416,240.172512 C186.506849,240.531385 185.835304,240.890257 185.14081,241.226029 C182.374158,242.649591 179.549833,243.957504 176.668137,245.149466 C161.551272,251.504386 144.929318,254.999955 127.474877,254.999955 C126.664282,254.999955 125.854442,254.988179 125.032675,254.976855 L123.411636,254.953605 C122.879291,254.918578 122.346947,254.907406 121.814451,254.884155 C120.298039,254.803232 118.770455,254.721855 117.265366,254.60666 C116.617222,254.548383 115.969531,254.49071 115.309158,254.432583 C114.661014,254.362983 114.01287,254.317388 113.365179,254.236012 C112.843856,254.166411 112.300339,254.120061 111.755917,254.039289 C111.165295,253.969688 110.5866,253.888916 109.996583,253.819315 C104.810979,253.113498 99.7182256,252.083081 94.7637673,250.752068 C94.1506501,250.601091 93.536929,250.42777 92.9236607,250.266074 C92.3913162,250.103774 91.8355702,249.941624 91.3032256,249.791251 C89.7292913,249.328507 88.1777016,248.830585 86.6501172,248.309413 C86.0363961,248.124617 85.4229769,247.904795 84.8098597,247.684369 C83.5597709,247.244573 82.3327815,246.781829 81.093865,246.307006 C80.5965471,246.110283 80.087302,245.901633 79.5774529,245.693738 C79.1263339,245.508338 78.6866892,245.322939 78.26954,245.149466 C77.5756501,244.871971 76.9042558,244.582548 76.20946,244.270026 C75.3413428,243.899981 74.4732256,243.482832 73.6051083,243.089386 C73.5702327,243.077459 73.5243357,243.05436 73.4893091,243.031864 C72.7138917,242.672841 71.9615737,242.313969 71.1974796,241.919919 C71.1393535,241.89682 71.070357,241.862397 71.0120799,241.827974 C70.3757123,241.526624 69.7388917,241.202779 69.102373,240.85523 C69.0791226,240.85523 69.0677993,240.85523 69.0560231,240.843907 C68.8593002,240.739431 68.6508011,240.647335 68.4540782,240.531385 C68.3846288,240.496358 68.3269556,240.461784 68.2573552,240.427512 C61.5900639,236.919866 55.2588472,232.845452 49.3443268,228.238694 C19.3304192,204.938578 9.05861457e-05,168.488978 9.05861457e-05,127.525772 C9.05861457e-05,69.1766687 39.2042647,19.9945817 92.6919112,4.84314298 C93.536929,4.6115444 94.3704725,4.38024778 95.2154902,4.1604254 C105.528723,1.47469716 116.327799,0.0511358792 127.474877,0.0511358792 C137.417462,0.0511358792 147.082702,1.1854254 156.353892,3.33865808 C156.978785,3.48903108 157.592657,3.63940409 158.205774,3.78977709 C213.777355,17.5179565 254.97216,67.7066066 254.97216,127.525772" id="Fill-1" fill="#EEF6F7" mask="url(#mask-2)"></path>
                </g>
                <path d="M82.8202092,37.1985624 C79.1632147,41.1078114 74.1442652,43.8820637 71.7047529,48.6312405 C67.6202524,56.5818028 72.3913394,66.5184585 69.7690001,75.058555 C68.6147342,78.8174773 66.1173115,81.9909405 63.8729056,85.224625 C60.5747431,89.9765186 57.6675515,95.2308597 57.0895089,100.978139 C56.5117696,106.725419 58.7317683,113.052725 63.7217625,115.999038 C65.939942,117.308812 68.7394992,118.050635 70.0126178,120.283651 C70.7938015,121.65425 70.8130544,123.306334 71.0577333,124.863333 C71.8674173,130.012928 75.7086032,134.400777 80.4531606,136.437433 C82.7166679,137.409274 85.3127808,137.193292 87.4707759,138.208601 C89.6284679,139.224061 91.3207545,141.16563 93.6359566,142.133849 C102.620251,145.891413 113.077166,143.474715 122.466681,146.070265 C130.003519,148.153709 136.321055,153.314021 143.679614,155.954096 C148.515585,157.689192 153.230429,157.857479 158.294858,157.727679 C161.867716,157.635913 165.153296,158.372756 168.769207,157.742621 C176.439603,156.406132 183.608361,152.117746 188.218754,145.845228 C194.17473,137.741924 195.665846,126.582279 192.044477,117.210556 C191.307257,115.302343 190.364773,113.430956 190.141925,111.398678 C189.679854,107.181531 192.342822,103.344276 193.774057,99.3483927 C195.836091,93.5908496 195.272298,86.9565517 192.268236,81.6256889 C189.312078,76.3801018 184.071644,72.1591814 183.184797,66.2095039 C182.599478,62.2816904 184.070583,58.3513111 184.225971,54.3835011 C184.424715,49.3132952 182.345854,44.1964517 178.66233,40.6895832 C177.060396,39.1645822 175.18028,37.9360085 173.687344,36.3052052 C171.174155,33.5599316 170.019435,29.9735227 168.905645,26.5069526 C167.93739,23.4940794 166.475684,20.8508348 165.416621,17.9028616 C163.148566,11.5903474 158.316233,6.53900776 152.292948,3.59631718 C145.21909,0.140463137 137.035991,-0.49102978 129.197776,0.311014522 C122.186831,1.02838685 114.606333,3.32645357 110.921445,9.30782648 C110.670854,9.71458399 110.422991,10.1533387 110.009281,10.3939219 C109.43715,10.7264216 108.721305,10.5907351 108.065038,10.5018371 C103.349588,9.86340139 98.6356531,12.2890043 95.3605336,15.7262939 C89.6812239,21.6866875 88.8212094,29.9176785 83.7839166,36.0982796 C83.4760214,36.4760584 83.1537244,36.8420647 82.8202092,37.1985624" id="Fill-4" fill="#433323"></path>
                <path d="M185.996047,254.974628 C186.019875,256.073506 185.938068,257.160768 185.693861,258.236565 C182.912573,259.659193 180.073459,260.966109 177.176366,262.157014 C161.979531,268.507094 145.269644,272 127.722867,272 C126.907984,272 126.093859,271.988233 125.267745,271.976918 L123.638282,271.953836 C123.102969,271.918685 122.567809,271.907522 122.032496,271.884289 C120.508062,271.803578 118.972396,271.722263 117.459345,271.607005 C116.807773,271.548772 116.156655,271.491143 115.492941,271.433212 C114.841216,271.363664 114.189644,271.317953 113.538526,271.236639 C113.014445,271.167091 112.468053,271.120777 111.92075,271.040066 C111.327004,270.970518 110.745248,270.889807 110.152109,270.82026 C104.939073,270.11498 99.819378,269.085348 94.8388616,267.7555 C94.2223491,267.604638 93.6053813,267.431297 92.9888688,267.269724 C92.453708,267.107699 91.895022,266.945673 91.3598613,266.795263 C89.7776006,266.332872 88.2178028,265.835329 86.6821372,265.314554 C86.0651694,265.129899 85.4485052,264.910244 84.8321444,264.689985 C83.5754425,264.250525 82.3419622,263.788133 81.0964916,263.313672 C80.5965427,263.11725 80.0846036,262.908759 79.5720574,262.701022 C79.1185519,262.515612 78.6765814,262.330505 78.2573772,262.157014 C77.5596647,261.879729 76.8847186,261.590527 76.1862473,261.278243 C75.3135376,260.90848 74.4408279,260.491649 73.5681182,260.098653 C73.533058,260.086735 73.4869182,260.063503 73.4517063,260.041024 C72.6721868,259.682274 71.915889,259.323676 71.1477527,258.930077 C71.3575066,255.159886 72.3114162,251.285149 73.1493693,247.595519 C78.4203842,224.174204 79.0487352,197.849552 73.7540433,174.370609 C71.7414988,165.476393 69.7864773,158.594374 70.0188458,149.434037 C70.2404381,140.643765 71.4966848,131.865261 74.4408279,123.549299 C77.2221158,115.707797 79.1885205,113.868489 87.0888959,113.209373 C87.0888959,113.209373 108.011314,111.451228 108.022697,111.451228 C108.022697,111.451228 110.861812,111.196573 110.87365,111.196573 L126.675615,113.729997 L129.689272,114.203855 L142.209393,111 L143.908217,111.138944 L146.67797,111.381832 L148.376946,111.520775 C159.326038,112.44571 173.766728,110.792112 179.282556,122.45042 C182.459068,129.170414 182.563793,136.91989 183.191992,144.171672 C186.089237,177.574463 174.721244,212.064216 183.924917,245.108861 C184.821152,248.335949 185.914847,251.678144 185.996047,254.974628" id="Fill-6" fill="#D4343C"></path>
                <path d="M143,110.707761 C142.182475,124.314915 138.267848,147.028088 129.897316,147 C121.36285,146.971402 113,110.766128 113,110.766128 L113.693383,98.9642262 L114.219758,90 L141.457134,90 L142.182475,100.599572 L143,110.707761 Z" id="Fill-8" fill="#FFB69E"></path>
                <path d="M142,101.105948 C138.575389,103.525035 134.312707,105 128.983638,105 C122.596939,105 117.722542,102.876051 114,99.546637 L114.517338,91 L141.287112,91 L142,101.105948 Z" id="Fill-10" fill="#F68A73"></path>
                <path d="M156.164403,67.0773949 C156.094232,67.6247601 156.015742,68.1374363 155.910636,68.6152734 C155.2803,72.0036818 155.175799,75.0274803 154.073013,78.3116715 C154.06394,78.3290911 154.06394,78.3376507 154.055471,78.3552205 C153.653042,79.5367485 153.215527,80.7184266 152.725535,81.8739754 C151.832811,83.993908 150.756643,86.0446129 149.409164,87.8951428 L148.857923,88.668512 C144.377821,94.1336044 137.920358,98 128.443847,98 C119.334982,98 112.982625,94.4289864 108.54638,89.2854053 C108.467286,89.1723282 108.397265,89.1028001 108.327698,88.9898732 C107.163816,87.5997608 106.131202,86.0967215 105.221238,84.524154 C104.459633,83.2293988 103.785894,81.8913949 103.191249,80.5272617 C101.44981,76.5739184 100.329936,72.4208506 99.6211106,68.6152734 C99.1837471,66.1302804 99,63.2197091 99,60.1178228 C99,55.191536 99.4373635,49.7958215 100.023539,44.9476224 C100.907189,39.5954569 101.125871,35.7637503 103.217412,33.3223063 C105.387291,30.7677852 110.383549,30.6984072 113.761471,30.9502402 C116.359942,31.1326953 118.827749,32.2622649 121.3562,32.8791582 C126.501118,34.1563437 131.856401,33.3223063 136.92283,31.8278266 C139.828152,30.9849292 142.767954,29.9337478 145.813014,30.0032759 C149.741421,30.0726539 154.440508,31.6453715 155.910636,38.0574283 C155.910636,38.0922674 155.910636,38.1705054 155.945722,38.1705054 C157.153008,46.1205908 157.450482,58.6928712 156.164403,67.0773949" id="Fill-12" fill="#FFB69E"></path>
                <path d="M131.000057,67.9758625 C131.031158,67.9758625 131.031158,68.0241375 131.000057,68.0241375 C130.968804,68.0241375 130.968804,67.9758625 131.000057,67.9758625" id="Fill-14" fill="#594E8A"></path>
                <path d="M135.463114,78.0868371 C133.412145,77.9021924 131.419901,78.4002675 129.346332,78.3057371 C126.995524,78.1987936 125.069169,77.5424517 122.865574,77.0213408 C122.237248,76.8726225 121.68818,77.5381548 122.205259,77.8728307 C125.314419,79.8843474 132.532998,81.0085671 135.83664,78.7632309 C136.212075,78.5078078 135.878019,78.1243151 135.463114,78.0868371" id="Fill-16" fill="#F68A73"></path>
                <path d="M113.476365,30.5433452 C116.96428,34.4747384 122.475206,36.032247 127.748556,36.4735956 C133.022056,36.9147955 138.362554,36.4368661 143.598867,37.1955456 C148.253134,37.8700596 152.758652,39.5288345 156.724278,42.0279264 C157.493315,42.5126962 158.269879,43.0401435 159.165984,43.2104077 C161.029558,43.564468 162.905477,42.1818334 163.593665,40.4350267 C164.281853,38.68822 164.008595,36.7083967 163.42158,34.9259014 C161.704497,29.710612 157.437609,25.5667231 152.493674,23.0704565 C147.54989,20.5740411 141.962181,19.576843 136.424004,19.1847149 C126.448059,18.4783787 116.126439,19.7191512 107.250753,24.2728638 C98.3752166,28.8265764 91.1169455,36.9918234 89.1783955,46.6835002 C87.4997039,55.0836969 98.1770858,45.0566963 99.9030518,43.5606017 C101.12812,42.4984207 113.895962,31.0163675 113.476365,30.5433452" id="Fill-18" fill="#433323"></path>
                <path d="M129.999943,67.9758625 C130.031196,67.9758625 130.031196,68.0241375 129.999943,68.0241375 C129.968842,68.0241375 129.968842,67.9758625 129.999943,67.9758625" id="Fill-20" fill="#594E8A"></path>
                <path d="M134.46303,77.0868371 C132.412222,76.9021924 130.419821,77.4001481 128.346254,77.3057371 C125.995606,77.1987936 124.069093,76.5424517 121.86566,76.0213408 C121.237176,75.8726225 120.688267,76.5381548 121.205186,76.8728307 C124.314503,78.8843474 131.533076,80.0085671 134.836715,77.7632309 C135.211991,77.5078078 134.878094,77.1243151 134.46303,77.0868371" id="Fill-22" fill="#F68A73"></path>
                <path d="M107.030001,70.7006037 C105.010705,67.1596597 102.103615,62.1212612 99.5554536,58.9088584 C98.9909227,58.1988597 98.3739624,57.4977571 97.6945136,56.8943579 C97.2724871,56.5194958 91.9774194,54.9393691 94.8499121,54.0658667 C96.1213258,53.6796544 97.8825889,55.0855407 98.7351768,55.8470753 C102.5799,59.2815732 105.384113,65.275226 107.862165,69.6680457 C108.329305,70.4932332 107.497141,71.5168951 107.030001,70.7006037" id="Fill-24" fill="#FFFFFF"></path>
                <path d="M99.789641,59.3312902 C99.789641,59.3312902 96.0770173,52.5048119 91.4467096,55.9920766 C87.8404151,58.7083026 90.8378865,75.3810635 102,74.9933453 L99.789641,59.3312902 Z" id="Fill-26" fill="#FFB69E"></path>
                <path d="M150.300368,68.6603149 C152.238822,65.2930612 153.728872,61.5879881 156.174835,58.5328818 C156.651476,57.9389266 157.279974,56.975062 157.977525,56.627324 C158.573398,56.3303464 159.105632,56.5888161 159.653373,56.3970059 C160.377258,56.1436414 161.623136,55.0305587 160.631964,54.2052643 C159.711454,53.4388987 157.632114,55.0219528 156.962214,55.621305 C153.271836,58.8873296 151.477193,63.7823552 149.098526,67.9597336 C148.650122,68.7446238 149.85211,69.4367451 150.300368,68.6603149" id="Fill-28" fill="#FFFFFF"></path>
                <path d="M154,75.5469491 C153.541886,80.0470081 149.991837,86.0164433 148.652434,87.8712939 L148.110345,88.6487123 C143.67121,94.1240423 137.262108,98 127.864692,98 C118.832118,98 112.533833,94.4127719 108.139685,89.2595732 C108.061708,89.1483845 107.995278,89.0817314 107.917901,88.9708436 C107.165124,88.0488348 102.110271,79.649798 101.501601,78.8057266 L101,75.5469491 L105.397747,68.5637254 C108.353072,67.4419079 121.820882,61.8158186 128.838653,62.0046439 C136.797246,62.2267204 150.003084,67.8798922 150.003084,67.8798922 L154,75.5469491 Z" id="Fill-30" fill="#FFFFFF"></path>
                <path d="M156.693363,58.1958547 C156.693363,58.1958547 160.11138,52.6427783 164.523978,56.1764866 C167.960711,58.9287389 165.63729,75.3861056 155,74.9930753 L156.693363,58.1958547 Z" id="Fill-32" fill="#FFB69E"></path>
                <path d="M138.554341,67.0363272 C135.989787,66.803509 134.145238,66.2634653 131.746403,65.5139294 C130.182298,65.0252622 128.81509,64.8839768 127.167589,65.0947976 C123.372671,65.5802169 120.114838,67.0829795 116.199202,67.0161014 C115.949934,67.0118201 115.938108,67.3301181 116.144065,67.4082163 C119.404202,68.6385948 122.896098,66.9440562 126.108317,66.3381679 C130.657335,65.4796784 134.198378,68.6205835 138.674444,67.8883208 C139.210914,67.8004788 139.02308,67.0788457 138.554341,67.0363272" id="Fill-34" fill="#CCCECE"></path>
                <path d="M178.106211,164.501061 C178.106211,164.501061 217.736142,188.681013 229.935803,172.317218 C244.16493,153.231817 225.588074,143.504463 208.987527,131.223382 C192.387131,118.942302 171.043441,113 171.043441,113 C171.043441,113 165.995295,158.908181 178.106211,164.501061" id="Fill-36" fill="#D4343C"></path>
                <path d="M75.893797,164.501061 C75.893797,164.501061 36.263755,188.681013 24.0641062,172.317218 C9.83514531,153.231817 28.4119831,143.504463 45.0123617,131.223382 C61.6128918,118.942302 82.9565603,113 82.9565603,113 C82.9565603,113 88.0047013,158.908181 75.893797,164.501061" id="Fill-38" fill="#D4343C"></path>
                <path d="M74.305068,127.288896 C72.8065847,132.790522 72.3626625,138.841205 71.8615953,144.570069 C71.3794017,150.088891 70.4741254,156.440665 71.4010277,161.927551 C71.4176731,162.027045 71.5482153,162.02121 71.5677442,161.927551 C72.6976685,156.579772 72.4297686,150.609697 72.9445978,145.126957 C73.5004508,139.209085 74.6314235,133.331902 74.998934,127.399291 C75.0288171,126.91687 74.421455,126.861288 74.305068,127.288896" id="Fill-40" fill="#952032"></path>
                <path d="M182.171141,143.043999 C181.810683,137.18448 181.737309,131.138513 180.820847,125.365505 C180.728833,124.784237 180.040447,124.946073 180.024775,125.501239 C179.852857,131.690696 180.617228,138.012605 181.035151,144.175809 C181.434671,150.072767 181.856037,155.942429 182.552852,161.795236 C182.591557,162.117418 183.003187,162.034784 183,161.718718 C182.934681,155.475118 182.554276,149.26985 182.171141,143.043999" id="Fill-42" fill="#952032"></path>
                <path d="M149.907595,100.9564 C149.155454,100.054431 148.38572,99.1738848 147.589221,98.325546 C144.662909,95.209028 140.766121,92.7873 140.078639,88.2164869 C139.417019,83.8182478 140.659661,79.2528276 138.636459,74.9654433 C137.682224,72.9436914 130.944383,67.5588446 133.626648,65.5934189 C136.386051,63.571667 143.333956,67.2412605 145.626467,68.764765 C151.047084,72.3672465 153.989635,77.9723049 158.024461,82.8157609 C160.807472,86.1563853 164.001138,89.446376 167.526065,92.0104176 C173.183362,96.1255276 178.78833,100.312993 184.341721,104.566072 C198.639314,115.51613 213.291024,126.7231 225.618946,139.902538 C228.643599,143.136352 232.105672,146.73404 233.703934,150.946822 C238.641117,163.960576 228.765397,177.030507 216.044864,170.05819 C203.195465,163.014715 192.476481,148.537677 182.689929,138.005722 C176.536117,131.383346 154.576221,106.555616 149.907595,100.9564" id="Fill-44" fill="#FFB69E"></path>
                <path d="M105.103837,100.513567 C105.856079,99.6059762 106.625915,98.7199409 107.422521,97.8663142 C109.657889,95.4710945 112.974247,93.7504254 114.41316,90.6788463 C117.399266,84.3040045 113.294123,76.180155 119.650726,71.1491385 C120.798187,70.240794 122.121903,69.5840305 123.323052,68.7483415 C124.090783,68.2142784 124.807834,67.6071075 125.46142,66.9376821 C125.739789,66.6526374 126.024624,66.3083528 125.998306,65.9104057 C125.947474,65.1460156 124.917918,64.9518656 124.155751,65.0094473 C119.83435,65.3354927 115.38948,66.1441996 111.388405,67.8568797 C106.601252,69.9061567 103.836216,73.7611188 101.480387,78.3139958 C100.885001,79.4645755 100.350672,80.6526889 99.6255006,81.726091 C98.1541037,83.9047008 95.9820487,85.4940775 93.8331535,87.0052214 C85.9537206,92.5458816 78.3152094,98.2509964 70.664968,104.145739 C56.3654681,115.164051 41.7119547,126.440878 29.3823883,139.702466 C26.3571817,142.956438 22.8946466,146.576551 21.2961718,150.815592 C16.3584801,163.910465 26.2355178,177.061864 38.9577475,170.046086 C51.8088598,162.958708 62.5292738,148.391431 72.3171314,137.793827 C78.4717634,131.130172 100.434438,106.147684 105.103837,100.513567" id="Fill-46" fill="#FFB69E"></path>
            </g>
        </g>
    </g>
</svg>