<?xml version="1.0" encoding="UTF-8"?>
<svg width="171px" height="217px" viewBox="0 0 171 217" version="1.1" xmlns="http://www.w3.org/2000/svg" xmlns:xlink="http://www.w3.org/1999/xlink">
    <!-- Generator: Sketch 59.1 (86144) - https://sketch.com -->
    <title>Group 82</title>
    <desc>Created with Sketch.</desc>
    <defs>
        <polygon id="path-1" points="0.252300768 0.174337748 57.9348481 0.174337748 57.9348481 64.9144925 0.252300768 64.9144925"></polygon>
        <polygon id="path-3" points="0 0.180513018 39.6765591 0.180513018 39.6765591 72.889173 0 72.889173"></polygon>
        <polygon id="path-5" points="0.123913978 0.180513018 39.8004301 0.180513018 39.8004301 72.889173 0.123913978 72.889173"></polygon>
    </defs>
    <g id="Page-1" stroke="none" stroke-width="1" fill="none" fill-rule="evenodd">
        <g id="Extra-large:-Desktops---12-col" transform="translate(-967.000000, -700.000000)">
            <g id="Group-82" transform="translate(967.000000, 700.000000)">
                <path d="M61.4717502,30 C61.4717502,30 64.8973011,51.0151982 59.8506763,54.9098752 C56.298221,57.6530228 58.3612874,63.9915871 61.8224759,65.2792221 C61.8224759,65.2792221 65.3997036,63.2496621 67.2798017,64.6841364 C70.0630074,66.8072957 73.8783983,65.5939391 76.3704192,64.5858141 C78.8628747,63.5776891 89.0878094,63.740844 91.714123,65.2878092 C94.3413058,66.8347744 102.523166,65.718452 106,63.3175002 L106,30.0433648 L61.4717502,30 Z" id="Fill-1" fill="#892B19"></path>
                <path d="M96.8303541,58 L96.8303541,75.8176802 C96.8303541,81.2249016 103.058182,83.5388634 110,85.3037053 C110,85.3037053 101.785589,96.3204785 85.794756,95.992834 C69.8026029,95.6660598 66.5381435,88.8277326 64,85.2262542 C64,85.2262542 75.3771866,81.3967735 75.6694737,76.267593 C75.9626411,71.1397178 75.66111,58 75.66111,58 L96.8303541,58 Z" id="Fill-3" fill="#EA997D"></path>
                <path d="M86.6277229,72 C81.5894535,72 78.0859049,68.8630353 76.1192697,66.2347446 C76.0903293,61.7929759 76,58 76,58 L96.9647258,58 C96.9647258,58 97.0440928,61.8214242 96.9647258,66.0623559 C95.2778483,68.7165474 91.7979783,72 86.6277229,72" id="Fill-5" fill="#D87E66"></path>
                <path d="M66.1426127,36.0666379 C67.8189726,56.9641815 75.8112715,67 86.0170542,67 C96.1892666,67 104.29734,58.7137933 105.893648,36.0666379 C107.07291,19.3434331 98.3166728,9 86.0170542,9 C73.7187267,9 64.7498782,18.7058006 66.1426127,36.0666379" id="Fill-7" fill="#EA997D"></path>
                <g id="Group-11" transform="translate(60.000000, 0.000000)">
                    <mask id="mask-2" fill="white">
                        <use xlink:href="#path-1"></use>
                    </mask>
                    <g id="Clip-10"></g>
                    <path d="M57.9348481,59.7886358 C57.9348481,59.7886358 56.0404722,66.7983046 51.0049383,63.8151921 C49.9439308,63.1854238 48.5466977,64.4070795 46.6501414,64.8465828 C44.4727429,65.3515166 43.5761414,63.4721126 44.5621414,44.2562185 C45.2520361,30.8197285 33.4985323,26.5658874 32.8016602,21.4080728 C32.8016602,21.4080728 32.4165925,26.6717815 35.8320511,30.5407881 C35.8320511,30.5407881 32.0598707,31.2321126 30.0150436,30.1968477 C27.9178857,29.1366159 26.3558105,25.5848609 25.5712842,22.6030397 C25.5712842,22.6030397 25.9310586,27.3755894 28.9143519,30.5407881 C28.9143519,30.5407881 25.1988632,31.8308874 23.5561113,28.2197285 C23.5561113,28.2197285 24.0004872,30.1968477 24.2625774,30.713404 C24.2625774,30.713404 16.3920211,32.0344967 14.8582917,17.7887351 C14.8582917,17.7887351 9.48304361,24.0330397 7.60393083,37.7256556 C6.65848722,44.6122119 2.09916391,37.3261854 2.09916391,37.3261854 C2.09916391,37.3261854 -1.15406917,25.8160199 0.974923308,17.4714834 C2.39047218,11.9228079 7.07800602,7.79078808 14.1208632,8.27247682 C14.1208632,8.27247682 17.7752992,-2.27861589 31.5810436,0.706218543 C36.7260361,1.81853642 40.1628632,3.39446358 44.6864271,7.55446358 C48.204803,10.7902583 52.3877805,15.7638344 51.877991,27.9782384 C50.9560962,50.0670464 51.6638707,48.9551589 57.9348481,59.7886358" id="Fill-9" fill="#9E3A20" mask="url(#mask-2)"></path>
                </g>
                <path d="M86.4332873,57 C82.8602639,57 80.4350979,55.3235825 80.2841432,55.215942 C79.976213,54.9981381 79.9082619,54.5785081 80.1310382,54.2782919 C80.3533845,53.9780757 80.7830247,53.9103798 81.0900948,54.1281838 C81.3012593,54.2761895 86.0427836,57.5045651 91.9635604,54.0937052 C92.2908438,53.9040728 92.7123126,54.0117133 92.904554,54.3312712 C93.0976555,54.6512496 92.9884177,55.0628906 92.6611343,55.251682 C90.3864928,56.5618693 88.2602256,57 86.4332873,57" id="Fill-12" fill="#CE6565"></path>
                <path d="M102.370914,38.6067153 C102.370914,38.6067153 103.422517,35.6849029 107.559184,36.0280156 C111.556362,36.359991 110.200872,46.0738072 106.68149,47.6749998 C103.163013,49.2749074 102,44.44777 102,44.44777 L102.370914,38.6067153 Z" id="Fill-14" fill="#EA997D"></path>
                <path d="M68.6303993,37.8384982 C66.9884843,35.2467697 65.8266879,34.8348178 63.441495,35.048903 C59.4429225,35.4080287 60.799484,45.9162762 64.3192967,47.6484201 C67.8382036,49.379174 69,44.1572557 69,44.1572557 L68.6303993,37.8384982 Z" id="Fill-16" fill="#EA997D"></path>
                <path d="M23.306166,124.743495 C23.306166,124.743495 17.2596376,127.865924 12.0784669,112.322609 C6.89641811,96.7779966 9.30809259,96.5883912 11.7008881,96.0572364 C14.0936837,95.5260815 20.4932044,98.5589022 25.5404663,110.753387 C29.8273022,121.11069 23.306166,124.743495 23.306166,124.743495" id="Fill-18" fill="#E2CFC3"></path>
                <polygon id="Fill-20" fill="#D87E66" points="3 99.3261656 34.326064 95 37 117.41036 8.72342233 120"></polygon>
                <path d="M39.6775212,90 C39.6775212,90 28.6030468,92.5137121 11,96.4130502 C11,96.4130502 31.4743042,116.550787 22.5814246,125 L45.3367857,120.558404 C51.3224789,112.869301 46.2481569,97.3927379 39.6775212,90" id="Fill-22" fill="#E61933"></path>
                <path d="M143.213052,125.929462 C143.213052,125.929462 149.252755,127.502562 154.511225,115.790989 C161.201956,100.889231 159.065798,94.5623338 156.685395,94.0327925 C154.304556,93.5036825 144.004772,99.3734838 140.164144,111.933703 C136.324391,124.494354 143.213052,125.929462 143.213052,125.929462" id="Fill-24" fill="#E2CFC3"></path>
                <polygon id="Fill-26" fill="#D87E66" points="168 99.3261656 136.674339 95 134 117.41036 162.276214 120"></polygon>
                <path d="M131.178315,90 C131.178315,90 138.353426,91.0540373 156,94.9683524 C156,94.9683524 133.54308,118.518334 142.457066,127 L125.720118,124.030161 C119.720362,116.311092 124.592199,97.4211327 131.178315,90" id="Fill-28" fill="#E61933"></path>
                <path d="M68.1514619,64 C58.3088323,58.3003543 58.3464074,38.1818748 59.547987,36.3702357 C60.996902,33.9643616 66.3932743,44.0387163 69,44.8890423 C68.8934682,45.2574161 68.7861106,45.6244944 68.678753,45.9928682 C63.8270142,44.0287836 61.0559487,35.9236958 60.4023059,37.0430685 C59.6619512,38.1507811 59.2498631,57.5307856 68.6609977,62.980818 C68.4925288,63.3211212 68.3228211,63.6609924 68.1514619,64" id="Fill-30" fill="#DDD0CE"></path>
                <path d="M101.898815,64 C112.335226,58.2871917 111.548489,38.1893432 110.27535,36.3730874 C108.73909,33.9620901 103.763867,43.992618 101,44.8449077 C101.112516,45.2141323 101.22547,45.5820582 101.340175,45.9512828 C106.484391,43.9826624 108.675609,35.9263819 109.368217,37.0479069 C110.15364,38.1577448 111.336591,57.5158457 101.359001,62.9784643 C101.537625,63.3195534 101.717563,63.6602095 101.898815,64" id="Fill-32" fill="#DDD0CE"></path>
                <path d="M103,63.3655929 C89.8239915,66.8594093 81.1816821,66.8775901 68,63.4227958 C69.213729,56.9140717 67.9157678,49.5552847 69.1308062,43.0461171 C79.8985598,45.8694613 91.0647796,45.8539412 101.828605,43 C103.057173,49.5047332 101.772305,56.8608597 103,63.3655929" id="Fill-34" fill="#CBE8EC"></path>
                <path d="M102,45.9405208 C91.1369479,48.6718392 79.8677843,48.6863454 69,45.984454 C69.1277702,45.3383045 69.2555405,44.6904972 69.3824503,44.0435187 C79.9968452,46.6824116 91.0031548,46.6674908 101.613678,44 C101.742308,44.646564 101.870939,45.2935424 102,45.9405208" id="Fill-36" fill="#8FB9BC"></path>
                <path d="M70,50.0739369 C71.6841425,50.2787196 89.565077,52.7975024 102,50 C91.446442,52.6415628 80.559156,52.6666565 70,50.0739369" id="Fill-38" fill="#8FB9BC"></path>
                <path d="M71,55 C73.2453504,55.2829874 87.8070892,57.9797849 101,55.3154548 C89.8003793,57.7833773 82.2057472,57.421426 71,55" id="Fill-40" fill="#8FB9BC"></path>
                <path d="M71,60.0733976 C72.5053664,60.3017912 88.106237,62.51438 102,60 C90.2264962,62.6419031 82.7809757,62.6665057 71,60.0733976" id="Fill-42" fill="#8FB9BC"></path>
                <path d="M101.901378,62.7245723 C89.5208332,65.7869824 81.4190426,65.7582821 69.0455024,62.638023 C68.932558,62.6093227 69.0630132,62.5779318 69.0827128,62.4689604 C70.0510577,56.9849638 68.4982912,50.6399587 69.4666362,45.1564105 C69.4863358,45.0469907 69.5905248,44.9810697 69.6863962,45.0048371 C69.7822676,45.029053 69.8566883,45.1389213 69.8369887,45.2487895 C68.9054163,50.6543088 70.4945177,56.9208366 69.5633831,62.3277012 C81.6431804,65.2990775 89.4240862,65.3170152 101.508699,62.3815142 C100.588509,56.9724074 101.829146,50.703189 100.90808,45.2940822 C100.889256,45.1846624 100.963677,45.0747941 101.059548,45.0510266 C101.155419,45.0272592 101.259171,45.0936286 101.279308,45.2034969 C102.236271,50.6906326 101.031969,57.0374315 101.988932,62.5241188 C102.007756,62.633987 102.015635,62.6967689 101.901378,62.7245723" id="Fill-44" fill="#8FB9BC"></path>
                <path d="M31.4178446,49.9246077 C29.4429497,43.925835 35.0238145,31.0046837 36.5969325,29.7856485 C38.0175321,28.6852294 41.1855564,28.7314319 41.7520532,29.9833419 C41.7520532,29.9833419 46.4975531,28.5599495 47.1128558,29.7154563 C47.1128558,29.7154563 51.0317062,28.607929 51.5986387,30.0042219 L52.1302742,31.9300665 C52.1302742,31.9300665 53.6768104,31.3041115 54.101683,31.3041115 C54.5261198,31.3041115 60.1937022,32.7004044 60.6652018,33.0375938 C61.1384445,33.3743389 61.1384445,35.8777148 58.3521519,35.7337762 L54.8102397,35.2473172 L52.6375067,36.8888387 C52.6375067,36.8888387 50.4181466,41.1732321 50.3710838,42.1363766 C50.3231494,43.099521 54.0533128,41.8960347 54.29037,41.7512076 C54.5261198,41.6072691 56.6047272,36.6480526 59.7217668,36.1185009 C59.7217668,36.1185009 61.4203856,36.0709656 60.9013874,37.46637 C60.3828249,38.8631071 58.3521519,44.206604 58.0214049,44.5917729 C57.6906579,44.9773861 50.4726174,50.3199945 49.1387354,51.2076156 C47.7978811,52.0996792 45.9249556,52.8247031 45.9249556,52.8247031 C45.9249556,52.8247031 35.2717658,61.6249467 31.4178446,49.9246077" id="Fill-46" fill="#EA997D"></path>
                <path d="M39.733609,42 C39.4548555,42 39.0470855,41.9034792 38.6361879,41.4595724 C37.8859382,40.6478191 37.7924991,39.5785287 38.3918387,38.6684753 C38.8836648,37.9229967 39.8810004,36.7923243 40.1933764,36.443604 L38.9700667,32.9190377 C38.9305798,32.804725 38.9798406,32.6752893 39.080708,32.6299201 C39.1807934,32.5841061 39.2953443,32.6405952 39.3352221,32.7553527 L40.6550987,36.5565823 L40.5604867,36.6602198 C40.5471941,36.6744533 39.2625038,38.0933537 38.7065605,38.9366875 C38.228027,39.6617056 38.3034821,40.4832444 38.9067314,41.1353159 C39.3707993,41.6370462 39.8075002,41.5623204 39.9259607,41.5307399 C41.3517871,40.1331897 43.4844668,37.8149111 43.5994087,37.0654293 C43.7303798,36.2069723 42.5805703,32.6156866 42.1270582,31.3053166 C42.0875714,31.1901143 42.1364412,31.0606786 42.2373085,31.0153093 C42.3381759,30.9708297 42.4527268,31.0264292 42.4922136,31.1411867 C42.6638445,31.6358002 44.1592615,36.0041452 43.9860668,37.1419343 C43.8097444,38.2961808 40.5237365,41.5356326 40.1491981,41.9003656 L40.0878176,41.9417317 C40.0756979,41.9461796 39.9400352,42 39.733609,42" id="Fill-48" fill="#D87E66"></path>
                <path d="M37.1946042,35 C37.0939657,35 37.0091971,34.8740847 37.0006816,34.7074696 C36.9917789,34.5313154 37.0711285,34.376783 37.1779601,34.3634284 L39.7887547,34.000945 C39.8948122,33.9875904 39.9904187,34.1173213 39.9993214,34.2922036 C40.008224,34.4683578 39.9284874,34.6228901 39.8216557,34.6375167 L37.2108612,34.9987281 C37.2050551,35 37.1996361,35 37.1946042,35" id="Fill-50" fill="#D87E66"></path>
                <path d="M44.9516178,43 C44.4553611,43 43.8506261,42.7310516 43.5118914,42.2169394 C43.0775628,41.5550886 43.0031659,40.5584245 43.0006721,40.5168015 C42.9915283,40.3896457 43.0767316,40.2798708 43.1922754,40.2698081 C43.3090662,40.2547141 43.4075694,40.3544262 43.4167131,40.4806673 C43.4171288,40.4902726 43.4852913,41.3917985 43.8506261,41.9475337 C44.2093108,42.4927487 44.9761397,42.655124 45.265415,42.4689642 C45.634906,42.2311187 48.9927438,38.4521197 49.5056256,37.2537443 C49.9162635,36.2922996 48.7155216,32.642286 48.2184336,31.3172122 C48.1743773,31.200119 48.224668,31.0656448 48.3310681,31.0171609 C48.4374682,30.9695918 48.5600777,31.0240218 48.6037184,31.1420298 C48.7940748,31.6483663 50.4470171,36.1312965 49.8834291,37.449052 C49.3260754,38.7507987 45.9295844,42.5741651 45.4761371,42.8655258 C45.3356557,42.9551753 45.1523649,43 44.9516178,43" id="Fill-52" fill="#D87E66"></path>
                <path d="M48.8424212,42 C48.7504974,42 48.6542338,41.9894526 48.5559975,41.9667352 C48.0963783,41.8608559 47.455673,41.440584 47.0098621,40.0381901 C46.9759331,39.9306881 47.0323499,39.8158841 47.1361095,39.7809966 C47.2402635,39.7457035 47.3527026,39.8045254 47.385448,39.9108104 C47.6931759,40.8775169 48.1279401,41.4507257 48.6423981,41.5695864 C49.0258744,41.659239 49.3513558,41.4677637 49.4480139,41.3618844 C49.7955887,40.9846133 51.0513552,39.4211692 51.0639799,39.4053482 C52.1067041,38.1230319 52.43258,37.2062225 52.4357362,37.1972978 C52.8417003,35.6537315 52.3848428,33.2679986 52.3801085,33.2440642 C52.3584097,33.1341282 52.4282403,33.0262205 52.5355505,33.0043145 C52.6420717,32.9811914 52.7466203,33.0534003 52.7691081,33.163742 C52.7884397,33.2655646 53.248848,35.6671185 52.8132947,37.3185925 C52.7959357,37.3725463 52.4621693,38.3226205 51.3685517,39.6653813 C51.3172637,39.7294768 50.0934535,41.2543824 49.7364102,41.6422009 C49.5872805,41.8040624 49.2503579,42 48.8424212,42" id="Fill-54" fill="#D87E66"></path>
                <path d="M39.1822333,48 C39.140126,48 39.0980186,47.9843572 39.0638972,47.9522895 C38.9873053,47.8818971 38.9782305,47.7579281 39.0439325,47.6761946 C40.9071826,45.3344715 40.6175131,42.2485436 40.6142461,42.2180402 C40.6033563,42.1093229 40.6755922,42.0127288 40.7757786,42.0013878 C40.8770541,41.9884825 40.9659877,42.0670874 40.9765145,42.1746315 C40.9903083,42.3079861 41.2857857,45.4619601 39.3212602,47.9315629 C39.2842347,47.9769269 39.2337785,48 39.1822333,48" id="Fill-56" fill="#D87E66"></path>
                <g id="Group-60" transform="translate(0.000000, 47.000000)">
                    <mask id="mask-4" fill="white">
                        <use xlink:href="#path-3"></use>
                    </mask>
                    <g id="Clip-59"></g>
                    <path d="M39.6765591,6.72373195 C39.6765591,6.72373195 30.3294624,54.4130337 18.683871,67.5737675 C18.683871,67.5737675 12.1113979,74.3178444 5.71741936,72.6129272 C-0.677419354,70.9093059 -1.00645161,58.5926077 1.32430108,52.8433178 C3.65634409,47.0944598 25.1643011,12.2967852 31.9810753,0.180513018 C31.9810753,0.180513018 38.3969892,2.18822899 39.6765591,6.72373195" id="Fill-58" fill="#EA997D" mask="url(#mask-4)"></path>
                </g>
                <path d="M139.581984,49.9246077 C141.557342,43.925835 135.976399,31.0046837 134.403259,29.7856485 C132.983075,28.6852294 129.814571,28.7314319 129.248066,29.9833419 C129.248066,29.9833419 124.502499,28.5599495 123.887188,29.7154563 C123.887188,29.7154563 119.968283,28.607929 119.400906,30.0042219 L118.869699,31.9300665 C118.869699,31.9300665 117.323577,31.3041115 116.898698,31.3041115 C116.47382,31.3041115 110.806594,32.7004044 110.33378,33.0375938 C109.861838,33.3743389 109.861838,35.8777148 112.647298,35.7337762 L116.189696,35.2473172 L118.362895,36.8888387 C118.362895,36.8888387 120.581851,41.1732321 120.628914,42.1363766 C120.676414,43.099521 116.946633,41.8960347 116.710009,41.7512076 C116.47382,41.6072691 114.395619,36.6480526 111.278536,36.1185009 C111.278536,36.1185009 109.579893,36.0709656 110.098463,37.46637 C110.617032,38.8631071 112.647298,44.206604 112.978486,44.5917729 C113.309673,44.9773861 120.527815,50.3199945 121.861716,51.2076156 C123.201717,52.0996792 125.074669,52.8247031 125.074669,52.8247031 C125.074669,52.8247031 135.728444,61.6249467 139.581984,49.9246077" id="Fill-61" fill="#EA997D"></path>
                <path d="M130.266172,42 C130.54493,42 130.952705,41.9034792 131.363999,41.4595724 C132.113868,40.6478191 132.2077,39.5785287 131.607961,38.6684753 C131.116519,37.9229967 130.118779,36.7923243 129.806399,36.443604 L131.029725,32.9190377 C131.069603,32.804725 131.019951,32.6752893 130.919082,32.6299201 C130.818996,32.5841061 130.704443,32.6405952 130.664565,32.7553527 L129.345061,36.5565823 L129.439284,36.6602198 C129.452576,36.6744533 130.737675,38.0933537 131.293235,38.9366875 C131.771384,39.6617056 131.696319,40.4832444 131.09267,41.1353159 C130.628987,41.6370462 130.192671,41.5623204 130.074209,41.5307399 C128.647973,40.1331897 126.515264,37.8149111 126.400321,37.0654293 C126.269348,36.2069723 127.419173,32.6156866 127.872691,31.3053166 C127.912178,31.1901143 127.863308,31.0606786 127.762439,31.0153093 C127.661179,30.9708297 127.546627,31.0264292 127.506749,31.1411867 C127.336288,31.6358002 125.840069,36.0041452 126.014048,37.1419343 C126.189591,38.2961808 129.476034,41.5356326 129.850187,41.9003656 L129.911959,41.9417317 C129.92447,41.9461796 130.060134,42 130.266172,42" id="Fill-63" fill="#D87E66"></path>
                <path d="M133.805396,35 C133.906034,35 133.990803,34.8740847 133.999318,34.7074696 C134.008221,34.5313154 133.928871,34.376783 133.82204,34.3634284 L131.211245,34.000945 C131.105575,33.9875904 131.009581,34.1173213 131.000679,34.2922036 C130.991776,34.4683578 131.071513,34.6228901 131.178344,34.6375167 L133.789139,34.9987281 C133.794945,35 133.800364,35 133.805396,35" id="Fill-65" fill="#D87E66"></path>
                <path d="M126.048434,43 C126.544678,43 127.148567,42.7310516 127.487293,42.2169394 C127.922442,41.5550886 127.996421,40.5584245 127.999331,40.5168015 C128.008474,40.3896457 127.922858,40.2798708 127.807732,40.2698081 C127.690944,40.2547141 127.592028,40.3544262 127.582885,40.4806673 C127.582885,40.4902726 127.514308,41.3917985 127.148567,41.9475337 C126.790307,42.4927487 126.023497,42.655124 125.734229,42.4689642 C125.365163,42.2311187 122.006577,38.4521197 121.494124,37.2537443 C121.083081,36.2922996 122.283793,32.642286 122.7817,31.3172122 C122.825339,31.200119 122.77505,31.0656448 122.668237,31.0171609 C122.562255,30.9695918 122.439648,31.0240218 122.396009,31.1420298 C122.205241,31.6483663 120.552756,36.1312965 121.116746,37.449052 C121.67367,38.7507987 125.070492,42.5741651 125.523512,42.8655258 C125.66399,42.9551753 125.847692,43 126.048434,43" id="Fill-67" fill="#D87E66"></path>
                <path d="M122.157942,42 C122.25026,42 122.345734,41.9894526 122.443969,41.9667352 C122.903587,41.8608559 123.544289,41.440584 123.990098,40.0381901 C124.024027,39.9306881 123.968005,39.8158841 123.864246,39.7809966 C123.759698,39.7457035 123.647259,39.8045254 123.614119,39.9108104 C123.306393,40.8775169 122.872419,41.4507257 122.357569,41.5695864 C121.974489,41.659239 121.649009,41.4677637 121.551957,41.3618844 C121.203989,40.9846133 119.948229,39.4211692 119.935998,39.4053482 C118.893279,38.1230319 118.566616,37.2062225 118.564248,37.1972978 C118.158681,35.6537315 118.615142,33.2679986 118.62027,33.2440642 C118.641969,33.1341282 118.571744,33.0262205 118.464435,33.0043145 C118.357914,32.9811914 118.253366,33.0534003 118.231273,33.163742 C118.211546,33.2655646 117.75114,35.6671185 118.186692,37.3185925 C118.204445,37.3725463 118.537421,38.3226205 119.631428,39.6653813 C119.68311,39.7294768 120.90731,41.2543824 121.263957,41.6422009 C121.412691,41.8040624 121.749612,42 122.157942,42" id="Fill-69" fill="#D87E66"></path>
                <path d="M131.817676,48 C131.85942,48 131.901889,47.9843572 131.936373,47.9522895 C132.012601,47.8818971 132.021676,47.7579281 131.956338,47.6761946 C130.093119,45.3344715 130.382421,42.2485436 130.386051,42.2180402 C130.396577,42.1093229 130.324343,42.0127288 130.224158,42.0013878 C130.12361,41.9884825 130.034315,42.0670874 130.023426,42.1746315 C130.009632,42.3079861 129.714523,45.4619601 131.679378,47.9315629 C131.715677,47.9769269 131.766132,48 131.817676,48" id="Fill-71" fill="#D87E66"></path>
                <g id="Group-75" transform="translate(131.000000, 47.000000)">
                    <mask id="mask-6" fill="white">
                        <use xlink:href="#path-5"></use>
                    </mask>
                    <g id="Clip-74"></g>
                    <path d="M0.123913978,6.72373195 C0.123913978,6.72373195 9.47101075,54.4130337 21.1166022,67.5737675 C21.1166022,67.5737675 27.6890753,74.3178444 34.0830538,72.6129272 C40.4778925,70.9093059 40.8069247,58.5926077 38.476172,52.8433178 C36.1445591,47.0944598 14.6366022,12.2967852 7.81939785,0.180513018 C7.81939785,0.180513018 1.40348387,2.18822899 0.123913978,6.72373195" id="Fill-73" fill="#EA997D" mask="url(#mask-6)"></path>
                </g>
                <path d="M63.5482399,83.4792162 C63.5482399,83.4792162 71.2889191,93.3814179 83.9956039,94.0324367 C93.8359657,94.5365076 102.847574,88.5626574 107.188974,83 C107.188974,83 119.453049,86.3580015 131,89.4757408 C131,89.4757408 126.217728,120.465198 125.266485,125.693407 C123.653283,134.556071 119.721047,162.982005 121.363786,175.803544 C121.37812,175.912556 121.392454,176.021568 121.406787,176.131452 C124.300475,197.753301 107.6103,217 85.879411,217 L84.0325243,217 C63.1399442,217 46.6452304,199.1347 48.2814539,178.224916 C48.3031718,177.944537 48.3218491,177.676368 48.3379203,177.42128 C48.7892174,170.216032 49.4529152,137.905352 47.5413093,126.27335 C46.6017947,120.554587 41.9116059,94.6930486 40,89.4168744 L63.5482399,83.4792162 Z" id="Fill-76" fill="#E61933"></path>
                <path d="M126.887648,123 C127.643394,118.694352 128.909989,111.348335 130,105.008604 C129.680773,105.005593 129.361547,105.003012 129.04189,105 C127.978518,111.187863 126.753598,118.295968 126,122.593011 C126.307626,122.696264 126.604941,122.834365 126.887648,123" id="Fill-78" fill="#AF1731"></path>
                <path d="M46.7164241,119.775131 C46.8087318,119.748288 46.9039501,119.729806 47,119.710443 C46.1288981,115.008004 44.9891892,109.166699 43.8972973,104 C43.5962578,104.052367 43.2964657,104.109574 43,104.176022 C44.0989605,109.374845 45.2490644,115.275118 46.1226611,120 C46.3101871,119.914629 46.5056133,119.836739 46.7164241,119.775131" id="Fill-80" fill="#AF1731"></path>
            </g>
        </g>
    </g>
</svg>