<?xml version="1.0" encoding="UTF-8"?>
<svg width="255px" height="272px" viewBox="0 0 255 272" version="1.1" xmlns="http://www.w3.org/2000/svg" xmlns:xlink="http://www.w3.org/1999/xlink">
    <!-- Generator: Sketch 59.1 (86144) - https://sketch.com -->
    <title>Group 61</title>
    <desc>Created with Sketch.</desc>
    <defs>
        <polygon id="path-1" points="0.000105683837 0.0511358792 254.972069 0.0511358792 254.972069 254.999955 0.000105683837 254.999955"></polygon>
        <polygon id="path-3" points="0.00573791235 0.121226966 118.881516 0.121226966 118.881516 162 0.00573791235 162"></polygon>
    </defs>
    <g id="Page-1" stroke="none" stroke-width="1" fill="none" fill-rule="evenodd">
        <g id="Extra-large:-Desktops---12-col" transform="translate(-640.000000, -596.000000)">
            <g id="Group-61" transform="translate(640.000000, 596.000000)">
                <g id="Group-3" transform="translate(0.000000, 17.000000)">
                    <mask id="mask-2" fill="white">
                        <use xlink:href="#path-1"></use>
                    </mask>
                    <g id="Clip-2"></g>
                    <path d="M254.972175,127.525772 C254.972175,174.670425 229.368303,215.842131 191.321518,237.868756 C190.337601,238.44745 189.331038,239.014972 188.323871,239.559395 C188.265594,239.593667 188.207921,239.628241 188.150248,239.65134 C187.825949,239.836891 187.513427,240.010363 187.189431,240.172512 C184.758552,241.468951 182.29325,242.684164 179.769821,243.807131 C178.740008,244.270026 177.709742,244.721598 176.668152,245.149466 C161.551287,251.504386 144.929786,254.999955 127.474893,254.999955 C126.664298,254.999955 125.853853,254.988179 125.032086,254.976855 L123.411651,254.953605 C122.879306,254.918578 122.346962,254.907406 121.814466,254.884155 C120.298054,254.803232 118.770319,254.721855 117.265381,254.60666 C116.617086,254.548383 115.968942,254.49071 115.309173,254.432583 C114.661029,254.362983 114.012734,254.317388 113.364591,254.236012 C112.843871,254.166411 112.29975,254.120061 111.755932,254.039289 C111.16531,253.969688 110.586615,253.888916 109.996598,253.819315 C104.810994,253.113498 99.7176368,252.083081 94.7637824,250.752068 C94.1506652,250.601091 93.536944,250.42777 92.9235249,250.266074 C92.3911803,250.103774 91.8355853,249.941624 91.3032407,249.791251 C89.7287025,249.328507 88.1777167,248.830585 86.6499813,248.309413 C86.0362602,248.124617 85.422992,247.904795 84.8092709,247.684369 C83.5591821,247.244573 82.3327966,246.781829 81.0938801,246.307006 C80.5965622,246.110283 80.0867131,245.901633 79.577468,245.693738 C79.126349,245.508338 78.6861004,245.322939 78.2695551,245.149466 C77.5750613,244.871971 76.903667,244.582548 76.2094751,244.270026 C75.6307806,244.026953 75.0520861,243.749004 74.4614645,243.482832 C74.1839689,243.355559 73.8945462,243.216509 73.6051234,243.089386 C73.5702478,243.077459 73.5237469,243.05436 73.4891732,243.031864 C72.6556297,242.637814 71.8340133,242.255692 71.012095,241.827974 C70.3757274,241.526624 69.7387558,241.202779 69.1023881,240.85523 C69.0791377,240.85523 69.0678144,240.85523 69.0560382,240.843907 C68.8593153,240.739431 68.6508162,240.647335 68.4540933,240.531385 C68.3846439,240.496358 68.3269707,240.461784 68.2573703,240.427512 C61.590532,236.919866 55.2587114,232.845452 49.3443419,228.238694 C19.3302833,204.938578 0.000105683837,168.488978 0.000105683837,127.525772 C0.000105683837,69.1766687 39.2042798,19.9945817 92.6919263,4.84314298 C93.536944,4.6115444 94.3704876,4.38024778 95.2155053,4.1604254 C105.528738,1.47469716 116.327814,0.0511358792 127.474893,0.0511358792 C137.417477,0.0511358792 147.082566,1.1854254 156.353756,3.33865808 C156.9788,3.48903108 157.592068,3.63940409 158.20579,3.78977709 C213.776766,17.5179565 254.972175,67.7066066 254.972175,127.525772" id="Fill-1" fill="#EEF6F7" mask="url(#mask-2)"></path>
                </g>
                <path d="M82.6330721,37.1985624 C79.0024224,41.1078114 74.0201368,43.8820637 71.5979981,48.6312405 C67.5430903,56.5818028 72.2796102,66.5184585 69.6762701,75.058555 C68.5305175,78.8174773 66.0510384,81.9909405 63.8230439,85.224625 C60.5486265,89.9765186 57.6626483,95.2308597 57.0889443,100.978139 C56.5150897,106.725419 58.7190042,113.052725 63.6729959,115.999038 C65.8751045,117.308812 68.654228,118.050635 69.9181227,120.283651 C70.6937971,121.65425 70.7127601,123.306334 70.9558167,124.863333 C71.759484,130.012928 75.5728401,134.400777 80.2830226,136.437433 C82.5301305,137.409274 85.1075847,137.193292 87.2497945,138.208601 C89.3918537,139.224061 91.0718795,141.16563 93.3704582,142.133849 C102.289509,145.891413 112.670663,143.474715 121.99215,146.070265 C129.474383,148.153709 135.746148,153.314021 143.051393,155.954096 C147.852327,157.689192 152.533012,157.857479 157.560898,157.727679 C161.10772,157.635913 164.369495,158.372756 167.959209,157.742621 C175.574032,156.406132 182.691002,152.117746 187.267842,145.845228 C193.180817,137.741924 194.660979,126.582279 191.065847,117.210556 C190.333968,115.302343 189.398313,113.430956 189.177229,111.398678 C188.718356,107.181531 191.36203,103.344276 192.782896,99.3483927 C194.82999,93.5908496 194.270433,86.9565517 191.287985,81.6256889 C188.353395,76.3801018 183.150929,72.1591814 182.270507,66.2095039 C181.689278,62.2816904 183.149725,58.3513111 183.303987,54.3835011 C183.501291,49.3132952 181.437492,44.1964517 177.780655,40.6895832 C176.190478,39.1645822 174.323833,37.9360085 172.841864,36.3052052 C170.346733,33.5599316 169.200529,29.9735227 168.094659,26.5069526 C167.133418,23.4940794 165.682302,20.8508348 164.630913,17.9028616 C162.37929,11.5903474 157.582119,6.53900776 151.602323,3.59631718 C144.579716,0.140463137 136.455904,-0.49102978 128.674478,0.311014522 C121.714328,1.02838685 114.188752,3.32645357 110.53056,9.30782648 C110.281935,9.71458399 110.035869,10.1533387 109.625005,10.3939219 C109.05702,10.7264216 108.346512,10.5907351 107.694849,10.5018371 C103.013562,9.86340139 98.3337809,12.2890043 95.0823899,15.7262939 C89.4442275,21.6866875 88.5905944,29.9176785 83.5896469,36.0982796 C83.2839824,36.4760584 82.964171,36.8420647 82.6330721,37.1985624" id="Fill-4" fill="#433323"></path>
                <path d="M177.106072,164.501061 C177.106072,164.501061 216.736146,188.681013 228.935805,172.317218 C243.164928,153.231817 224.588076,143.504463 207.987532,131.223382 C191.386989,118.942302 170.043455,113 170.043455,113 C170.043455,113 164.99531,158.908181 177.106072,164.501061" id="Fill-6" fill="#D4343C"></path>
                <path d="M142,110.344467 C141.209874,123.712899 137.425586,146.027595 129.334073,146 C121.084236,145.971903 113,110.40181 113,110.40181 L113.670419,98.8069591 L114.179248,90 L140.508563,90 L141.209874,100.413615 L142,110.344467 Z" id="Fill-8" fill="#FFB69E"></path>
                <path d="M142,101.105948 C138.575238,103.525035 134.312707,105 128.983638,105 C122.596788,105 117.722391,102.876051 114,99.546637 L114.517338,91 L141.286961,91 L142,101.105948 Z" id="Fill-10" fill="#F68A73"></path>
                <path d="M156.164354,67.0773949 C156.094333,67.6247601 156.015844,68.1374363 155.910586,68.6152734 C155.280402,72.0036818 155.17575,75.0274803 154.072966,78.3116715 C154.064043,78.3290911 154.064043,78.3376507 154.055574,78.3552205 C153.653145,79.5367485 153.21548,80.7184266 152.725488,81.8739754 C151.832916,83.993908 150.756598,86.0446129 149.40912,87.8951428 L148.85788,88.668512 C144.377781,94.1336044 137.920324,98 128.443973,98 C119.334964,98 112.982613,94.4289864 108.546523,89.2854053 C108.467429,89.1723282 108.397257,89.1028001 108.327842,88.9898732 C107.163808,87.5997608 106.131196,86.0967215 105.221233,84.524154 C104.459779,83.2293988 103.786041,81.8913949 103.191396,80.5272617 C101.449808,76.5739184 100.330086,72.4208506 99.62111,68.6152734 C99.1837469,66.1302804 99,63.2197091 99,60.1178228 C99,55.191536 99.4373631,49.7958215 100.02369,44.9476224 C100.907187,39.5954569 101.125869,35.7637503 103.217408,33.3223063 C105.387286,30.7677852 110.383539,30.6984072 113.761458,30.9502402 C116.360078,31.1326953 118.827732,32.2622649 121.356331,32.8791582 C126.501246,34.1563437 131.856524,33.3223063 136.922797,31.8278266 C139.828116,30.9849292 142.767916,29.9337478 145.812974,30.0032759 C149.741528,30.0726539 154.440459,31.6453715 155.910586,38.0574283 C155.910586,38.0922674 155.910586,38.1705054 155.945672,38.1705054 C157.153109,46.1205908 157.450431,58.6928712 156.164354,67.0773949" id="Fill-12" fill="#FFB69E"></path>
                <path d="M129.999943,67.9758331 C130.031196,67.9758331 130.031196,68.0241669 129.999943,68.0241669 C129.968842,68.0241669 129.968842,67.9758331 129.999943,67.9758331" id="Fill-14" fill="#594E8A"></path>
                <path d="M134.501385,78.0868371 C132.597063,77.9021924 130.746977,78.4002675 128.821521,78.3057371 C126.638777,78.1987936 124.85002,77.5424517 122.803827,77.0213408 C122.220234,76.8726225 121.710533,77.5381548 122.19053,77.8728307 C125.077753,79.8843474 131.780714,81.0085671 134.848378,78.7632309 C135.196849,78.5078078 134.886802,78.1243151 134.501385,78.0868371" id="Fill-16" fill="#F68A73"></path>
                <path d="M112.476482,30.5433452 C115.964245,34.4747384 121.475171,36.032247 126.748671,36.4735956 C132.02202,36.9147955 137.362517,36.4368661 142.598829,37.1955456 C147.253095,37.8700596 151.758612,39.5288345 155.724239,42.0279264 C156.493275,42.5126962 157.269839,43.0401435 158.165944,43.2104077 C160.029517,43.564468 161.905587,42.1818334 162.593775,40.4350267 C163.281812,38.68822 163.008555,36.7083967 162.42169,34.9259014 C160.704607,29.710612 156.437569,25.5667231 151.493786,23.0704565 C146.549851,20.5740411 140.962293,19.576843 135.424117,19.1847149 C125.448023,18.4783787 115.126405,19.7191512 106.25072,24.2728638 C97.3753355,28.8265764 90.1170654,36.9918234 88.1783651,46.6835002 C86.4998243,55.0836969 97.1772047,45.0566963 98.9030199,43.5606017 C100.128239,42.4984207 112.895929,31.0163675 112.476482,30.5433452" id="Fill-18" fill="#433323"></path>
                <g id="Group-22" transform="translate(68.000000, 110.000000)">
                    <mask id="mask-4" fill="white">
                        <use xlink:href="#path-3"></use>
                    </mask>
                    <g id="Clip-21"></g>
                    <path d="M111.329678,79.3860978 C106.8263,89.4451146 106.547422,101.190873 108.300325,111.796867 C109.948612,121.692974 111.028241,131.682367 111.538912,141.695424 C111.689706,144.707289 111.793869,147.730834 111.840348,150.754682 C110.807804,151.219598 109.774654,151.67344 108.729997,152.103317 C93.5708204,158.487907 76.9027962,162.00003 59.3990468,162.00003 C58.5863344,162.00003 57.7736219,161.988199 56.9494031,161.976671 L55.3245837,161.953463 C54.7907491,161.918272 54.2567631,161.906896 53.7229285,161.883536 C52.202272,161.802384 50.6702606,161.720626 49.160959,161.604738 C48.5108496,161.546188 47.8608916,161.488396 47.1994272,161.429997 C46.5493178,161.36007 45.8992084,161.314109 45.2492504,161.232351 C44.7272249,161.162424 44.1814298,161.116008 43.6362402,161.034704 C43.0439654,160.964778 42.4636511,160.883626 41.8719819,160.813699 C36.6718636,160.104721 31.5642504,159.069317 26.5965303,157.73221 C25.9815455,157.580525 25.3661066,157.406238 24.7511219,157.243783 C24.2171359,157.080873 23.6599858,156.917963 23.1261511,156.766884 C21.5472059,156.301817 19.9920303,155.801558 18.4600188,155.27794 C17.8444285,155.092429 17.2295952,154.871575 16.6140048,154.650115 C15.360417,154.208103 14.130599,153.743188 12.8882148,153.266289 C12.3895048,153.068643 11.8782288,152.859013 11.3675583,152.650143 C10.915328,152.463721 10.4738471,152.277603 10.0561359,152.103317 C9.35954682,151.824519 8.68627328,151.533738 7.99013842,151.219598 C7.40982417,150.975536 6.82950992,150.696131 6.23723511,150.42871 C6.17955191,149.882491 6.13292087,149.347648 6.10975674,148.800671 C5.78439924,141.334867 5.23920967,132.927098 5.86600356,125.600238 C6.56259262,117.425154 7.10778219,109.935991 6.04011298,101.679148 C4.50795013,89.7706315 1.39714478,78.0952551 0.259680407,66.1289461 C-0.77362112,55.3832494 1.61758244,44.4750978 2.5810888,33.6834404 C3.2080341,26.6359854 3.8925112,19.4489798 6.24904427,12.738873 C9.02298575,4.85456966 10.9851232,3.00522135 18.8663751,2.34250787 C18.8663751,2.34250787 39.7357351,0.574766292 39.7475443,0.574766292 C39.7475443,0.574766292 42.5797746,0.318721348 42.5911295,0.318721348 L58.3539361,2.86597416 L61.3605786,3.34241798 L73.849674,0.121226966 L75.5444399,0.260777528 L78.3073293,0.504991011 L80.0019438,0.644693258 C86.4903204,1.20289551 93.1989832,0.79577191 99.5252109,2.59809775 C105.502917,4.29591236 106.629026,8.09912022 107.441133,13.9365809 C108.160887,19.1469742 109.368146,24.2869854 110.564051,29.4036371 C113.651238,42.5797888 122.519311,53.2669348 117.238194,67.4774292 C115.694374,71.6293618 113.140567,75.3271483 111.329678,79.3860978" id="Fill-20" fill="#D4343C" mask="url(#mask-4)"></path>
                </g>
                <path d="M144,111.340392 C124.277645,124.04098 111,111.397723 111,111.397723 L111.762651,99.8051949 L112.341574,91 L142.302946,91 L143.100766,101.411529 L144,111.340392 Z" id="Fill-23" fill="#F68A73"></path>
                <path d="M143,101.105948 C139.208394,103.525035 134.488867,105 128.588747,105 C121.517779,105 116.121057,102.876051 112,99.546637 L112.572677,91 L142.210638,91 L143,101.105948 Z" id="Fill-25" fill="#F68A73"></path>
                <path d="M130,67.9758331 C130.031252,67.9758331 130.031252,68.0241669 130,68.0241669 C129.968748,68.0241669 129.968748,67.9758331 130,67.9758331" id="Fill-27" fill="#594E8A"></path>
                <path d="M134.501461,77.0868371 C132.596979,76.9021924 130.747029,77.4001481 128.821562,77.3057371 C126.638805,77.1987936 124.84989,76.5424517 122.803832,76.0213408 C122.220236,75.8726225 121.710532,76.5381548 122.190531,76.8728307 C125.077623,78.8843474 131.780625,80.0085671 134.848308,77.7632309 C135.196928,77.5078078 134.886731,77.1243151 134.501461,77.0868371" id="Fill-29" fill="#F68A73"></path>
                <path d="M106.099286,70.7006037 C104.224085,67.1596597 101.524786,62.1212612 99.1586354,58.9088584 C98.6344282,58.1988597 98.061395,57.4977571 97.4306198,56.8943579 C97.0387381,56.5194958 92.1218895,54.9393691 94.7892041,54.0658667 C95.9698026,53.6796544 97.6052611,55.0855407 98.3969499,55.8470753 C101.96705,59.2815732 104.570962,65.275226 106.872011,69.6680457 C107.305784,70.4932332 106.533059,71.5168951 106.099286,70.7006037" id="Fill-31" fill="#FFFFFF"></path>
                <path d="M99.789641,59.3312902 C99.789641,59.3312902 96.0770173,52.5048119 91.4467096,55.9920766 C87.8404151,58.7083026 90.8378865,75.3810635 102,74.9933453 L99.789641,59.3312902 Z" id="Fill-33" fill="#FFB69E"></path>
                <path d="M149.40874,68.6603149 C151.508731,65.2930612 153.12295,61.5879881 155.772584,58.5328818 C156.289102,57.9389266 156.969975,56.975062 157.725496,56.627324 C158.371183,56.3303464 158.94777,56.5888161 159.541156,56.3970059 C160.325363,56.1436414 161.675063,55.0305587 160.601294,54.2052643 C159.604076,53.4388987 157.35146,55.0219528 156.625576,55.621305 C152.627669,58.8873296 150.683474,63.7823552 148.106746,67.9597336 C147.620975,68.7446238 148.922969,69.4367451 149.40874,68.6603149" id="Fill-35" fill="#FFFFFF"></path>
                <path d="M151,83.961784 C150.108005,86.0830964 149.929424,86.0164433 148.579949,87.8712939 L148.033784,88.6485618 C143.561419,94.1240423 137.103972,98 127.635889,98 C118.535393,98 112.189747,94.4127719 107.762405,89.2594227 C107.684144,89.1483845 107.617063,89.081581 107.539255,88.9708436 C106.780667,88.0488348 106.133728,87.3270861 105.520633,86.4828642 L105,68.5637254 C107.977548,67.4419079 121.546783,61.8158186 128.617326,62.0046439 C136.635765,62.2267204 149.940756,67.8798922 149.940756,67.8798922 L151,83.961784 Z" id="Fill-37" fill="#FFFFFF"></path>
                <path d="M156.336456,57.2838276 C156.336456,57.2838276 159.923073,51.5778905 164.553332,55.208872 C168.159589,58.0368861 165.161995,75.3969153 154,74.9930659 L156.336456,57.2838276 Z" id="Fill-39" fill="#FFB69E"></path>
                <path d="M139.554404,66.0363272 C136.98969,65.803509 135.145289,65.2634653 132.746447,64.5139294 C131.182338,64.0252622 129.815126,63.8839768 128.167467,64.0947976 C124.372692,64.5802169 121.114696,66.0829795 117.199203,66.0161014 C116.949934,66.0118201 116.938108,66.3301181 117.144066,66.4082163 C120.404212,67.6385948 123.896118,65.9440562 127.108346,65.3381679 C131.657376,64.4796784 135.19843,67.6205835 139.674507,66.8883208 C140.210826,66.8004788 140.023145,66.0788457 139.554404,66.0363272" id="Fill-41" fill="#CCCECE"></path>
                <path d="M149.018656,100.9436 C148.258658,100.041469 147.480882,99.160764 146.676062,98.3122724 C144.417642,95.9314614 141.067086,94.2211431 139.613334,91.1680414 C138.062798,87.9114695 139.27208,83.8762271 137.745549,80.6085677 C136.710997,78.3940689 134.404565,76.8114064 131.939508,76.6242677 C130.276841,76.4981102 128.208952,76.7871338 127.312969,75.4003001 C126.767052,74.5557041 126.984477,73.3939162 127.586307,72.5872274 C128.188289,71.7806883 129.100378,71.2609253 130.009884,70.815029 C133.620256,69.0447784 137.632355,68.0768716 141.66375,68.0037541 C143.375493,67.9727392 145.157433,68.1203225 146.642787,68.9598243 C147.916643,69.679911 148.85988,70.8443958 149.744772,71.9998907 C152.395346,75.4608318 154.450776,79.5088098 157.220318,82.799693 C160.032403,86.1409192 163.259433,89.4315027 166.821185,91.9960062 C172.537582,96.1118576 178.201105,100.300077 183.812512,104.553923 C198.25947,115.505953 213.064093,126.714943 225.520955,139.896755 C228.577206,143.131152 232.075447,146.729488 233.690406,150.943029 C238.679168,163.959128 228.700125,177.031414 215.846854,170.05784 C202.863219,163.013096 192.032254,148.53345 182.143463,137.999598 C175.925364,131.376029 153.736055,106.543825 149.018656,100.9436" id="Fill-43" fill="#FFB69E"></path>
                <path d="M81.7436359,114.64258 C81.7436359,114.64258 56.9624781,116.00686 52.1986056,155.810886 C48.4475141,187.151264 45.8994208,235.503923 76.2142191,241 L106,195.915444 L84.3300442,114 L81.7436359,114.64258 Z" id="Fill-45" fill="#D4343C"></path>
                <path d="M86.8324093,159.273652 C86.5266809,148.049038 86.1284346,135.875373 83.2080929,125.08614 C83.173759,124.958479 82.9946203,124.975591 83.0001242,125.118395 C83.2120242,130.717149 84.0317118,136.27774 84.513958,141.851657 C85.0158611,147.644855 85.3484537,153.454407 85.5009903,159.273652 C85.801739,170.774788 84.8268939,182.111313 84.5654588,193.581859 C84.554582,194.053583 85.2077112,194.173218 85.2900076,193.695285 C87.2179442,182.52958 87.1414138,170.607148 86.8324093,159.273652" id="Fill-47" fill="#952032"></path>
                <path d="M129.627151,189.160252 C124.30411,192.725295 118.510128,195.474315 112.336699,197.186264 C109.300223,198.028319 106.191871,198.649177 103.060009,198.993915 C100.140033,199.315479 97.155518,199.224743 94.2598,199.694524 C93.897124,199.753059 93.9300673,200.315984 94.2598,200.398143 C100.066061,201.847063 107.131355,200.414996 112.805243,198.894601 C119.137399,197.197399 125.124847,194.436191 130.573373,190.787183 C131.572305,190.117872 130.634917,188.485524 129.627151,189.160252" id="Fill-49" fill="#952032"></path>
                <path d="M125,136.027454 C125,136.027454 115.721578,138.915499 107.710758,130 C107.710758,130 64.0486342,197.659331 61.3595207,211.477417 C57.6322292,230.630382 83.6649265,252.660359 103.395778,201.219545 C108.574666,187.717214 125,136.027454 125,136.027454" id="Fill-51" fill="#FFB69E"></path>
                <path d="M114.115277,144.96038 C117.569838,144.631048 134.874686,136.367065 136.994016,97.1696995 C137.050612,96.1218542 136.70026,95.0924244 136.175181,94.1919035 C135.736791,93.5106812 135.078609,92.964046 134.364879,92.5031966 C134.15841,92.3380704 133.882471,92.1873698 133.651148,92.0423472 C133.355745,91.8658648 133.015574,91.6840111 132.695316,91.5276323 C131.842344,91.095634 130.983981,90.7092142 130.075761,90.3628482 C129.666118,90.1952666 129.276089,90.0533133 128.885911,89.9115135 C128.234166,89.6902198 127.557118,89.4890299 126.899684,89.3133147 C126.593201,89.2284497 126.261714,89.1635348 125.949841,89.1240948 C125.618354,89.05918 125.286867,88.9942651 124.969454,89 C124.741276,89.0180519 124.512948,89.0357002 124.304234,89.0788233 C122.331033,89.5023811 121.182058,91.5366867 120.347651,93.4020294 C117.539145,99.6545724 115.268444,106.137463 113.566242,112.78456 C112.767619,110.203466 112.013913,107.627743 111.260057,105.05248 C110.940398,103.945705 110.562348,102.762198 109.73363,101.93933 C108.924676,101.141629 107.490329,100.844985 106.648136,101.642686 C106.292245,106.303817 107.046699,110.571623 107.256012,115.234443 C107.566837,121.880312 107.192679,128.579125 106.601123,135.203969 C106.429541,137.199142 105.51608,139.912214 106.33821,141.731365 C107.523567,144.291588 111.687966,145.210678 114.115277,144.96038" id="Fill-53" fill="#FFB69E"></path>
                <path d="M130.88007,115.776272 C132.748457,112.228411 133.34172,107.525299 133.959563,103.53494 C134.459503,100.215373 135.111508,96.4813328 134.983746,92.9630124 C134.792241,92.8000108 134.536299,92.6512491 134.321742,92.5080924 C134.047747,92.3338807 133.732229,92.1543668 133.435042,92 C132.939962,95.2747269 132.948711,98.7312401 132.495015,102.011421 C131.867729,106.457911 130.31597,110.918035 130.001147,115.383765 C129.968651,115.860045 130.635516,116.269821 130.88007,115.776272" id="Fill-55" fill="#F68A73"></path>
                <path d="M124.630736,112.851099 C126.654149,109.278735 127.687458,105.376782 128.558819,101.363217 C129.298968,97.8996157 130.106101,94.0593206 129.988518,90.4410511 C129.591983,90.2773822 129.214152,90.1386161 128.836466,90 C128.017444,93.2043714 127.719355,96.6334689 127.02995,99.8543423 C126.126693,104.135539 124.716422,108.261917 124.004835,112.590069 C123.943506,112.922357 124.483141,113.172136 124.630736,112.851099" id="Fill-57" fill="#F68A73"></path>
                <path d="M118.863601,111.739897 C120.818482,107.599142 122.050975,103.08423 123.380653,98.6992703 C124.354735,95.60715 125.414655,92.3616051 126,89.1258533 C125.669484,89.0599445 125.338968,88.994191 125.022485,89.0004089 C123.624435,92.437618 122.643038,96.1627119 121.550275,99.6858824 C120.300017,103.588029 118.872259,107.46748 118.010887,111.513258 C117.900865,112.062602 118.656095,112.159444 118.863601,111.739897" id="Fill-59" fill="#F68A73"></path>
            </g>
        </g>
    </g>
</svg>