<?xml version="1.0" encoding="UTF-8"?>
<svg width="136px" height="214px" viewBox="0 0 136 214" version="1.1" xmlns="http://www.w3.org/2000/svg" xmlns:xlink="http://www.w3.org/1999/xlink">
    <!-- Generator: Sketch 59.1 (86144) - https://sketch.com -->
    <title>Group 64</title>
    <desc>Created with Sketch.</desc>
    <defs>
        <polygon id="path-1" points="0 0.403776562 46.7550018 0.403776562 46.7550018 26.5915731 0 26.5915731"></polygon>
    </defs>
    <g id="Page-1" stroke="none" stroke-width="1" fill="none" fill-rule="evenodd">
        <g id="Extra-large:-Desktops---12-col" transform="translate(-415.000000, -700.000000)">
            <g id="Group-64" transform="translate(415.000000, 700.000000)">
                <path d="M78.9009319,75 C78.9009319,80.3583746 85.1898149,82.6514329 92,84.4003318 C92,84.4003318 84.0301658,95.3175834 68.3401349,94.9928988 C52.6496722,94.6690765 49.4907622,87.8920931 47,84.3235803 C47,84.3235803 58.1844593,80.5282627 58.4712403,75.4458485" id="Fill-1" fill="#EA997D"></path>
                <polygon id="Fill-3" fill="#D87E66" points="0 161 7.71604883 129 29 134.236054 21.529688 161"></polygon>
                <polygon id="Fill-5" fill="#D87E66" points="136 156.808779 130.811495 128 110 132.244724 116.327572 159"></polygon>
                <path d="M24.147658,91 C24.147658,91 13.9031082,95.4021689 4,135.832195 C4,135.832195 9.46610269,143 29.4536692,143 C29.4536692,143 33.9080288,132.143099 34.4646611,128.903661 C36.8417368,115.066857 30.9261633,98.6976521 24.147658,91" id="Fill-7" fill="#E61933"></path>
                <path d="M114.319281,92 C114.319281,92 126.079758,95.3520319 135,138.116068 C135,138.116068 126.97527,144 109.741409,144 C109.741409,144 106.5434,134.042544 106.224374,130.141316 C105.134692,116.846043 108.042951,99.7998708 114.319281,92" id="Fill-9" fill="#E61933"></path>
                <path d="M47.2893569,83 C47.2893569,83 54.9453667,92.7152547 67.5114985,93.3539828 C77.2445371,93.8485371 85.634273,89.0163647 89.9279448,83.5591544 C89.9279448,83.5591544 102.658606,87.3975121 114,91.7894627 C114,91.7894627 109.269873,119.287711 108.329518,124.417214 C106.733621,133.112558 102.845045,161.001829 104.469294,173.581306 C104.483471,173.68826 104.497217,173.795214 104.512253,173.903023 C107.373269,195.116666 90.8665814,214 69.3741659,214 L67.5497313,214 C46.8855498,214 30.5726041,196.471985 32.1904098,175.956108 C32.2118889,175.681451 32.2307905,175.418772 32.2466851,175.1685 C32.6925911,168.099283 33.3485628,136.398606 31.4584021,124.986209 C30.5287868,119.375413 25.8901607,96.4047327 24,91.2277414 L47.2893569,83 Z" id="Fill-11" fill="#E61933"></path>
                <path d="M112.019924,104 C110.590243,112.128864 108.872693,121.853149 108.343979,124.68458 C107.664079,128.324684 107.303252,131.34012 107,134.557186 C107.326985,134.670684 107.638588,134.819865 107.929974,135 C108.23806,131.670725 108.596689,128.591662 109.294609,124.854827 C109.827278,122.00276 111.563727,112.170136 113,104.008598 C112.673454,104.005589 112.346469,104.003009 112.019924,104" id="Fill-13" fill="#AF1731"></path>
                <path d="M26.9709343,103 C26.6450389,103.051568 26.320944,103.107904 26,103.173339 C27.9828307,111.7051 30.1178059,122.158326 30.7709472,125.968324 C31.2989518,129.04813 31.7108225,131.627418 32.0452704,134 C32.3500096,133.861762 32.6705035,133.754292 33,133.678456 C32.6691531,131.351376 32.2631342,128.820188 31.7477333,125.814052 C31.0950421,122.001887 28.9591666,111.559061 26.9709343,103" id="Fill-15" fill="#AF1731"></path>
                <path d="M67.7615483,134.684786 C67.6447321,134.953386 67.3411745,135.073956 67.0828626,134.952957 L65.3022383,134.118838 C65.0443377,133.997839 64.9291668,133.680754 65.0451604,133.411725 L67.239166,128.316478 C67.3551595,128.04659 67.6583058,127.926021 67.9162063,128.047019 L69.6980646,128.881567 C69.9551425,129.002137 70.0707248,129.319651 69.9551425,129.58868 L67.7615483,134.684786 Z" id="Fill-17" fill="#E5E1E1"></path>
                <path d="M75.6114868,130.837132 L71.6341217,129.084299 L71.1670919,128.877965 L67.4234474,127.228501 C67.165038,127.114633 66.7679598,126.853788 66.651511,127.106961 L66.0211237,128.484274 C65.9050864,128.738659 66.293112,129.018886 66.5515214,129.133157 L70.7621957,130.988956 C71.021428,131.102823 70.9514764,130.96271 71.0675138,130.708729 L71.2584405,130.292022 L75.0889073,131.979846 C75.3460822,132.094117 75.7460408,131.696388 75.8624896,131.442811 L75.9678284,131.213864 C76.0834543,130.959883 75.8694847,130.950596 75.6114868,130.837132" id="Fill-19" fill="#B7DDF9"></path>
                <path d="M68.0503022,139.66944 C67.9302346,139.951416 67.6167012,140.077587 67.3515342,139.950518 L62.3133618,137.55552 C62.0460735,137.4289 61.9264302,137.097983 62.046922,136.816007 L63.9501845,132.330436 C64.0698278,132.048011 64.382937,131.922739 64.6493767,132.049358 L69.6875492,134.443908 C69.9535647,134.570527 70.073208,134.901894 69.9535647,135.18387 L68.0503022,139.66944 Z" id="Fill-21" fill="#DDD0D0"></path>
                <path d="M58.197764,168.357017 C57.9486452,168.905154 57.2959019,169.150532 56.7403757,168.904298 L45.651118,163.989473 C45.0955918,163.743239 44.847341,163.099605 45.0973278,162.550611 L57.8015176,134.642695 C58.0506364,134.094129 58.7033797,133.849608 59.2589059,134.095842 L70.3481636,139.010239 C70.9036898,139.256901 71.1528086,139.900962 70.9028218,140.448672 L58.197764,168.357017 Z" id="Fill-23" fill="#F4F4F4"></path>
                <polygon id="Fill-25" fill="#E5E1E1" points="54.2113928 163 53 162.451277 64.7894633 136 66 136.548291"></polygon>
                <polygon id="Fill-27" fill="#9ED0EF" points="58.2531951 168 47 162.899561 56.7485089 141 68 146.09958"></polygon>
                <path d="M55.4704115,132.005837 C55.4704115,132.005837 61.3873156,123.998699 62.601962,124 C63.8166084,124.001301 71.617585,124.559081 71.8677097,125.067416 C72.2176272,125.780039 72.0167565,127.852413 69.47782,127.390922 C66.938027,126.929864 63.9558045,128.13434 63.9558045,128.13434 L60.4921777,133.16 C60.4921777,133.16 66.123837,135.746348 66.8639318,137.019353 C67.6035984,138.291925 70.6363597,143.709245 70.0979921,144.923697 C69.9031176,145.3622 69.1476041,145.419453 68.4803195,144.988323 C67.3033631,144.227556 65.6150218,141.736629 64.7040369,140.253264 L59.8296044,138.299298 L63.8611511,141.287282 C63.8611511,141.287282 68.6957522,148.758327 68.3432649,149.553793 C68.1950746,149.8869 67.505947,150.501932 66.6669158,150.106802 C65.5028083,149.55813 63.6804104,147.200359 61.9081231,144.744565 L57.7369519,142.928527 C57.7369519,142.928527 63.5360748,149.802322 65.0933577,152.740427 C65.8570088,154.181286 65.1336175,155.083884 63.6752708,154.317912 C62.1595326,153.521145 59.8278912,150.963424 56.2306362,147.435009 C56.2306362,147.435009 51.7069778,157.025271 47.3246569,155.909711 C47.3246569,155.909711 37.3505082,153.647795 42.4532224,146.848169 C47.6809988,139.880687 55.4704115,132.005837 55.4704115,132.005837" id="Fill-29" fill="#EA997D"></path>
                <path d="M59.8008556,133 C59.7831487,133 59.7654417,132.997248 59.7477348,132.992202 C59.7324986,132.987614 58.3064717,132.551362 57.1831102,132.443561 C57.0731624,132.433468 56.9916281,132.325208 57.0006874,132.203186 C57.0105704,132.081164 57.1061055,131.987583 57.2172887,132.001345 C58.3772995,132.112357 59.7938552,132.54494 59.8539765,132.563289 C59.9602181,132.595859 60.0219865,132.718799 59.9927495,132.837151 C59.9680421,132.935319 59.8885668,133 59.8008556,133" id="Fill-31" fill="#D87E66"></path>
                <g id="Group-35" transform="translate(0.000000, 147.000000)">
                    <mask id="mask-2" fill="white">
                        <use xlink:href="#path-1"></use>
                    </mask>
                    <g id="Clip-34"></g>
                    <path d="M46.7550018,9.21801094 C46.7550018,9.21801094 18.4571564,34.1120109 5.21042,24.3025734 C5.21042,24.3025734 2.01100182,21.7337766 0.701838182,18.4996828 C-1.00554364,14.2821984 -0.102289091,8.98387031 9.14303818,7.29552656 C27.3576745,3.96735469 41.8947745,0.403776562 41.8947745,0.403776562 L46.7550018,9.21801094 Z" id="Fill-33" fill="#EA997D" mask="url(#mask-2)"></path>
                </g>
                <path d="M72.3457036,159.304607 C72.561824,159.185237 79.777154,153.255111 85.9797684,155.5118 C89.378832,156.748187 96.9525009,156.536459 95.900686,160.364554 C94.2288675,166.44803 91.0901796,167.508848 91.0901796,167.508848 C91.0901796,167.508848 88.2286243,168.983103 85.1818843,171.720754 C84.7758528,172.086268 82.8105745,173.703417 82.5050841,173.811024 C79.582087,174.84091 79.8897257,171.325616 79.8897257,171.325616 C79.8897257,171.325616 72.8127472,173.496046 71.489815,173.418063 C70.1660234,173.340081 69.8871721,171.939017 69.8871721,171.939017 C66.6896204,172.220014 66.3046424,170.534903 66.3046424,170.534903 C66.3046424,170.534903 63.889507,170.063525 63.3975429,168.19544 C62.9047195,166.326483 60.7297656,166.243273 61.0279517,164.108131 C61.2255966,162.694868 61.570616,161.23107 61.7867365,160.353662 C61.8902852,159.93587 62.3792417,159.607822 62.7504705,159.615228 C64.2590171,159.647031 64.5533362,161.265487 64.4742782,161.8937 C64.4742782,161.8937 64.6096221,160.932211 64.9671017,160.829397 C65.8741201,160.567133 66.6591144,161.123463 67.0174533,162.473556 C67.0174533,162.473556 68.5968943,161.382678 72.3457036,159.304607" id="Fill-36" fill="#EA997D"></path>
                <path d="M63.1791712,168 L63.1738669,168 C63.0752696,168 62.9972654,167.936875 63.0000735,167.812203 C63.0303391,166.379659 63.6222351,163.294421 63.6471965,163.162253 C63.6705977,163.041132 63.768259,162.977612 63.8628001,163.007202 C63.9592133,163.036397 64.0178725,163.164226 63.9950953,163.285347 C63.9888549,163.317304 63.3863504,166.43726 63.3573328,167.821277 C63.3548367,167.944371 63.2755844,168 63.1791712,168" id="Fill-38" fill="#D87E66"></path>
                <path d="M66.2645437,170 L66.2529745,170 C66.1062773,170 65.9933621,169.84363 66.0003036,169.708623 C66.1474636,166.735893 66.6486404,162.802301 66.6532681,162.76385 L66.6653,162.704463 C66.679183,162.667721 67.017003,161.798289 68.4557461,162.043524 C69.4085836,162.206303 70,162.789057 70,163.567487 C70,163.702921 69.8815316,163.811013 69.7348344,163.811013 C69.5886,163.811013 69.4701316,163.700785 69.4701316,163.56535 C69.4701316,163.022329 69.0656732,162.640805 68.3594905,162.520751 C67.4857861,162.369508 67.2261738,162.745906 67.1752694,162.838617 C67.1257533,163.235095 66.6694649,166.925159 66.5292465,169.731267 C66.5232305,169.861574 66.4056876,170 66.2645437,170" id="Fill-40" fill="#D87E66"></path>
                <path d="M79.2563124,171 C79.2004632,171 79.1459543,170.983329 79.0990409,170.948704 C78.9864488,170.866202 78.9676835,170.711886 79.0539147,170.605019 C79.0699993,170.585355 80.6722028,168.62712 83.3641371,166.603482 C84.8626844,165.476674 84.4288473,163.490227 84.4239326,163.469708 C84.3864019,163.355146 83.3726262,160.144 84.2134926,157.180358 C84.2510233,157.050408 84.3913166,156.972608 84.5284824,157.008943 C84.6647546,157.044423 84.7442839,157.178648 84.7080936,157.309026 C83.9043111,160.136306 84.9087041,163.313682 84.9189804,163.345742 C84.9457881,163.459449 85.4287724,165.674165 83.6809141,166.988204 C81.0372336,168.975935 79.4734544,170.886721 79.4578166,170.905529 C79.4082224,170.967512 79.3322674,171 79.2563124,171" id="Fill-42" fill="#D87E66"></path>
                <path d="M69.2519505,172 C69.1260009,172 69.0229878,171.923138 69.0209758,171.794487 C69.0141351,171.15452 68.9501543,165.541549 69.0861638,164.886785 C69.1690572,164.48809 69.5959983,164.149815 70.1500962,164.037194 C70.8711881,163.890869 71.5552596,164.181875 71.9797863,164.811567 C72.8155608,166.051632 72.993017,171.215351 72.9998577,171.434428 C73.0042841,171.563901 72.9048925,171.674467 72.7777357,171.678989 C72.6642603,171.693375 72.5443466,171.581987 72.5391154,171.451691 C72.4924376,169.99666 72.2304784,166.017106 71.5999255,165.081611 C71.1428047,164.40424 70.4969607,164.453564 70.2402327,164.505764 C69.8474952,164.585092 69.5746713,164.818555 69.5372486,164.997762 C69.4422834,165.454001 69.4527457,169.297915 69.4821205,171.7875 C69.4837301,171.917795 69.3815217,172 69.2547673,172 L69.2519505,172 Z" id="Fill-44" fill="#D87E66"></path>
                <path d="M73.2332418,170 C73.1413359,170 73.0559367,169.929444 73.018117,169.811316 C72.9685042,169.655238 73.024217,169.475641 73.1433692,169.411499 L75.6768795,168.023898 C75.7956251,167.958153 75.9322639,168.032985 75.9818768,168.187994 C76.0314897,168.344607 75.9757768,168.524204 75.8570312,168.58888 L73.3223009,169.976481 C73.2934279,169.992517 73.2629281,170 73.2332418,170" id="Fill-46" fill="#D87E66"></path>
                <path d="M92.4651428,164.469446 C92.4651428,164.469446 123.086597,177.00061 132.697407,167.345945 C132.697407,167.345945 135.273703,164.052221 135.855061,160.498822 C136.61408,155.86439 134.584037,150.706245 125.168011,151.013054 C106.618077,151.617507 86,156.385922 86,156.385922 L92.4651428,164.469446 Z" id="Fill-48" fill="#EA997D"></path>
                <path d="M43.5244437,30 C43.5244437,30 46.8805584,51.0151982 41.8522317,54.9098752 C38.3133947,57.6530228 40.3402264,63.9915871 43.7885683,65.2792221 C43.7885683,65.2792221 47.3382301,63.2496621 49.211783,64.6841364 C51.9842256,66.8072957 55.7785274,65.5939391 58.2612989,64.5858141 C60.7445034,63.5776891 71.041034,63.740844 73.6580327,65.2878092 C76.2745985,66.8347744 84.1030793,65.718452 88,63.3175002 L88,30.0433648 L43.5244437,30 Z" id="Fill-50" fill="#892B19"></path>
                <path d="M58,80.8579314 C58,80.8579314 58.3514966,80.0358055 58.6354307,74.9856646 C58.9202199,69.9372374 58.640562,57 58.640562,57 L79,57 L79,74.5431132 C79,79.8670105 71.7819181,81.262354 78.5253513,83" id="Fill-52" fill="#EA997D"></path>
                <path d="M68.6278215,71 C63.5895053,71 60.0859243,67.8630353 58.1192708,65.2347446 C58.0903301,60.7929759 58,57 58,57 L78.9649203,57 C78.9649203,57 79.0438496,60.8214242 78.9649203,65.0623559 C77.2780272,67.7165474 73.7981249,71 68.6278215,71" id="Fill-54" fill="#D87E66"></path>
                <path d="M48.1425288,36.0666379 C49.8193075,56.9641815 57.8115507,67 68.0172623,67 C78.1885431,67 86.2974206,58.7137933 87.8937173,36.0666379 C89.0725409,19.3434331 80.3167953,9 68.0172623,9 C55.7190205,9 46.7502344,18.7058006 48.1425288,36.0666379" id="Fill-56" fill="#EA997D"></path>
                <path d="M100,59.8535712 C100,59.8535712 98.1280519,66.8913726 93.1521345,63.8962876 C92.1036884,63.2639919 90.7229974,64.4905505 88.8488946,64.9318177 C86.6972747,65.438778 85.8112882,63.5518312 86.7856148,44.2588163 C87.4669108,30.7684003 75.8529895,26.4974869 75.1643677,21.318972 C75.1643677,21.318972 74.7838589,26.6038059 78.1588814,30.4883404 C78.1588814,30.4883404 74.4313604,31.1824394 72.4103115,30.1430196 C70.3384131,29.0785327 68.7948315,25.5125231 68.0195933,22.5187347 C68.0195933,22.5187347 68.3751084,27.3104385 71.3230819,30.4883404 C71.3230819,30.4883404 67.6511505,31.7836174 66.0282784,28.1579655 C66.0282784,28.1579655 66.4673933,30.1430196 66.7263806,30.6616491 C66.7263806,30.6616491 58.9490049,31.9880438 57.4334336,17.6851084 C57.4334336,17.6851084 52.121393,23.9544739 50.2649582,37.7020436 C49.3307079,44.6162384 44.8253631,37.3009702 44.8253631,37.3009702 C44.8253631,37.3009702 41.6102146,25.7446098 43.7140016,17.3665835 C45.1127916,11.795639 49.744829,7.64703568 56.7047356,8.13065763 C56.7047356,8.13065763 60.3154753,-2.46278077 73.9582023,0.534032979 C79.0418515,1.65081503 82.4379894,3.233067 86.9079981,7.40976271 C90.3851504,10.6585439 94.518174,15.652081 94.0148509,27.9155062 C93.1034397,50.0929652 93.8032656,48.9766154 100,59.8535712" id="Fill-58" fill="#9E3A20"></path>
                <path d="M84.3704613,38.6067153 C84.3704613,38.6067153 85.4225171,35.6849029 89.5591841,36.0280156 C93.5563619,36.359991 92.2008721,46.0738072 88.6814897,47.6749998 C85.163013,49.2749074 84,44.44777 84,44.44777 L84.3704613,38.6067153 Z" id="Fill-60" fill="#EA997D"></path>
                <path d="M51.6303993,38.6201522 C49.9884843,36.2277874 48.826235,35.8475241 46.441495,36.0451413 C42.4429225,36.3766418 43.799484,46.0765626 47.3192967,47.6754648 C50.8382036,49.2730837 52,44.4528514 52,44.4528514 L51.6303993,38.6201522 Z" id="Fill-62" fill="#EA997D"></path>
            </g>
        </g>
    </g>
</svg>