<?xml version="1.0" encoding="UTF-8"?>
<svg width="255px" height="271px" viewBox="0 0 255 271" version="1.1" xmlns="http://www.w3.org/2000/svg" xmlns:xlink="http://www.w3.org/1999/xlink">
    <!-- Generator: Sketch 59.1 (86144) - https://sketch.com -->
    <title>Group 52</title>
    <desc>Created with Sketch.</desc>
    <defs>
        <polygon id="path-1" points="6.03907638e-05 0.044564189 254.965728 0.044564189 254.965728 254.976 6.03907638e-05 254.976"></polygon>
    </defs>
    <g id="Page-1" stroke="none" stroke-width="1" fill="none" fill-rule="evenodd">
        <g id="Extra-large:-Desktops---12-col" transform="translate(-355.000000, -1242.000000)">
            <g id="Group-52" transform="translate(355.000000, 1242.000000)">
                <g id="Group-3" transform="translate(0.000000, 16.000000)">
                    <mask id="mask-2" fill="white">
                        <use xlink:href="#path-1"></use>
                    </mask>
                    <g id="Clip-2"></g>
                    <path d="M254.965789,127.510222 C254.965789,175.875651 228.009918,217.964656 188.315371,239.538434 C188.261623,239.570891 188.207121,239.603197 188.142352,239.624633 C187.828924,239.808355 187.515496,239.981207 187.19165,240.143341 C183.777307,241.968933 180.266188,243.632693 176.668258,245.123601 C161.542485,251.475658 144.925815,254.97603 127.477414,254.97603 C126.66697,254.97603 125.845655,254.965161 125.024794,254.954292 L123.404208,254.921835 C122.874581,254.889529 122.345407,254.87881 121.816233,254.857072 C120.292725,254.781439 118.769217,254.695089 117.267751,254.576281 C116.619456,254.522236 115.971162,254.468041 115.301126,254.403429 C114.663853,254.338666 114.015558,254.28447 113.367112,254.208838 C112.837938,254.144226 112.297742,254.090181 111.757698,254.014398 C111.163,253.938765 110.579625,253.863133 109.996099,253.787652 C104.810345,253.085373 99.7110995,252.058978 94.7628313,250.730355 C94.1465435,250.579242 93.5308597,250.406238 92.9258952,250.233386 C92.3856998,250.082272 91.8349361,249.919987 91.2945897,249.768874 C89.7279023,249.304362 88.1720853,248.807241 86.6485773,248.288835 C86.0328934,248.094546 85.4167567,247.878368 84.8122451,247.662189 C83.5588348,247.219416 82.3268632,246.754903 81.0951936,246.279371 C80.5876092,246.084931 80.0795719,245.879773 79.5721385,245.663745 C79.1290213,245.480023 78.6859041,245.296302 78.2648295,245.123601 C77.5733552,244.84281 76.9033197,244.550999 76.2122984,244.24847 C75.3364813,243.870308 74.4724405,243.459841 73.5972274,243.060091 C73.5649183,243.049373 73.5217389,243.027634 73.4889769,243.006198 C72.657698,242.617167 71.8362327,242.228287 71.0147673,241.80695 C70.3776448,241.504421 69.7402202,241.180455 69.1030977,240.834901 C69.081357,240.834901 69.0703357,240.823881 69.048595,240.813163 C68.8539858,240.715943 68.6492611,240.618572 68.4546519,240.510633 C61.712627,236.978106 55.3166412,232.861957 49.3421829,228.216835 C19.3281243,204.914534 6.03907638e-05,168.464893 6.03907638e-05,127.510222 C6.03907638e-05,69.1628363 39.1971385,19.9871897 92.6884085,4.84125301 C93.5308597,4.60363772 94.3628934,4.37658982 95.2165169,4.16071316 C105.52371,1.47070881 116.327769,0.044564189 127.477414,0.044564189 C137.417281,0.044564189 147.076179,1.17904888 156.356579,3.33962704 C156.972867,3.48002235 157.588551,3.63128697 158.204234,3.7825516 C213.769927,17.513213 254.965789,67.6936673 254.965789,127.510222" id="Fill-1" fill="#ECF5F6" mask="url(#mask-2)"></path>
                </g>
                <path d="M82.6331366,36.9631455 C79.0024925,40.8476521 74.0200641,43.6043454 71.5980796,48.3234637 C67.5433286,56.2237051 72.2798412,66.0974696 69.6765051,74.5835139 C68.5306038,78.3186452 66.051279,81.4720229 63.8231375,84.6852406 C60.5487252,89.4070585 57.6627515,94.6281436 57.0888978,100.339048 C56.5151946,106.049952 58.7192562,112.33706 63.6730898,115.264875 C65.8751949,116.56636 68.6544646,117.303338 69.9182069,119.52237 C70.6938801,120.884294 70.7129935,122.525923 70.9560498,124.073066 C71.7595653,129.189919 75.5729155,133.549996 80.2832412,135.573911 C82.5303456,136.539601 85.1076453,136.324987 87.2500022,137.33402 C89.3920582,138.342753 91.0720814,140.272183 93.370506,141.234274 C102.289694,144.968055 112.670832,142.566653 121.992304,145.145626 C129.474525,147.215883 135.746281,152.343533 143.051514,154.967049 C147.85229,156.691163 152.533118,156.858236 157.560847,156.729257 C161.107663,156.638222 164.369433,157.370401 167.959292,156.744254 C175.573952,155.416074 182.690912,151.15498 187.267744,144.922163 C193.18086,136.870146 194.66102,125.781133 191.065894,116.468726 C190.334016,114.57259 189.398362,112.713048 189.177129,110.693632 C188.718256,106.503027 191.362077,102.690058 192.78279,98.7196159 C194.830031,92.9985136 194.270475,86.4062056 191.287881,81.108933 C188.353145,75.8966964 183.150837,71.7023412 182.270266,65.7904704 C181.689189,61.8875169 183.149633,57.9820139 183.304046,54.039317 C183.5012,49.0012015 181.437403,43.9167437 177.780572,40.4320709 C176.190548,38.9165719 174.323905,37.6959241 172.841789,36.0754426 C170.346812,33.3475444 169.20061,29.7838347 168.094591,26.3392053 C167.133352,23.3452513 165.682389,20.7188863 164.63085,17.7895715 C162.379231,11.5170105 157.581917,6.49764197 151.60228,3.57357632 C144.579834,0.139445165 136.455885,-0.487900918 128.674471,0.309067069 C121.714482,1.02189899 114.188767,3.30542074 110.530732,9.24893623 C110.281957,9.65311928 110.035891,10.0889471 109.625028,10.3280075 C109.057194,10.6585527 108.346536,10.5237251 107.695025,10.4353897 C103.013595,9.80099478 98.3339715,12.2110956 95.082435,15.6267798 C89.4442814,21.5494487 88.5906496,29.7283439 83.5898603,35.8696767 C83.2841963,36.2452144 82.9642349,36.6089042 82.6331366,36.9631455" id="Fill-4" fill="#433323"></path>
                <path d="M182.14305,176.992489 C180.990699,202.467955 187.173936,230.139533 188.11464,255.65875 C187.801173,255.84235 187.487554,256.015239 187.163361,256.177115 C183.747096,258.001651 180.233694,259.66416 176.633578,261.154083 C161.498772,267.501942 144.872011,271 127.412863,271 C126.602078,271 125.780265,270.989289 124.958905,270.978276 L123.337335,270.94584 C122.807386,270.913706 122.277891,270.902844 121.748396,270.881271 C120.223811,270.805689 118.699529,270.719244 117.197152,270.600515 C116.548313,270.546506 115.899624,270.492497 115.229182,270.427777 C114.591672,270.363057 113.942833,270.309048 113.294144,270.233466 C112.764649,270.168745 112.224125,270.114887 111.683602,270.039154 C111.088694,269.963572 110.504965,269.887989 109.921085,269.812558 C104.732181,269.110593 99.629839,268.085027 94.6784149,266.757131 C94.061904,266.606118 93.4458463,266.433229 92.8403634,266.260641 C92.2998399,266.109477 91.7487417,265.94745 91.2082183,265.796436 C89.6405796,265.33208 88.0838177,264.835439 86.5593846,264.317225 C85.9433269,264.123065 85.326816,263.907029 84.7219373,263.691144 C83.4676148,263.248512 82.2350462,262.784307 81.0026286,262.309089 C80.494736,262.114778 79.9863902,261.909755 79.4786487,261.69387 C79.0352624,261.51027 78.5918761,261.326821 78.1705458,261.154083 C77.4785006,260.873478 76.8080582,260.58186 76.1166172,260.27953 C75.2402683,259.901619 74.3757028,259.491573 73.4999582,259.091937 C73.4677806,259.081226 73.4244239,259.059502 73.3917931,259.03823 C72.5598583,258.649456 71.7380452,258.260683 70.916081,257.839624 C70.2784205,257.537446 69.64076,257.213543 69.0030995,256.865502 C68.8420603,236.994744 75.0101909,210.452979 74.9490081,190.496228 C74.8819336,168.656106 68.7231694,153.407787 72.0185796,131.856869 C73.5505662,121.838515 75.9608655,113.131612 86.9595653,112.202448 C86.9595653,112.202448 107.791622,110.442632 107.802197,110.442632 C107.802197,110.442632 110.624158,110.194311 110.634733,110.194311 L126.364145,112.720662 L129.369655,113.195578 L141.823598,110 L143.520703,110.140453 L146.277705,110.377912 C146.277705,110.377912 147.964234,110.518214 147.965594,110.518365 C159.228966,111.471064 169.714637,110.427093 178.102418,119.631994 C183.347369,125.387867 186.214197,132.985172 187.490425,140.662435 C188.994766,149.71059 189.286479,159.954785 188.753358,169.067811 C188.555911,172.442614 182.29578,173.617987 182.14305,176.992489" id="Fill-6" fill="#D4343D"></path>
                <path d="M103.526465,216.527683 L95.8607903,212.932571 C93.3743248,211.76635 92.3052312,208.807975 93.4729058,206.324606 L106.857359,177.857227 C108.024879,175.373859 110.987098,174.306097 113.473409,175.472317 L121.139084,179.067584 C123.625549,180.233495 124.694797,183.192025 123.527123,185.675394 L110.14267,214.142773 C108.974995,216.626141 106.012931,217.693903 103.526465,216.527683" id="Fill-8" fill="#FEFEFE"></path>
                <polygon id="Fill-10" fill="#FEFEFE" points="120.831124 179 114 175.859893 120.168876 163 127 166.140107"></polygon>
                <polygon id="Fill-12" fill="#FEFEFE" points="135.924452 177 122 170.334699 123.075548 168 137 174.665301"></polygon>
                <path d="M25.4988418,226 C25.4988418,226 17.765,222.771653 37.4327266,174.499386 C57.1003054,126.226967 68.6299223,112.509984 86,111 L80.2387378,192.226591 L25.4988418,226 Z" id="Fill-14" fill="#D4343D"></path>
                <path d="M125.618101,185.885811 C125.595078,185.944596 125.571904,186.002772 125.548881,186.060795 C125.23784,186.878454 124.925745,187.69596 124.591229,188.501588 C123.945671,190.112691 123.264601,191.712372 122.537935,193.300174 C122.180245,194.12895 121.788095,194.957878 121.384207,195.786958 C121.153823,196.301098 120.899814,196.826203 120.645804,197.339886 C119.953899,198.752551 118.788434,200.9247 117.011722,200.854493 C116.711966,198.589446 116.954239,196.148958 116.965524,193.860458 C116.965524,193.487037 116.954239,193.090314 116.746426,192.786491 C116.585263,192.55257 116.319516,192.412917 116.065957,192.272656 C114.508343,191.431849 112.939593,190.591346 111.381979,189.750539 C109.224402,191.642165 106.640517,193.008229 103.883129,193.76695 C101.529478,194.420894 98.5990379,193.883911 96.5570297,195.063417 C91.6658408,197.853568 88.0543304,204.076698 83.7510653,207.766594 C75.2027707,215.063844 66.0656494,221.858985 56.5241894,227.767021 C51.0098644,231.188121 44.7688735,235.636738 37.9386045,234.924009 C32.9550211,234.399057 28.2940659,231.30432 25.8481705,226.879917 C23.3909891,222.442722 23.7143698,218.006136 24.9135417,213.289179 C25.2482084,211.946568 25.8019733,210.825695 26.5060673,209.844474 C28.005747,207.789895 30.1976329,206.377229 32.6203544,204.905779 C46.6492666,196.347243 61.4391541,189.739269 76.1485349,182.324907 C86.3930356,177.152291 98.4604462,171.804843 106.34031,163.094776 C109.697661,159.39361 114.058259,154.629899 119.550012,156.369689 C121.476602,156.977032 124.891436,158.238014 125.987679,160.070855 C127.613912,162.802831 124.741558,163.993758 122.422366,163.188283 C120.946011,162.6746 118.684754,162.184219 117.219534,163.0366 C115.569676,164.00579 115.131479,166.527906 114.415949,168.255208 C117.138426,169.201097 119.895964,170.182318 122.249465,171.840022 C124.602966,173.509301 126.55258,175.996695 126.933444,178.880354 C127.233199,181.262362 126.472073,183.632795 125.618101,185.885811" id="Fill-16" fill="#F6B39E"></path>
                <path d="M122,193.647137 C121.652222,194.431281 121.271086,195.215712 120.878246,196 C120.508083,192.829853 119.87983,189.703509 117.715328,187.184509 C114.461992,183.395635 110.513978,184.555424 106.161418,183.848225 C105.892502,183.803989 105.993309,183.440015 106.217748,183.417825 C111.175735,182.986993 115.202464,181.992764 118.825524,186.22371 C120.642834,188.34473 121.58492,190.940387 122,193.647137" id="Fill-18" fill="#F08973"></path>
                <path d="M125,186.407504 C124.978466,186.465765 124.956792,186.523423 124.935258,186.58093 C124.644341,187.391312 124.352439,188.201543 124.039566,189 C123.499955,186.210833 122.939373,183.410647 121.6876,181.003501 C118.946759,175.738512 113.734884,177.011667 109.13848,175.530219 C108.922579,175.460637 108.976203,175.15997 109.181688,175.136876 C113.130672,174.766175 118.838809,174.928281 121.644392,178.480587 C123.241268,180.505711 124.309231,183.398723 125,186.407504" id="Fill-20" fill="#F08973"></path>
                <path d="M165.054697,111.03022 C165.054697,111.03022 185.384252,111.095207 208.320723,142.649566 C231.257345,174.20423 247.71539,210.426133 244.627395,226 L209.122723,215.060425 L175.893136,184.036744 C175.893136,184.036744 164.102692,109.281181 165.054697,111.03022" id="Fill-22" fill="#D4343D"></path>
                <path d="M159,234.572083 C159,234.572083 165.666239,238.230243 163.59827,250 C163.59827,250 215.138956,248.147574 229.375817,242.766337 C254.318808,233.33814 247.811701,202.786335 206.334802,216.471832 C192.776079,220.945367 159,234.572083 159,234.572083" id="Fill-24" fill="#F6B39E"></path>
                <path d="M173.273966,245.862648 C172.317009,247.060357 171.302611,248.269632 169.942061,248.994957 C168.559105,249.732298 166.956308,249.881749 165.43426,250.273024 C159.00187,251.954384 154.159796,257.930915 147.565156,258.817557 C144.072505,259.289942 140.429183,258.253549 137.051715,259.232565 C136.198364,259.474239 135.379898,259.85425 134.504142,259.969004 C133.627633,260.084359 132.636392,259.888646 132.083029,259.197568 C131.886646,258.955893 131.78289,258.656691 131.771763,258.345773 C131.748756,258.080967 131.79477,257.804295 131.910254,257.573735 C131.910254,257.573735 131.921381,257.56262 131.921381,257.551205 C131.990702,257.378022 132.106186,257.239686 132.255805,257.136348 C132.255805,257.124932 132.267083,257.124932 132.267083,257.124932 C132.348132,257.055839 132.44046,257.009878 132.544065,256.975481 C132.497901,256.998012 132.44046,256.998012 132.371139,256.998012 C130.560831,257.055839 120.40437,253.002342 117.994986,251.240324 C117.153514,250.630054 116.623308,249.329006 117.32629,248.568984 C117.672442,248.211805 117.902809,248.050938 118.018143,247.900736 C118.110471,247.797398 118.156634,247.693909 118.156634,247.520726 L118.156634,247.509611 C118.156634,247.348144 118.12235,247.152431 118.064307,246.853379 C117.879652,245.920626 118.39858,244.94161 119.171032,244.377001 C119.943334,243.824409 120.934575,243.893501 121.811084,243.755166 C122.248962,243.686673 122.652556,243.571318 122.998257,243.306362 C123.05615,243.260401 123.102314,243.202423 123.148477,243.13333 C123.298246,242.903371 123.401851,242.546341 123.586356,242.350628 C123.862887,242.03971 124.220317,241.797885 124.589476,241.625303 C125.315614,241.291254 126.122351,241.17605 126.918261,241.083826 C128.63579,240.899378 130.145959,240.657703 131.886646,240.853716 C134.273323,241.129787 136.601958,241.832131 138.976906,242.189311 C139.738081,242.304516 140.532938,242.39674 141.293812,242.258404 C141.328848,242.258404 141.351855,242.247139 141.386139,242.235423 C142.077993,242.108803 142.711954,241.797885 143.334487,241.475102 C143.449821,241.417724 143.565306,241.348632 143.68064,241.291254 C152.199719,236.777389 164.039425,227.011565 173.343136,235.107444 C174.656922,236.247627 175.786804,237.755653 175.971309,239.49469 C176.225284,241.843997 174.749399,244.008706 173.273966,245.862648" id="Fill-26" fill="#F6B39E"></path>
                <path d="M148.838738,245.594571 C146.695851,246.747427 144.7329,247.96494 143.209854,249.861769 C142.285169,250.993119 141.822605,252.652686 140.750794,253.644041 C139.544069,254.764709 137.20933,255.206764 135.754256,255.885518 C133.994485,256.704268 132.438042,257.738633 131.005626,259 C130.983115,258.752056 131.028136,258.493289 131.141128,258.277392 C131.141128,258.277392 131.152016,258.266991 131.152016,258.256449 C131.253532,258.126995 131.366231,257.997541 131.479223,257.868087 C131.479223,257.857545 131.490258,257.857545 131.490258,257.857545 C131.524391,257.814394 131.558083,257.781785 131.592069,257.738633 C132.325196,256.952071 133.19368,256.316469 134.208847,255.723876 C136.058954,254.624714 139.17184,253.956501 140.379007,252.20009 C142.589719,249.01055 144.461894,246.13333 148.59039,245.012521 C148.951731,244.915255 149.165357,245.410862 148.838738,245.594571" id="Fill-28" fill="#F08973"></path>
                <path d="M136.672866,252.99876 C133.101476,252.672016 129.542289,251.968371 126.016436,251.387123 C123.47231,250.95887 121.202151,250.387599 119,249.336722 C119.091372,249.245058 119.137058,249.153527 119.137058,249 C124.795863,250.938515 130.888164,251.101222 136.763642,252.407135 C137.12913,252.488821 137.048919,253.029226 136.672866,252.99876" id="Fill-30" fill="#F08973"></path>
                <path d="M143,241 C141.810208,242.049532 140.749679,243.217183 139.853915,244.643833 C139.170258,245.74012 138.769869,246.931302 138.180737,248.063425 C137.873952,248.629256 137.803711,248.829658 137.22626,248.994839 C137.096691,249.030059 137.013847,248.876874 137.096691,248.782441 C137.485091,248.358106 137.733009,247.73337 137.968478,247.084641 C134.905083,247.226137 131.864898,246.20029 128.930458,245.457436 C126.337693,244.797018 123.509767,244.337002 121,243.334686 C121.447574,243.264553 121.860105,243.146435 122.213461,242.875131 C122.27279,242.828068 122.319975,242.768702 122.367161,242.697954 C124.299785,243.063536 126.22042,243.676584 128.093869,244.148904 C131.487411,244.997419 134.763526,245.870235 138.262967,246.212287 C138.368866,245.917606 138.47538,245.634306 138.593268,245.386534 C139.07604,244.396369 139.665172,243.476336 140.337302,242.604135 C140.548946,242.320836 140.772734,242.049532 141.008663,241.778536 C141.715837,241.648883 142.363682,241.330517 143,241" id="Fill-32" fill="#F08973"></path>
                <path d="M74.950295,126.031589 C74.9722537,126.02427 74.989507,126.004702 74.9763056,125.975126 C74.9620586,125.811263 74.9478116,125.6474 74.9336952,125.483537 C74.9199711,125.116227 74.9180105,124.746078 74.899973,124.379664 C74.880367,123.973218 74.3025132,123.825637 74.2388591,124.277343 C74.2065746,124.505586 74.1860537,124.703507 74.1835703,124.878573 C73.3458719,133.714183 73.3307099,142.694536 72.6305148,151.555241 C71.9176412,160.582199 70.6053473,169.556428 70.0010908,178.585478 C69.9693291,179.062428 70.6410302,179.164152 70.7316098,178.698404 C72.4230835,170.01889 73.02734,160.955783 73.7045307,152.108821 C74.3606777,143.545668 75.2160214,134.663603 74.950295,126.031589" id="Fill-34" fill="#952133"></path>
                <path d="M179.186069,156.093353 C178.67085,151.758982 178.156092,147.42446 177.641641,143.089938 C177.373445,140.827263 177.10172,138.565786 176.819562,136.305359 C176.72198,135.526 176.630689,134.744841 176.526664,133.966531 C176.471582,133.565833 176.414813,133.165136 176.356203,132.765038 C176.081563,131.782406 176.16196,130.812667 176.597395,129.857018 C176.601844,129.903039 176.665671,129.903639 176.670735,129.857018 C176.727811,129.287377 176.500887,129.108989 175.921382,129.007953 C175.74908,128.978271 175.61176,129.031488 175.51249,129.17075 C174.60894,130.430557 175.145332,132.01416 175.290016,133.478289 C175.53259,135.930595 175.816742,138.380053 176.099974,140.828462 C176.644958,145.540146 177.194699,150.251081 177.742138,154.962615 C178.814921,164.20115 179.45135,173.632163 181.313378,182.75677 C181.391014,183.134532 182.011946,183.047586 181.999825,182.665927 C181.713217,173.797809 180.231235,164.901509 179.186069,156.093353" id="Fill-36" fill="#952133"></path>
                <path d="M137.499967,198 C137.499967,198 125.125041,220 137.499967,220 C149.875041,220 137.499967,198 137.499967,198" id="Fill-38" fill="#FEFEFE"></path>
                <path d="M141,110.477491 C140.182475,123.933334 136.604476,144 126,144 C114.218632,144 111,110.535209 111,110.535209 L111.693383,98.8645441 L112.219758,90 L139.457134,90 L140.182475,100.481705 L141,110.477491 Z" id="Fill-40" fill="#F6B39E"></path>
                <path d="M142,101.105948 C138.57537,103.525035 134.312817,105 128.983567,105 C122.596834,105 117.722411,102.876051 114,99.546637 L114.51719,91 L141.287108,91 L142,101.105948 Z" id="Fill-42" fill="#F08973"></path>
                <path d="M156.178812,65.6226505 C156.109999,66.1780652 156.032715,66.6982808 155.929421,67.1831449 C155.310103,70.6213828 155.207255,73.689649 154.123486,77.0221372 C154.114569,77.0398129 154.114569,77.0484984 154.106246,77.0663265 C153.710756,78.2652299 153.280786,79.4642857 152.799243,80.6369802 C151.921914,82.7880884 150.864303,84.8687983 149.54006,86.7465419 L148.998324,87.5312842 C144.595477,93.0767456 138.249366,97 128.936268,97 C119.984475,97 113.741658,93.3764715 109.381912,88.1572495 C109.30433,88.0425095 109.235368,87.9721112 109.167001,87.8573713 C108.023188,86.446816 107.008381,84.9216732 106.114108,83.3259797 C105.365785,82.0121839 104.703663,80.6545036 104.119124,79.2703096 C102.407714,75.2588288 101.307151,71.0446865 100.610549,67.1831449 C100.180579,64.6616079 100,61.708234 100,58.5607317 C100,53.5619994 100.42997,48.0869362 101.006187,43.1674401 C101.87445,37.7365662 102.089361,33.848511 104.144836,31.3711633 C106.277298,28.7790757 111.1874,28.7086775 114.507073,28.9642139 C117.060737,29.1495045 119.485989,30.2955331 121.970839,30.9214984 C127.027188,32.217466 132.289976,31.3711633 137.26904,29.854706 C140.124262,28.9995654 143.013371,27.932773 146.005922,28.0033236 C149.866588,28.0737219 154.484643,29.6695677 155.929421,36.1759195 C155.929421,36.211271 155.929421,36.2906595 155.963901,36.2906595 C157.15037,44.3576579 157.442714,57.114825 156.178812,65.6226505" id="Fill-44" fill="#F6B39E"></path>
                <path d="M130.000057,68.9759398 C130.031158,68.9759398 130.031158,69.0240602 130.000057,69.0240602 C129.968804,69.0240602 129.968804,68.9759398 130.000057,68.9759398" id="Fill-46" fill="#5A4F8B"></path>
                <path d="M112.476365,28.9157112 C115.96428,32.9739235 121.475206,34.5816743 126.748556,35.03726 C132.022056,35.4926922 137.362554,34.9993457 142.598867,35.7824987 C147.253134,36.4787712 151.758652,38.1910549 155.724278,40.7707628 C156.493315,41.2711702 157.269879,41.815632 158.165984,41.9913886 C160.029558,42.3570237 161.905477,40.9296345 162.593665,39.1264792 C163.281853,37.3233239 163.008595,35.2796353 162.42158,33.4396401 C160.704497,28.0561156 156.437609,23.7785529 151.493674,21.2017615 C146.54989,18.6248166 140.962331,17.5954509 135.424004,17.1906735 C125.448059,16.4615522 115.126439,17.7423496 106.250903,22.4429562 C97.3753672,27.1435627 90.1170961,35.5722048 88.1783955,45.5765163 C86.4997039,54.2476871 97.1770858,43.8972348 98.9029012,42.3528792 C100.128271,41.2564343 112.895963,29.4039922 112.476365,28.9157112" id="Fill-48" fill="#433323"></path>
                <path d="M99.7896245,57.3313209 C99.7896245,57.3313209 96.0769731,50.5047942 91.4466308,53.9920837 C87.8404628,56.7081823 90.8379566,73.3812078 102,72.9933403 L99.7896245,57.3313209 Z" id="Fill-50" fill="#F6B39E"></path>
            </g>
        </g>
    </g>
</svg>