<?xml version="1.0" encoding="UTF-8"?>
<svg width="255px" height="273px" viewBox="0 0 255 273" version="1.1" xmlns="http://www.w3.org/2000/svg" xmlns:xlink="http://www.w3.org/1999/xlink">
    <!-- Generator: Sketch 59.1 (86144) - https://sketch.com -->
    <title>Group 35</title>
    <desc>Created with Sketch.</desc>
    <defs>
        <polygon id="path-1" points="0 0.0511612025 254.960248 0.0511612025 254.960248 255.126235 0 255.126235"></polygon>
        <polygon id="path-3" points="0.0688882213 0.121226966 120.909484 0.121226966 120.909484 162 0.0688882213 162"></polygon>
    </defs>
    <g id="Page-1" stroke="none" stroke-width="1" fill="none" fill-rule="evenodd">
        <g id="Extra-large:-Desktops---12-col" transform="translate(-640.000000, -1243.000000)">
            <g id="Group-35" transform="translate(640.000000, 1243.000000)">
                <g id="Group-3" transform="translate(0.000000, 17.000000)">
                    <mask id="mask-2" fill="white">
                        <use xlink:href="#path-1"></use>
                    </mask>
                    <g id="Clip-2"></g>
                    <path d="M254.960248,127.588924 C254.960248,175.173525 228.904804,216.678447 190.291251,238.577466 C189.631633,238.947996 188.971411,239.318828 188.311944,239.678029 C188.265594,239.712317 188.207317,239.746908 188.138472,239.770019 C187.976171,239.862765 187.825798,239.955662 187.663649,240.036474 C187.513276,240.12922 187.351127,240.210637 187.188827,240.29145 C183.774635,242.109356 180.267139,243.776816 176.667548,245.270868 C161.53936,251.628935 144.929182,255.126235 127.474138,255.126235 C126.663694,255.126235 125.841926,255.114453 125.020159,255.103124 L123.399724,255.079862 C122.879306,255.044818 122.346358,255.03364 121.813862,255.010378 C120.297601,254.929414 118.769866,254.847997 117.265381,254.732745 C116.617086,254.674439 115.968791,254.616737 115.297397,254.558582 C114.661029,254.488948 114.012734,254.44333 113.36444,254.361913 C112.832095,254.292278 112.299599,254.245905 111.755479,254.165093 C111.16531,254.095458 110.574688,254.014645 109.995994,253.94501 C104.810541,253.238844 99.7057096,252.207916 94.7637824,250.876245 C94.1500613,250.725193 93.5250169,250.551786 92.9230719,250.390009 C92.3905764,250.227629 91.8349813,250.065399 91.2913135,249.914952 C89.7285515,249.451978 88.1772638,248.95381 86.6495284,248.43238 C86.0362602,248.247492 85.4112158,248.027561 84.8092709,247.807026 C83.5591821,247.367012 82.3320417,246.904039 81.0938801,246.428981 C80.584635,246.232161 80.074786,246.023407 79.577468,245.815409 C79.1257451,245.629918 78.6861004,245.444426 78.2695551,245.270868 C77.5749103,244.993235 76.903516,244.703669 76.2088712,244.390992 C75.340754,244.020764 74.4726368,243.603409 73.5931963,243.209768 C73.5700968,243.197835 73.5237469,243.174724 73.4887202,243.152217 C72.7596528,242.804345 72.0536847,242.480339 71.3359405,242.109356 C71.2319174,242.063135 71.1161181,242.005433 71.0114911,241.947731 C70.3751234,241.646232 69.7387558,241.322226 69.1017842,240.974505 C69.0786847,240.974505 69.0673615,240.974505 69.044111,240.963176 C68.8587114,240.858649 68.6508162,240.766507 68.4534893,240.650499 C68.3263668,240.580865 68.1992442,240.511381 68.0721217,240.441746 C61.4741288,236.95638 55.2005853,232.914388 49.343587,228.351721 C19.3296794,205.040067 -4.52930728e-05,168.572416 -4.52930728e-05,127.588924 C-4.52930728e-05,69.2109261 39.1923526,20.0044833 92.6917753,4.84554138 C93.5250169,4.61382811 94.3585604,4.38241694 95.2147504,4.16248571 C105.528285,1.47542745 116.327663,0.0511612025 127.474138,0.0511612025 C137.416873,0.0511612025 147.07079,1.18601244 156.353756,3.34031144 C156.967024,3.4907589 157.592068,3.64120637 158.205337,3.79165384 C213.764839,17.5266316 254.960248,67.7401359 254.960248,127.588924" id="Fill-1" fill="#EEF6F7" mask="url(#mask-2)"></path>
                </g>
                <path d="M81.6330723,37.1985624 C78.0024226,41.1078114 73.020137,43.8820637 70.5979982,48.6312405 C66.5430905,56.5818028 71.2796104,66.5184585 68.6762702,75.058555 C67.5303671,78.8174773 65.051189,81.9909405 62.8228936,85.224625 C59.5486267,89.9765186 56.6626485,95.2308597 56.0889444,100.978139 C55.5150899,106.725419 57.7190044,113.052725 62.6728456,115.999038 C64.8751046,117.308812 67.6542282,118.050635 68.9181229,120.283651 C69.6937973,121.65425 69.7127602,123.306334 69.9558169,124.863333 C70.7594842,130.012928 74.5728402,134.400777 79.2830227,136.437433 C81.5301306,137.409274 84.1075849,137.193292 86.2497946,138.208601 C88.3920043,139.224061 90.0718796,141.16563 92.3703078,142.133849 C101.28951,145.891413 111.670663,143.474715 120.992301,146.070265 C128.474533,148.153709 134.746148,153.314021 142.051544,155.954096 C146.852327,157.689192 151.533012,157.857479 156.560899,157.727679 C160.10772,157.635913 163.369495,158.372756 166.95936,157.742621 C174.574032,156.406132 181.691002,152.117746 186.267842,145.845228 C192.180817,137.741924 193.660979,126.582279 190.065998,117.210556 C189.333968,115.302343 188.398313,113.430956 188.177229,111.398678 C187.718356,107.181531 190.36203,103.344276 191.782896,99.3483927 C193.82999,93.5908496 193.270433,86.9565517 190.287985,81.6256889 C187.353245,76.3801018 182.150929,72.1591814 181.270356,66.2095039 C180.689278,62.2816904 182.149725,58.3513111 182.303987,54.3835011 C182.501291,49.3132952 180.437492,44.1964517 176.780655,40.6895832 C175.190478,39.1645822 173.323833,37.9360085 171.841864,36.3052052 C169.346733,33.5599316 168.200529,29.9735227 167.094659,26.5069526 C166.133419,23.4940794 164.682453,20.8508348 163.630913,17.9028616 C161.37929,11.5903474 156.581968,6.53900776 150.602323,3.59631718 C143.579716,0.140463137 135.455904,-0.49102978 127.674478,0.311014522 C120.714328,1.02838685 113.188752,3.32645357 109.530711,9.30782648 C109.281785,9.71458399 109.035869,10.1533387 108.625005,10.3939219 C108.057171,10.7264216 107.346512,10.5907351 106.695,10.5018371 C102.013563,9.86340139 97.3339315,12.2890043 94.08239,15.7262939 C88.4442276,21.6866875 87.5905945,29.9176785 82.5897975,36.0982796 C82.284133,36.4760584 81.9641711,36.8420647 81.6330723,37.1985624" id="Fill-4" fill="#433323"></path>
                <g id="Group-8" transform="translate(69.000000, 110.000000)">
                    <mask id="mask-4" fill="white">
                        <use xlink:href="#path-3"></use>
                    </mask>
                    <g id="Clip-7"></g>
                    <path d="M120.909484,145.381834 C120.251141,145.753766 119.592347,146.126154 118.934004,146.486862 C118.887744,146.521446 118.82973,146.55603 118.760867,146.57939 C118.599032,146.672525 118.448949,146.76566 118.286963,146.846811 C118.137032,146.939946 117.975045,147.021856 117.81321,147.103008 C114.40547,148.928542 110.904758,150.602997 107.312127,152.103317 C92.2131959,158.487907 75.6351411,162.00003 58.2140041,162.00003 C57.4051274,162.00003 56.5849493,161.988199 55.7646205,161.976671 L54.1474699,161.953463 C53.6279082,161.918272 53.0959904,161.906896 52.5645247,161.883536 C51.0511959,161.802384 49.5264151,161.720626 48.0248397,161.604738 C47.3777986,161.546188 46.7309082,161.488396 46.0606616,161.429997 C45.4255247,161.36007 44.7784836,161.314109 44.1315932,161.232351 C43.6001274,161.162424 43.0688123,161.116008 42.5255932,161.034704 C41.9367164,160.964778 41.347237,160.883626 40.769511,160.813699 C35.5940863,160.104721 30.4991274,159.069317 25.5667575,157.73221 C24.9542233,157.580525 24.3303877,157.406238 23.7296068,157.243783 C23.1982918,157.080873 22.6437712,156.917963 22.1010041,156.766884 C20.5414151,156.301817 18.9929767,155.801558 17.4681959,155.27794 C16.8561137,155.092429 16.2322781,154.871575 15.6314973,154.650115 C14.383826,154.208103 13.1592096,153.743188 11.9232918,153.266289 C11.4150315,153.068643 10.9063192,152.859013 10.4098123,152.650143 C9.9591137,152.463721 9.52016849,152.277603 9.10442877,152.103317 C8.41127808,151.824519 7.74118219,151.533738 7.04788082,151.219598 C6.18144247,150.847817 5.31500411,150.42871 4.43726438,150.03357 C4.41420959,150.021587 4.36779863,149.998379 4.33283973,149.975626 C3.60518219,149.626294 2.90073014,149.301081 2.18422329,148.928542 C2.49629178,147.24271 2.87752466,145.544744 3.24700411,143.881513 C7.94927808,122.460806 9.0120589,100.236924 6.48145616,78.4559629 C4.02092192,57.1974067 -3.69580411,41.0908449 2.29994932,19.9140472 C4.64475753,11.6458281 8.52685342,3.13294045 17.8608808,2.34250787 C17.8608808,2.34250787 38.6441,0.574766292 38.6554014,0.574766292 C38.6554014,0.574766292 41.4741137,0.318721348 41.4860178,0.318721348 L57.1742781,2.86597416 L60.1662781,3.34241798 L72.5852781,0.121226966 L74.2836479,0.260777528 L77.0330452,0.504991011 L78.7196616,0.644693258 C84.4152507,1.13296854 90.2146616,1.34259775 95.8864425,2.12165393 C116.207812,4.91251348 117.004785,34.1365247 117.882525,49.6964124 C119.546086,79.3281539 109.865182,106.144615 118.379484,136.287384 C118.668347,137.299278 118.957059,138.322547 119.257223,139.357648 C119.823497,141.334867 120.389319,143.346671 120.909484,145.381834" id="Fill-6" fill="#D4343C" mask="url(#mask-4)"></path>
                </g>
                <path d="M131,67.9758511 C131.031252,67.9758511 131.031252,68.0241489 131,68.0241489 C130.968748,68.0241489 130.968748,67.9758511 131,67.9758511" id="Fill-9" fill="#594E8A"></path>
                <path d="M141,111.366438 C140.209725,124.749308 137.961579,135 127.710586,135 C116.32193,135 112,111.423843 112,111.423843 L112.67027,99.8164701 L113.179248,91 L139.508563,91 L140.209725,101.424861 L141,111.366438 Z" id="Fill-11" fill="#FFB69E"></path>
                <path d="M140,101.105948 C136.575389,103.525035 132.312707,105 126.983638,105 C120.596939,105 115.722391,102.876051 112,99.546637 L112.517338,91 L139.287112,91 L140,101.105948 Z" id="Fill-13" fill="#F68A73"></path>
                <path d="M155.164354,66.0774768 C155.094333,66.6248432 155.015693,67.1373704 154.910586,67.6153587 C154.280402,71.0037745 154.17575,74.0274296 153.072966,77.3117782 C153.064043,77.3290477 153.064043,77.3377575 153.055423,77.3551771 C152.652994,78.5368579 152.21548,79.7185386 151.725488,80.8740899 C150.832916,82.9940273 149.756749,85.0447367 148.40912,86.8952706 L147.85788,87.6684914 C143.377781,93.133746 136.920324,97 127.443973,97 C118.334964,97 111.982613,93.4291287 107.546372,88.2855363 C107.467429,88.1724589 107.397257,88.1029306 107.32769,87.9900035 C106.163808,86.599888 105.131196,85.0966952 104.221233,83.5242744 C103.459779,82.2295163 102.786041,80.8915095 102.191245,79.5273733 C100.449808,75.5740213 99.3299346,71.4209443 98.6212613,67.6153587 C98.1837469,65.13021 98,62.2197825 98,59.1178893 C98,54.1915916 98.4375143,48.7957151 99.0236897,43.9476554 C99.9071874,38.5954781 100.125869,34.7637631 102.217408,32.3223136 C104.387437,29.7677869 109.38369,29.6982586 112.761458,29.9502423 C115.359927,30.1326978 117.827883,31.2622699 120.35618,31.8791646 C125.501246,33.1563529 130.856373,32.3223136 135.922797,30.8278306 C138.828116,29.9849314 141.767916,28.9337476 144.812974,29.0032759 C148.741528,29.0726541 153.440459,30.6453752 154.910586,37.0574461 C154.910586,37.0922853 154.910586,37.1705234 154.945672,37.1705234 C156.153109,45.1204762 156.450431,57.6929346 155.164354,66.0774768" id="Fill-15" fill="#FFB69E"></path>
                <path d="M131,67.9758511 C131.031252,67.9758511 131.031252,68.0241489 131,68.0241489 C130.968748,68.0241489 130.968748,67.9758511 131,67.9758511" id="Fill-17" fill="#594E8A"></path>
                <path d="M112.47638,29.5433452 C115.964297,33.4747384 121.475226,35.032247 126.748579,35.4734469 C132.022083,35.9147955 137.362584,35.4368661 142.5989,36.1955456 C147.25317,36.8700596 151.758691,38.5286858 155.724169,41.0279264 C156.493357,41.5126962 157.269921,42.0401435 158.166027,42.2104077 C160.029451,42.564468 161.905522,41.1818334 162.59371,39.4350267 C163.281899,37.68822 163.008491,35.708248 162.421626,33.9259014 C160.704541,28.710612 156.437651,24.5667231 151.493713,22.0703078 C146.549926,19.5740411 140.962213,18.5766943 135.424033,18.1847149 C125.448082,17.4783787 115.126305,18.7191512 106.250764,23.2728638 C97.3752223,27.8265764 90.1169469,35.9918234 88.1783956,45.6835002 C86.499703,54.0836969 97.1770914,44.0566963 98.9029079,42.5606017 C100.128128,41.4984207 112.895978,30.0163675 112.47638,29.5433452" id="Fill-19" fill="#433323"></path>
                <path d="M98.9738376,58.5478547 C98.9738376,58.5478547 95.5705992,51.3800525 91.3261504,55.0416805 C88.0203805,57.8937177 90.7680627,75.4001166 101,74.9930125 L98.9738376,58.5478547 Z" id="Fill-21" fill="#FFB69E"></path>
                <path d="M107.081079,109.999953 C105.167823,106.594291 102.4136,101.748028 99.9994309,98.658221 C99.4645855,97.9753183 98.8800676,97.3009721 98.236347,96.7206007 C96.8912916,95.4999618 94.8280069,94.9877479 93.6666241,96.7973148 C92.413405,98.7434917 92.379905,101.389684 92.555347,103.625899 C92.6304333,104.539239 92.747539,105.42691 92.9147504,106.306171 C93.3157401,108.491194 94.0260275,110.565425 95.0617852,112.486079 C95.696842,113.64697 96.4568019,114.756521 97.3425313,115.789358 C97.4008676,115.866219 97.4677233,115.934524 97.5264928,116.002682 C98.3452221,116.933135 99.2308072,117.786726 100.149604,118.597535 C101.296835,119.610161 102.495761,120.559202 103.679237,121.526537 C104.752682,122.404028 105.983808,123.223393 106.732794,124.426034 C107.025198,124.89517 107.174648,125.525701 106.890042,126 C105.829015,124.730677 104.848706,123.765703 103.501918,122.870214 C102.11802,121.949792 100.792891,120.935691 99.5483356,119.82673 C98.4786447,118.862199 97.4677233,117.837918 96.540552,116.745333 C95.8221783,115.900298 95.1539103,115.004071 94.5436898,114.082174 C92.6389527,111.171466 91.3689836,107.910823 91.0683496,104.368551 C90.9261188,102.695594 91.0014939,100.962889 91.3356279,99.1786965 C91.6782813,97.2924156 92.555347,95.0731661 94.4184978,94.2622099 C96.189668,93.5025931 97.918963,94.5183168 99.2222878,95.713286 C102.864839,99.0167118 105.521739,104.781626 107.869341,109.006801 C108.312061,109.800497 107.523655,110.78524 107.081079,109.999953" id="Fill-23" fill="#FFFFFF"></path>
                <path d="M149.356871,108.894326 C151.379465,105.49021 152.934191,101.744576 155.486323,98.6561716 C156.051581,97.9735788 156.669655,97.2995387 157.350163,96.7194307 C158.771932,95.4993459 160.953281,94.9873644 162.181034,96.7961099 C163.505871,98.7412561 163.541133,101.386248 163.355817,103.621595 C163.27644,104.534521 163.152642,105.421788 162.975875,106.30065 C162.551817,108.484682 161.801091,110.557971 160.706143,112.477754 C160.034641,113.63797 159.231252,114.747017 158.295058,115.779533 C158.233388,115.856212 158.162711,115.924634 158.100583,115.99276 C157.235066,116.922791 156.298719,117.775848 155.327569,118.586436 C153.402059,120.190507 151.335044,121.649477 149.401291,123.261953 C149.003794,123.594623 149.51593,124.183431 149.948537,123.944398 C152.059514,122.767077 154.099816,121.384934 155.963198,119.815073 C157.094018,118.850832 158.162711,117.827164 159.142868,116.735074 C159.902295,115.890423 160.6086,114.994603 161.253846,114.073125 C163.267281,111.163737 164.609826,107.904574 164.92764,104.36391 C165.078152,102.691712 164.998469,100.959646 164.64524,99.1764108 C164.283005,97.290986 163.355817,95.0727438 161.386192,94.2620082 C159.513804,93.5028836 157.685685,94.5181464 156.307878,95.7125732 C152.457164,99.0144996 150.584623,103.962966 148.102862,108.186075 C147.634841,108.979558 148.889003,109.679256 149.356871,108.894326" id="Fill-25" fill="#FFFFFF"></path>
                <path d="M151,122.961784 C150.108005,125.082946 149.929424,125.016293 148.579949,126.871143 L148.033784,127.648562 C143.561419,133.123892 137.104123,137 127.636041,137 C118.535544,137 112.189747,133.412621 107.762556,128.259423 C107.684144,128.148384 107.617214,128.081581 107.539255,127.970693 C106.780818,127.048835 106.133879,126.326936 105.520784,125.482864 L105,107.563575 C107.977699,106.441908 121.546783,100.815819 128.617326,101.004644 C136.635765,101.22672 149.940907,106.879892 149.940907,106.879892 L151,122.961784 Z" id="Fill-27" fill="#FFFFFF"></path>
                <path d="M139.573718,106.036324 C137.120522,105.803654 135.35632,105.263463 133.061784,104.513929 C131.565686,104.025262 130.257922,103.883977 128.682054,104.094797 C125.052136,104.580216 121.93595,106.083124 118.190564,106.016098 C117.952134,106.011965 117.940822,106.330262 118.137677,106.408213 C121.256213,107.638589 124.596284,105.944053 127.668838,105.338166 C132.020068,104.479825 135.407002,107.620578 139.688599,106.888317 C140.201744,106.800475 140.022077,106.078843 139.573718,106.036324" id="Fill-29" fill="#CCCECE"></path>
                <path d="M96.8072845,110.629943 C96.3032592,106.190807 95.7986273,101.752426 95.2944503,97.3132896 C95.1287163,95.8537997 94.9102144,94.2799349 93.8833613,93.2271113 C92.4534699,91.7614185 90.0927086,91.8995458 88.0617473,92.1782211 C84.1070285,92.7207453 79.4632932,93.8585937 76.970157,97.2839394 C75.9757532,98.6503862 75.4891656,100.310486 75.0482192,101.940328 C73.5235577,107.5745 72.5784343,113.242562 71.5955546,118.954951 C58.877406,141.969111 47.541688,166.999203 41.3476653,192.584982 C38.9875105,202.334532 36.4087021,213.741155 39.2434656,223.647895 C43.3780201,238.097404 58.7034839,236.222776 66.441577,225.391052 C76.7560524,210.95289 77.7962491,189.55541 80.3224411,172.506898 C82.4387713,158.22426 84.447746,143.924981 86.3878797,129.617381 C86.4198741,129.381219 86.4172963,129.100123 86.4888667,128.871524 C86.9384561,127.432912 87.3618131,125.985979 88.1343791,124.794272 C89.0704045,123.349003 90.4434338,122.253062 91.8308682,121.173006 C93.8788123,119.578718 95.9585992,118.019679 96.7158503,115.426426 C97.1671077,113.880247 96.9889399,112.22983 96.8072845,110.629943" id="Fill-31" fill="#FFB69E"></path>
                <path d="M159.192776,110.629943 C159.696802,106.190807 160.201434,101.752426 160.70546,97.3132896 C160.871194,95.8537997 161.089848,94.2799349 162.116702,93.2271113 C163.546444,91.7614185 165.907359,91.8995458 167.938322,92.1782211 C171.893045,92.7207453 176.536785,93.8585937 179.029924,97.2839394 C180.024329,98.6503862 180.510765,100.310486 180.951864,101.940328 C182.476527,107.5745 183.421651,113.242562 184.40438,118.954951 C197.122542,141.969111 208.458272,166.999203 214.652301,192.584982 C217.01261,202.334532 219.591269,213.741155 216.756503,223.647895 C212.621944,238.097404 197.296616,236.222776 189.558515,225.391052 C179.244029,210.95289 178.203831,189.55541 175.677636,172.506898 C173.561152,158.22426 171.552327,143.924981 169.612192,129.617381 C169.580197,129.381219 169.582623,129.100123 169.511204,128.871524 C169.061615,127.432912 168.638257,125.985979 167.86569,124.794272 C166.929512,123.349003 165.556482,122.253062 164.169197,121.173006 C162.1211,119.578718 160.041311,118.019679 159.28421,115.426426 C158.832801,113.880247 159.011121,112.22983 159.192776,110.629943" id="Fill-33" fill="#FFB69E"></path>
            </g>
        </g>
    </g>
</svg>