<?xml version="1.0" encoding="UTF-8"?>
<svg width="255px" height="271px" viewBox="0 0 255 271" version="1.1" xmlns="http://www.w3.org/2000/svg" xmlns:xlink="http://www.w3.org/1999/xlink">
    <!-- Generator: Sketch 59.1 (86144) - https://sketch.com -->
    <title>Group 52</title>
    <desc>Created with Sketch.</desc>
    <defs>
        <polygon id="path-1" points="1.50976909e-05 0.0396767318 254.960293 0.0396767318 254.960293 254.99997 1.50976909e-05 254.99997"></polygon>
    </defs>
    <g id="Page-1" stroke="none" stroke-width="1" fill="none" fill-rule="evenodd">
        <g id="Extra-large:-Desktops---12-col" transform="translate(-925.000000, -1248.000000)">
            <g id="Group-52" transform="translate(925.000000, 1248.000000)">
                <g id="Group-3" transform="translate(0.000000, 16.000000)">
                    <mask id="mask-2" fill="white">
                        <use xlink:href="#path-1"></use>
                    </mask>
                    <g id="Clip-2"></g>
                    <path d="M254.960308,127.514464 C254.960308,175.886107 228.002777,217.983602 188.312608,239.559259 C188.254331,239.582359 188.20783,239.616933 188.138381,239.640032 C187.825859,239.825583 187.513337,239.999055 187.189491,240.161204 C187.108718,240.207554 187.027342,240.241977 186.946418,240.288327 C183.612999,242.071062 180.186276,243.680023 176.668061,245.138158 C161.53942,251.493078 144.929242,254.99997 127.474802,254.99997 C126.664358,254.99997 125.842591,254.988647 125.020823,254.97687 L123.400388,254.942297 C122.868044,254.90727 122.346871,254.896098 121.814527,254.872847 C120.286187,254.803398 118.770379,254.710547 117.26529,254.595352 C116.617147,254.537075 115.969456,254.490725 115.29791,254.421275 C114.660939,254.351675 114.012795,254.30608 113.365104,254.224703 C112.832608,254.16703 112.29966,254.108753 111.755992,254.02798 C111.16537,253.95838 110.575353,253.877607 109.996507,253.808007 C104.811054,253.10219 99.7063739,252.071773 94.7638428,250.752234 C94.1505746,250.60171 93.5255302,250.428238 92.9235853,250.254766 C92.3793135,250.10394 91.8356456,249.941639 91.2913739,249.791266 C89.7286119,249.317199 88.1658499,248.830449 86.6500417,248.310032 C86.0363206,248.113309 85.4111252,247.893487 84.8093313,247.684837 C83.5596954,247.233265 82.3207789,246.77052 81.0937895,246.295698 C80.5845444,246.098975 80.0752993,245.902403 79.5660542,245.68243 C79.1264094,245.49703 78.6867647,245.311631 78.2582922,245.138158 C77.5749707,244.860663 76.9041803,244.57124 76.2095355,244.270041 C75.5843401,244.003869 74.970619,243.714446 74.3573508,243.425023 C74.1025018,243.309828 73.8481057,243.193877 73.5932567,243.078078 C73.5588339,243.066151 73.5238073,243.043052 73.4892336,243.020556 C72.6556901,242.638282 71.8339227,242.244384 71.0121554,241.827838 C70.3756368,241.527243 69.7388162,241.202945 69.1022975,240.855849 C69.079198,240.855849 69.0672709,240.843922 69.0447753,240.832599 C68.8480524,240.728123 68.6507256,240.636027 68.4541536,240.5314 C61.7057877,236.98933 55.3164449,232.880645 49.3442513,228.227385 C19.3303437,204.92727 1.50976909e-05,168.47767 1.50976909e-05,127.514464 C1.50976909e-05,69.1652096 39.1930169,19.9832735 92.6918357,4.83183481 C93.5255302,4.60023623 94.3586208,4.36893961 95.2154147,4.1604405 C105.516871,1.46338899 116.327724,0.0396767318 127.474802,0.0396767318 C137.417386,0.0396767318 147.070699,1.17411723 156.353816,3.33867318 C156.967537,3.47772291 157.592733,3.62809591 158.206001,3.77846892 C213.765504,17.5066483 254.960308,67.6952984 254.960308,127.514464" id="Fill-1" fill="#EEF6F7" mask="url(#mask-2)"></path>
                </g>
                <path d="M81.8202397,36.9631284 C78.1630946,40.8476354 73.1442982,43.6043291 70.7046349,48.3234479 C66.6202872,56.2236901 71.3913729,66.0974556 68.7688827,74.5835009 C67.6147687,78.3186325 65.1173467,81.4720105 62.8729414,84.6852286 C59.5746283,89.407047 56.6675891,94.6281327 56.0895467,100.339037 C55.5116559,106.049942 57.7318056,112.337201 62.7217984,115.264867 C64.9399773,116.566351 67.7395337,117.303479 69.0125004,119.522362 C69.7938354,120.884286 69.8129367,122.525915 70.0577671,124.073058 C70.8672994,129.190061 74.7084842,133.55014 79.4531918,135.573905 C81.7166985,136.539595 84.3128106,136.32498 86.4708052,137.334013 C88.6284965,138.342896 90.3207827,140.272177 92.6359841,141.234268 C101.620124,144.96805 112.077036,142.566647 121.4667,145.14577 C129.003536,147.216027 135.321071,152.343679 142.679628,154.967044 C147.515446,156.691159 152.23044,156.858381 157.294868,156.729403 C160.867573,156.638218 164.153152,157.370396 167.769214,156.74425 C175.439456,155.41622 182.608363,151.154975 187.218604,144.922157 C193.174881,136.87014 194.665845,125.781126 191.044477,116.468717 C190.307257,114.572581 189.364774,112.713039 189.141925,110.693623 C188.679703,106.503167 191.342822,102.690198 192.773905,98.7196054 C194.83609,92.9985025 194.272449,86.4061938 191.268084,81.1090706 C188.311927,75.8966835 183.071495,71.7024778 182.184648,65.7904564 C181.599329,61.8875025 183.070434,57.981999 183.225973,54.0393017 C183.424566,49.0011857 181.345705,43.9167274 177.662182,40.4320542 C176.060552,38.9167051 174.180284,37.6959071 172.687349,36.0754254 C170.174161,33.347527 169.019592,29.7838169 167.9055,26.3391871 C166.937245,23.3453827 165.475691,20.7188675 164.416477,17.7895524 C162.148422,11.5169907 157.316091,6.49762163 151.292808,3.57355568 C144.219103,0.139574129 136.035855,-0.487921996 128.197642,0.309046075 C121.186699,1.02187807 113.606203,3.30540007 109.921467,9.24891619 C109.670876,9.65309928 109.423014,10.0890771 109.009152,10.3281375 C108.437173,10.6585328 107.721329,10.5237052 107.065062,10.4353698 C102.349461,9.8009748 97.6356793,12.2112258 94.360409,15.6267604 C88.681101,21.54943 87.8212383,29.7283261 82.7839469,35.8698094 C82.4760518,36.2451973 82.1537549,36.6088871 81.8202397,36.9631284" id="Fill-4" fill="#433323"></path>
                <path d="M244.94815,182.185067 C243.158306,197.265896 230.02687,204.357493 211.21198,197.265896 C199.683946,193.455372 188.504846,189.978646 178.743161,182.94501 C177.127784,187.65317 178.371035,195.711625 178.603708,200.707636 C179.021763,209.526033 180.555591,218.252235 182.090024,226.955312 C183.496071,234.886884 184.890294,242.807496 186.296947,250.739368 C186.622084,252.603863 186.947221,254.480821 187.203086,256.368289 C183.856374,258.141339 180.416138,259.741558 176.883742,261.19177 C161.694773,267.512162 145.018359,271 127.494316,271 C126.68064,271 125.855596,270.988738 125.030551,270.977026 L123.403655,270.94279 C122.869187,270.907804 122.345937,270.896692 121.811469,270.873568 C120.277187,270.804496 118.755334,270.71215 117.244092,270.59758 C116.593364,270.53962 115.94309,270.493522 115.269018,270.42445 C114.629355,270.355228 113.978627,270.30988 113.328353,270.228946 C112.793734,270.171586 112.25866,270.113626 111.712824,270.033292 C111.119847,269.96407 110.527477,269.883736 109.946323,269.814514 C104.740192,269.112531 99.6151562,268.087713 94.6529159,266.775344 C94.0372022,266.625788 93.4096653,266.453108 92.80532,266.280578 C92.2588779,266.130571 91.713042,265.969303 91.1665999,265.819597 C89.5976061,265.348105 88.0287639,264.864 86.5069112,264.34641 C85.8905911,264.150756 85.2629027,263.932128 84.658709,263.724612 C83.4040899,263.275493 82.160233,262.815263 80.9283508,262.343021 C80.417075,262.147367 79.9057992,261.951863 79.394675,261.733235 C78.9531255,261.548692 78.5117275,261.36445 78.0815464,261.19177 C77.3955001,260.915782 76.7220348,260.627932 76.02462,260.32837 C75.3970831,260.063644 74.7807631,259.775793 74.1652009,259.487943 C74.6763252,255.263287 75.8969905,251.107552 76.8728558,246.940106 C81.5558877,226.817018 80.4522413,205.393423 73.6884851,185.857297 C63.5552803,187.94102 53.4911955,193.604928 43.7875654,197.265896 C24.9731305,204.357493 11.8415423,197.265896 10.0518496,182.185067 C8.26215686,167.092976 53.398126,107 53.4101007,107.011862 C53.5263618,107.161418 55.0601892,109.152945 57.4655957,111.720173 C60.6267748,115.104553 65.3216299,119.490778 70.3184302,122.011757 C71.6433818,122.679504 72.9916767,123.208956 74.3279967,123.554166 C74.3625567,123.565878 74.3858999,123.57714 74.4090915,123.57714 C74.4204599,123.589152 74.4442578,123.589152 74.4669946,123.600264 C74.6882999,123.105648 74.850641,122.725752 74.966902,122.460876 C74.9902452,122.391803 75.0134368,122.345555 75.0367799,122.288195 C75.0479968,122.265221 75.0599715,122.242247 75.0713399,122.219274 C75.0713399,122.207261 75.0831631,122.184287 75.0945315,122.161313 C75.1065063,122.126927 75.1178747,122.103953 75.1410663,122.057855 C75.2341357,121.885325 75.3158368,121.689671 75.4083,121.482155 C75.4083,121.482155 76.4779927,119.27215 76.4893611,119.27215 C77.6401485,118.765671 80.6145824,117.545199 85.646549,116.083124 C91.2948357,114.436656 99.5220867,112.50309 110.655106,110.937106 L126.448573,113.458686 L129.458173,113.930328 L141.950856,110.753315 L143.658696,110.891008 L143.740548,110.90272 L143.670822,110.948819 C155.315118,112.571711 163.786865,114.621049 169.446369,116.301752 C175.558942,118.120899 178.394378,119.525013 178.394378,119.525013 C178.394378,119.525013 178.510639,119.283261 178.521856,119.27215 L179.579725,121.482155 L179.858934,122.057855 C179.858934,122.057855 179.870151,122.092691 179.893342,122.161313 C179.974589,122.356967 180.207262,122.852033 180.544222,123.600264 C180.555591,123.589152 180.578934,123.589152 180.590909,123.57714 C180.6141,123.57714 180.637443,123.565878 180.672003,123.554166 C182.008172,123.208956 183.356467,122.679504 184.681418,122.011757 C189.678219,119.490778 194.3852,115.104553 197.545773,111.720173 C199.916468,109.175919 201.438927,107.207366 201.601723,107 C201.601723,107 246.737843,167.092976 244.94815,182.185067" id="Fill-6" fill="#D4343C"></path>
                <path d="M201,107 C201,107 195.646702,107.706612 188.098426,113.478461 C180.550294,119.250165 181.005266,123 181.005266,123 C181.005266,123 200.187355,116.661183 201,107" id="Fill-8" fill="#F73153"></path>
                <path d="M206,174 C206,174 193.121527,170.913297 188.215739,160.519992 C184.71901,153.121255 174.37096,128.936405 169,116 C175.277796,117.826839 178.189946,119.236891 178.189946,119.236891 L178.309509,118.994117 L179.681828,121.791601 C179.681828,121.791601 179.694127,121.826735 179.729622,121.884338 C179.813066,122.080668 180.051879,122.577979 180.385969,123.329373 C183.907139,131.040248 199.7454,165.410764 206,174" id="Fill-10" fill="#952032"></path>
                <path d="M54,107 C54,107 59.3532983,107.706612 66.9015742,113.478461 C74.4497062,119.250165 73.9947341,123 73.9947341,123 C73.9947341,123 54.8126455,116.661183 54,107" id="Fill-12" fill="#F73153"></path>
                <path d="M86,116 C80.6551467,128.830235 70.2500661,153.153872 66.7385902,160.570826 C61.8452877,170.924938 49,174 49,174 C55.2384831,165.443155 71.0359324,131.202254 74.5475636,123.520458 C74.7742707,123.025623 74.9404191,122.645409 75.0596732,122.380566 C75.1787721,122.12684 75.2502004,121.988485 75.2502004,121.988485 L76.619294,119.190283 C77.7981711,118.683581 80.845208,117.46272 86,116" id="Fill-14" fill="#952032"></path>
                <path d="M142,110.344467 C141.182475,123.712899 137.267848,146.027595 128.897163,146 C120.36285,145.971903 112,110.40181 112,110.40181 L112.693383,98.8069591 L113.219758,90 L140.457134,90 L141.182475,100.413615 L142,110.344467 Z" id="Fill-16" fill="#FFB69E"></path>
                <path d="M141,101.105948 C137.453062,103.525035 133.038118,105 127.518695,105 C120.903864,105 115.855354,102.876051 112,99.546637 L112.535661,91 L140.261648,91 L141,101.105948 Z" id="Fill-18" fill="#F68A73"></path>
                <path d="M156.164403,67.0773949 C156.094383,67.6247601 156.015742,68.1374363 155.910636,68.6152734 C155.280451,72.0036818 155.175799,75.0274803 154.073013,78.3116715 C154.06394,78.3290911 154.06394,78.3376507 154.055622,78.3552205 C153.653042,79.5367485 153.215527,80.7184266 152.725535,81.8739754 C151.832962,83.993908 150.756643,86.0446129 149.409164,87.8951428 L148.857923,88.668512 C144.377821,94.1336044 137.920358,98 128.443998,98 C119.334982,98 112.982625,94.4289864 108.54638,89.2854053 C108.467437,89.1723282 108.397265,89.1028001 108.327698,88.9898732 C107.163816,87.5997608 106.131202,86.0967215 105.221238,84.524154 C104.459784,83.2293988 103.786045,81.8913949 103.191249,80.5272617 C101.44981,76.5739184 100.329936,72.4208506 99.6211106,68.6152734 C99.1837471,66.1302804 99,63.2197091 99,60.1178228 C99,55.191536 99.4373635,49.7958215 100.023691,44.9476224 C100.907189,39.5954569 101.125871,35.7637503 103.217412,33.3223063 C105.387442,30.7677852 110.3837,30.6984072 113.761471,30.9502402 C116.359942,31.1326953 118.827749,32.2622649 121.3562,32.8791582 C126.50127,34.1563437 131.856401,33.3223063 136.92283,31.8278266 C139.828152,30.9849292 142.767954,29.9337478 145.813014,30.0032759 C149.741573,30.0726539 154.440508,31.6453715 155.910636,38.0574283 C155.910636,38.0922674 155.910636,38.1705054 155.945722,38.1705054 C157.153008,46.1205908 157.450482,58.6928712 156.164403,67.0773949" id="Fill-20" fill="#FFB69E"></path>
                <path d="M131.000057,68.9759378 C131.031158,68.9759378 131.031158,69.0240622 131.000057,69.0240622 C130.968804,69.0240622 130.968804,68.9759378 131.000057,68.9759378" id="Fill-22" fill="#594E8A"></path>
                <path d="M135.501461,77.0868371 C133.596979,76.9021924 131.74703,77.4002675 129.821564,77.3057371 C127.638659,77.1987936 125.85004,76.5424517 123.803687,76.0213408 C123.220239,75.8726225 122.710535,76.5381548 123.190535,76.8728307 C126.077774,78.8843474 132.780625,80.0085671 135.848308,77.7632309 C136.196928,77.5078078 135.886731,77.1243151 135.501461,77.0868371" id="Fill-24" fill="#F68A73"></path>
                <path d="M112.476355,29.5433452 C115.964268,33.4747384 121.475192,35.032247 126.74854,35.4735956 C132.022039,35.9147955 137.362534,35.4368661 142.598845,36.1955456 C147.25311,36.8700596 151.758626,38.5288345 155.724251,41.0279264 C156.493287,41.5126962 157.269851,42.0401435 158.165956,42.2104077 C160.029529,42.564468 161.905447,41.1818334 162.593786,39.4350267 C163.281823,37.68822 163.008565,35.7083967 162.421551,33.9259014 C160.704468,28.710612 156.437582,24.5667231 151.493649,22.0704565 C146.549867,19.5740411 140.96231,18.576843 135.423985,18.1847149 C125.448044,17.4783787 115.126428,18.7191512 106.250745,23.2728638 C97.3753634,27.8265764 90.1170953,35.9918234 88.1783955,45.6835002 C86.4997045,54.0836969 97.1770822,44.0566963 98.9028969,42.5606017 C100.128266,41.4984207 112.895953,30.0163675 112.476355,29.5433452" id="Fill-26" fill="#433323"></path>
                <path d="M170.680369,81.5562061 C168.251567,85.29548 162.660399,80.4478504 160.749918,78.6822908 C160.085343,78.0681896 159.491288,77.1403547 158.544787,76.9602844 C156.882813,76.6441477 155.802323,78.6904007 156.030286,80.02238 C156.249052,81.2998426 156.992272,82.4131544 157.386265,83.633397 C158.05084,85.6922654 158.639682,87.7759141 159.415556,89.7987384 C160.107879,91.604397 160.894638,93.418466 162.192513,94.86879 C164.83395,97.8205006 169.75855,98.9570908 171.274118,102.808702 C172.286234,105.381049 179.897035,120.427804 180.909458,123 C180.909458,123 192.222102,120.766618 199,111.998593 C199,111.998593 183.843859,93.8077422 184.079181,89.7724562 C184.314657,85.7371703 184.079181,70.7847305 182.549356,68.6916202 C181.019224,66.59851 173.369483,62.8000637 169.015023,62.0474932 C164.660409,61.2949226 159.952888,69.7352468 159.952888,69.7352468 C159.952888,69.7352468 161.600452,76.9748523 163.601228,76.7443203 C165.602005,76.5137883 165.248945,71.4407329 165.248945,71.4407329 C165.248945,71.4407329 168.296945,69.7417047 168.308902,69.7350966 C169.016403,69.3489743 171.314897,78.7009136 171.254035,79.5910524 C171.197006,80.4271251 170.994184,81.072915 170.680369,81.5562061" id="Fill-28" fill="#FFB69E"></path>
                <path d="M84.5680897,81.5562061 C86.7165549,84.8501853 93.5174619,80.3018719 95.4600723,77.6266495 C97.1674201,75.2753735 98.1121658,75.3401026 99.3730073,76.1471899 C100.582885,76.9219876 99.7342155,78.8479434 99.3673105,79.6940784 C97.9460347,82.9704861 97.1664963,86.4630081 95.8816359,89.7987384 C95.1863178,91.604397 94.3961556,93.418466 93.0926651,94.86879 C90.4398017,97.8205006 85.4937435,98.9570908 83.9717728,102.808702 C82.9552781,105.381049 75.311552,120.427804 74.2947493,123 C74.2947493,123 63.2603466,120.766618 56,111.857871 C56,111.857871 71.3474997,93.8077422 71.1111593,89.7724562 C70.8746649,85.7371703 71.1111593,70.7847305 72.6477569,68.6916202 C74.1843545,66.59851 81.8671884,62.8000637 86.2406408,62.0474932 C90.6139392,61.2949226 95.3419791,69.7352468 95.3419791,69.7352468 C95.3419791,69.7352468 93.6871343,76.9748523 91.677702,76.7443203 C89.6682696,76.5137883 90.0230111,71.4407329 90.0230111,71.4407329 C90.0230111,71.4407329 86.9616715,69.7417047 86.949662,69.7350966 C86.2392551,69.3489743 83.9308174,78.7009136 83.9917886,79.5910524 C84.0490646,80.4271251 84.2529179,81.072915 84.5680897,81.5562061" id="Fill-30" fill="#FFB69E"></path>
                <path d="M107.081079,70.500028 C105.167823,66.9877707 102.4136,61.9901903 99.9994309,58.8038126 C99.4645855,58.0995659 98.8800676,57.4041432 98.236347,56.8056324 C96.891436,55.5468428 94.8280069,55.0186197 93.6666241,56.8847441 C92.413405,58.8917483 92.379905,61.620495 92.555347,63.9267546 C92.6304333,64.8686408 92.747539,65.784055 92.9147504,66.6907974 C93.3157401,68.9441129 94.0260275,71.0831729 95.0617852,73.0638572 C95.6969864,74.2608788 96.4569463,75.4052606 97.3425313,76.4703786 C97.4008676,76.5496425 97.4677233,76.6200823 97.5264928,76.6903701 C98.3452221,77.6499043 99.2309516,78.5301746 100.149604,79.3663249 C101.296835,80.4106 102.495761,81.3891515 103.679237,82.3868723 C104.752682,83.291789 105.983808,84.1367633 106.732794,85.3768399 C107.025198,85.8607908 107.174793,86.5110285 106.890042,87 C105.829015,85.691157 104.848706,84.6960225 103.501918,83.7723928 C102.11802,82.8233562 100.792891,81.7775597 99.5483356,80.6339385 C98.4786447,79.6392605 97.4677233,78.5829665 96.540552,77.4562327 C95.8221783,76.5847863 95.1539103,75.6605481 94.5436898,74.7098379 C92.6389527,71.7081557 91.3689836,68.3456021 91.0683496,64.6926172 C90.9261188,62.9673725 91.0014939,61.180512 91.3356279,59.3405553 C91.6782813,57.3953192 92.555347,55.1067076 94.4184978,54.2704052 C96.189668,53.4870467 97.918963,54.5345167 99.2222878,55.7668343 C102.864839,59.1733557 105.521739,65.1186035 107.869341,69.4758351 C108.312061,70.2943375 107.523655,71.3097063 107.081079,70.500028" id="Fill-32" fill="#FFFFFF"></path>
                <path d="M99.789641,59.3312902 C99.789641,59.3312902 96.0770173,52.5048119 91.4467096,55.9920766 C87.8404151,58.7083026 90.8378865,75.3810635 102,74.9933453 L99.789641,59.3312902 Z" id="Fill-34" fill="#FFB69E"></path>
                <path d="M99.7176536,79.733702 C99.4768405,80.2437471 99.2445058,80.6922403 99.0981438,81 C98.1802579,81 97.3963884,80.6059157 96.8069245,79.9911562 C96.3727471,79.5384076 96,78.7564701 96,77.8255921 C96.2495888,77.4739102 96.5336857,77.139706 96.8261122,76.8407612 C98.2031641,75.4074371 99.8726425,74.6248916 100.698755,75.178859 C101.507762,75.7240116 100.518182,78.062985 99.7176536,79.733702" id="Fill-36" fill="#FFB69E"></path>
                <path d="M130.999943,67.9759378 C131.031196,67.9759378 131.031196,68.0240622 130.999943,68.0240622 C130.968842,68.0240622 130.968842,67.9759378 130.999943,67.9759378" id="Fill-38" fill="#594E8A"></path>
                <path d="M135.501319,77.0868371 C133.596995,76.9021924 131.747054,77.4001481 129.821597,77.3057371 C127.638702,77.1987936 125.849943,76.5424517 123.803747,76.0213408 C123.220302,75.8726225 122.710453,76.5381548 123.190598,76.8728307 C126.077676,78.8843474 132.780645,80.0085671 135.848313,77.7632309 C136.196931,77.5078078 135.886736,77.1243151 135.501319,77.0868371" id="Fill-40" fill="#F68A73"></path>
                <path d="M151,83.5718336 C150.108156,85.7520713 149.929424,85.6835668 148.579949,87.589941 L148.033784,88.3887996 C143.56157,94.0163768 137.104123,98 127.636041,98 C118.535544,98 112.189898,94.3131267 107.762556,89.0166289 C107.684144,88.9025063 107.617214,88.8338471 107.539406,88.7200337 C106.780818,87.7724136 106.133879,87.0306162 105.520784,86.1629438 L105,67.7460511 C107.977699,66.5930721 121.546783,60.8107025 128.617326,61.0047729 C136.635916,61.2330182 149.940907,67.0432226 149.940907,67.0432226 L151,83.5718336 Z" id="Fill-42" fill="#FFFFFF"></path>
                <path d="M139.554404,66.0363272 C136.989693,65.803509 135.145294,65.2634653 132.746454,64.5139294 C131.182347,64.0252622 129.815136,63.8839768 128.167479,64.0947976 C124.372708,64.5802169 121.114715,66.0829795 117.199226,66.0161014 C116.949958,66.0118201 116.938132,66.3301181 117.143936,66.4082163 C120.404079,67.6385948 123.895981,65.9440562 127.108205,65.3381679 C131.657231,64.4796784 135.198281,67.6205835 139.674508,66.8883208 C140.210826,66.8004788 140.023145,66.0788457 139.554404,66.0363272" id="Fill-44" fill="#CCCECE"></path>
                <path d="M149.277138,69.3908039 C151.180749,65.873217 152.644016,62.0027286 155.045872,58.811225 C155.578021,58.1058792 156.159592,57.4095234 156.800068,56.8100784 C158.138343,55.5493241 160.19137,55.0202766 161.346898,56.8893137 C162.593656,58.899298 162.626987,61.6324562 162.45243,63.9423155 C162.377866,64.8856718 162.26135,65.8025148 162.094982,66.7106724 C161.69587,68.967505 160.989163,71.1099036 159.95877,73.093527 C159.326771,74.2925693 158.570642,75.438585 157.689521,76.5055178 C157.631335,76.584753 157.564817,76.6554552 157.506344,76.7258527 C156.691741,77.6867322 155.810621,78.5683764 154.896456,79.4059842 C153.084218,81.0635242 151.138942,82.5711268 149.318945,84.2371998 C148.944688,84.5811112 149.426841,85.1895463 149.833998,84.9425457 C151.820794,83.7261326 153.740928,82.2977652 155.494837,80.6755764 C156.559135,79.6793458 157.564817,78.6214031 158.487314,77.4929106 C159.20221,76.6201041 159.866966,75.6944233 160.474254,74.7422293 C162.369246,71.7358619 163.632813,68.36806 163.931931,64.7093734 C164.073589,62.981436 163.99845,61.1916341 163.666,59.348958 C163.325074,57.4006856 162.45243,55.1085019 160.598815,54.2707418 C158.836429,53.4863131 157.115995,54.5354179 155.819097,55.769659 C152.195051,59.1814974 150.432666,64.2950646 148.096755,68.6589447 C147.65641,69.4788769 148.836793,70.2018984 149.277138,69.3908039" id="Fill-46" fill="#FFFFFF"></path>
                <path d="M155.282446,79.733702 C155.523113,80.2437471 155.7556,80.6922403 155.901815,81 C156.819713,81 157.603593,80.6059157 158.193065,79.9911562 C158.627248,79.5384076 159,78.7564701 159,77.8255921 C158.750408,77.4739102 158.466307,77.139706 158.173877,76.8407612 C156.796955,75.4074371 155.127306,74.6248916 154.301183,75.178859 C153.492314,75.7240116 154.481758,78.062985 155.282446,79.733702" id="Fill-48" fill="#FFB69E"></path>
                <path d="M156.336315,58.1274548 C156.336315,58.1274548 159.923104,52.6932291 164.553232,56.1513067 C168.159661,58.8446534 165.162052,75.3780145 154,74.9933961 L156.336315,58.1274548 Z" id="Fill-50" fill="#FFB69E"></path>
            </g>
        </g>
    </g>
</svg>