<?xml version="1.0" encoding="UTF-8"?>
<svg width="163px" height="20px" viewBox="0 0 163 20" version="1.1" xmlns="http://www.w3.org/2000/svg" xmlns:xlink="http://www.w3.org/1999/xlink">
    <!-- Generator: Sketch 59.1 (86144) - https://sketch.com -->
    <title>Fill 1</title>
    <desc>Created with Sketch.</desc>
    <g id="Page-1" stroke="none" stroke-width="1" fill="none" fill-rule="evenodd">
        <g id="Extra-large:-Desktops---12-col" transform="translate(-1017.000000, -1853.000000)" fill="#242424">
            <g id="Group-3" transform="translate(1017.000000, 1853.000000)">
                <path d="M161.457365,12.1934397 L152.009154,12.1934397 L152.009154,14.7743159 L162.550186,14.7743159 C162.74285,14.7743159 163,15.0321648 163,15.2258167 L163,19.2256576 C163,19.4190442 162.74285,19.6774236 162.550186,19.6774236 L146.609799,19.6774236 C146.417135,19.6774236 146.224207,19.4835064 146.224207,19.2901198 L146.224207,0.709614951 C146.224207,0.516228297 146.417135,0.322576367 146.609799,0.322576367 L162.421479,0.322576367 C162.614407,0.322576367 162.871557,0.580690515 162.871557,0.774342446 L162.871557,4.77418328 C162.871557,4.96783521 162.614407,5.22568408 162.421479,5.22568408 L152.009154,5.22568408 L152.009154,7.61290836 L161.457365,7.61290836 C161.650029,7.61290836 161.907179,7.87102251 161.907179,8.06467444 L161.907179,11.7419389 C161.907179,11.9353256 161.650029,12.1934397 161.457365,12.1934397 L161.457365,12.1934397 Z M131.47337,5.22568408 L127.745357,5.22568408 L127.745357,9.77411696 L131.47337,9.77411696 C133.305397,9.77411696 134.333468,8.77428939 134.333468,7.48398392 C134.333468,6.16131471 133.305397,5.22568408 131.47337,5.22568408 L131.47337,5.22568408 Z M121.960938,19.2901198 L121.960938,0.709614951 C121.960938,0.516228297 122.153602,0.322576367 122.34653,0.322576367 L131.987405,0.322576367 C136.743753,0.322576367 140.118416,3.16130145 140.118416,7.48398392 C140.118416,10.225883 138.640002,12.1934397 136.390403,13.2903585 L136.390403,13.3548207 C136.390403,13.3548207 136.807975,13.935246 137.161589,14.483838 L140.054195,18.9675434 C140.214616,19.2256576 140.278838,19.3224835 140.278838,19.451408 C140.278838,19.5805977 140.182638,19.6774236 139.957466,19.6774236 L134.04434,19.6774236 C133.883654,19.6774236 133.690726,19.6129614 133.594262,19.451408 L130.34857,14.3546483 L127.745357,14.3546483 L127.745357,19.2901198 C127.745357,19.4835064 127.552693,19.6774236 127.359764,19.6774236 L122.34653,19.6774236 C122.153602,19.6774236 121.960938,19.4835064 121.960938,19.2901198 L121.960938,19.2901198 Z M103.771216,10.5484594 L102.903302,12.5160161 L107.338543,12.5160161 L106.470629,10.5484594 C105.95633,9.35471463 105.217123,6.87092966 105.217123,6.87092966 L105.024459,6.87092966 C105.024459,6.87092966 104.285252,9.35471463 103.771216,10.5484594 L103.771216,10.5484594 Z M110.262864,19.2580213 L109.330993,17.0965474 L100.910853,17.0965474 L99.978982,19.2580213 C99.8182963,19.6129614 99.6895893,19.6774236 99.3039965,19.6774236 L93.9049058,19.6774236 C93.7122416,19.6774236 93.6480202,19.5482339 93.6480202,19.451408 C93.6480202,19.354582 93.7122416,19.2256576 93.776463,19.0643694 L102.421245,0.322576367 L107.820336,0.322576367 L116.465383,19.0643694 C116.529604,19.1935591 116.593825,19.354582 116.593825,19.451408 C116.593825,19.5482339 116.529604,19.6774236 116.336676,19.6774236 L110.937849,19.6774236 C110.551992,19.6774236 110.423285,19.6129614 110.262864,19.2580213 L110.262864,19.2580213 Z M79.2825116,5.22568408 L76.3259485,5.22568408 L76.3259485,14.7743159 L79.3144901,14.7743159 C82.6891531,14.7743159 84.3279882,12.9354184 84.3279882,9.99986736 C84.3279882,6.96775563 82.2713176,5.22568408 79.2825116,5.22568408 L79.2825116,5.22568408 Z M79.3469973,19.6774236 L70.9268577,19.6774236 C70.7339292,19.6774236 70.541265,19.4835064 70.541265,19.2901198 L70.541265,0.709614951 C70.541265,0.516228297 70.7339292,0.322576367 70.9268577,0.322576367 L79.2825116,0.322576367 C85.6134734,0.322576367 90.1126716,4.09693208 90.1126716,9.99986736 C90.1126716,15.806242 86.3204374,19.6774236 79.3469973,19.6774236 L79.3469973,19.6774236 Z M53.7977145,0.709614951 L53.7977145,17.2257371 L64.4029675,17.2257371 C64.595896,17.2257371 64.8530459,17.483586 64.8530459,17.6772379 L64.8530459,19.2256576 C64.8530459,19.4190442 64.595896,19.6774236 64.4029675,19.6774236 L51.3551869,19.6774236 C51.1625227,19.6774236 50.9695942,19.4835064 50.9695942,19.2901198 L50.9695942,0.709614951 C50.9695942,0.516228297 51.1625227,0.322576367 51.3551869,0.322576367 L53.4121218,0.322576367 C53.604786,0.322576367 53.7977145,0.516228297 53.7977145,0.709614951 L53.7977145,0.709614951 Z M32.9728013,2.4516865 C28.8272172,2.4516865 25.3885971,5.22568408 25.3885971,9.99986736 C25.3885971,14.7095884 28.8272172,17.5483135 32.9728013,17.5483135 C37.1826068,17.5483135 40.5572697,14.7095884 40.5572697,9.99986736 C40.5572697,5.22568408 37.2151139,2.4516865 32.9728013,2.4516865 L32.9728013,2.4516865 Z M32.9728013,0 C38.7574847,0 43.38539,3.74199196 43.38539,9.99986736 C43.38539,16.258008 38.7252419,20 32.9728013,20 C27.2523393,20 22.5604768,16.258008 22.5604768,9.99986736 C22.5604768,3.74199196 27.2523393,0 32.9728013,0 L32.9728013,0 Z M9.3520106,2.77426286 L2.82812031,2.77426286 L2.82812031,8.29042484 L9.9947532,8.29042484 C12.5979665,8.29042484 13.1439805,7.09694534 13.1439805,5.51616198 C13.1439805,3.96774236 12.2123738,2.77426286 9.3520106,2.77426286 L9.3520106,2.77426286 Z M2.82812031,17.2257371 L9.51269625,17.2257371 C12.5979665,17.2257371 13.9474088,16.1290836 13.9474088,13.9676097 C13.9474088,11.8387649 12.5657236,10.7418461 9.51269625,10.7418461 L2.82812031,10.7418461 L2.82812031,17.2257371 Z M9.57691765,19.6774236 L0.385856991,19.6774236 C0.192928495,19.6774236 0,19.4835064 0,19.2901198 L0,0.709614951 C0,0.516228297 0.192928495,0.322576367 0.385856991,0.322576367 L9.416232,0.322576367 C13.7225017,0.322576367 15.9723651,2.51614871 15.9723651,5.51616198 C15.9723651,7.19350603 15.3293582,8.41934928 14.204823,9.29025241 L14.204823,9.35471463 C15.8116795,10.2903453 16.7757934,11.8708633 16.7757934,13.9676097 C16.7757934,17.6772379 14.1083587,19.6774236 9.57691765,19.6774236 L9.57691765,19.6774236 Z" id="Fill-1"></path>
            </g>
        </g>
    </g>
</svg>