<?xml version="1.0" encoding="utf-8"?>
<!-- Generator: Adobe Illustrator 24.0.3, SVG Export Plug-In . SVG Version: 6.00 Build 0)  -->
<svg version="1.1" id="Warstwa_1" xmlns="http://www.w3.org/2000/svg" xmlns:xlink="http://www.w3.org/1999/xlink" x="0px" y="0px"
	 viewBox="0 0 328.32 338.59" style="enable-background:new 0 0 328.32 338.59;" xml:space="preserve">
<style type="text/css">
	.st0{fill:#E5233B;}
	.st1{fill:#FFFFFF;}
</style>
<path class="st0" d="M327.99,223.82l-12.09-34.69c0.2-2.57,0.67-8.78,1.11-15.01c1.23-17.52,1.08-17.99,0.61-19.38
	c-0.72-2.17-2.2-3.29-5.94-5.73c-1.87-1.22-4.43-2.81-7.6-4.74c-1.17-0.71-2.35-1.42-3.47-2.09l20.6-16.73
	c1.8-1.46,2.58-3.85,1.99-6.09l-20.96-79.46c-0.62-2.36-2.67-4.11-5.1-4.37l-120.76-12.6c-0.43-0.04-0.87-0.04-1.3,0.01l-25.13,2.94
	c-1.11-8.86-2.35-18.94-2.44-20.15c-0.05-1.83-0.97-3.55-2.45-4.62c-1.53-1.11-3.52-1.41-5.32-0.81
	c-24.99,8.32-53.79,17.31-59.53,18.2c-0.4-0.08-0.81-0.12-1.22-0.12c-4.36,0-7.15,3.71-10.77,10.57c-1.09,2.06-2.07,4.09-2.77,5.58
	L7.71,57.8c-2.45,0.98-3.95,3.5-3.66,6.12l3.53,31.99l-4.83,3.07c-1.88,1.2-2.92,3.32-2.71,5.54c0.52,5.44,0.88,11.13,0.77,12.18
	c-0.36,3.63,1.91,6.78,9.74,13.49c2.84,2.43,6.28,5.17,8.63,6.88c0.35,3.84-0.05,14.18-0.94,23.91c-0.06,0.63-0.01,1.25,0.13,1.87
	l5.81,25.08l-0.09,25.72c-0.01,2.55,1.61,4.81,4.03,5.62l38.2,12.79l-2.1,3.48c-1.49,2.47-0.99,5.63,1.19,7.52l19.38,16.8
	c1.49,1.3,3.53,1.76,5.43,1.23c1.8-0.49,3.23-1.8,3.91-3.52c-2.07,13.63-1.87,22.99,0.6,28.51c5.03,11.21,17.76,24.4,34.05,35.29
	c16.43,10.97,32.66,17.22,44.71,17.22c0.24,0,0.47,0,0.7-0.01c19.66-0.41,50.51-19.64,66.05-39.08l39.8,10.84
	c0.51,0.14,1.03,0.21,1.55,0.21c1.5,0,2.93-0.57,4.03-1.59c1.51-1.41,2.16-3.46,1.76-5.48c-1.63-8.14-3.59-18.07-4.45-22.79
	c6.15-5.86,26.53-23.68,39.16-34.6c0.9-0.78,1.54-1.81,1.85-2.96l4.18-15.86C328.42,226.13,328.37,224.94,327.99,223.82z
	 M274.33,272.6c-2.01,1.94-3.59,3.47-3.59,6.19c0,0.6,0,1.49,3.2,17.65l-26.95-7.34c0.38-0.78,0.73-1.55,1.03-2.32
	c4.9-12.25,1.98-41.81,0.64-52.97c1.06-1.43,2.1-2.88,3.1-4.37c11.98-17.97,18.32-39.17,18.32-61.31c0-8.94-1.03-17.71-3.06-26.22
	c6.68-29.41-10.15-60.63-66.93-72.12C94.88,48.49,62.22,179.35,62.22,179.35s2.19,3.42,11.36,6.95c2.5,15.49,8.19,30.16,16.85,43.14
	c1.45,2.17,2.99,4.27,4.59,6.31l-0.58-0.12c-2.92-0.59-5.83,1.1-6.77,3.93l-1.84,5.56l-8.93-7.74l3.34-5.53
	c0.93-1.54,1.11-3.4,0.49-5.09c-0.62-1.69-1.96-2.99-3.67-3.56l-41.15-13.78l0.08-22.13c0-0.45-0.05-0.91-0.15-1.35l-5.75-24.84
	c0.19-2.23,0.61-7.46,0.85-12.88c0.19-4.17,0.22-7.58,0.12-10.14c-0.16-3.9-0.6-7.88-3.91-9.85c-0.6-0.35-3.98-2.86-7.85-6.11
	c-4.07-3.42-5.93-5.35-6.67-6.2c-0.02-2.42-0.27-5.99-0.51-8.91l4.9-3.12c1.89-1.2,2.95-3.41,2.7-5.63l-3.44-31.2l55.78-22.46
	c1.44-0.58,2.57-1.68,3.2-3.1c1.91-4.33,4.32-8.95,5.83-11.22c2.74-0.32,9.89-1.97,33.68-9.48c8.17-2.58,16.1-5.16,21.8-7.03
	c0.55,4.54,1.36,11.04,2.42,19.38c0.41,3.2,3.33,5.49,6.54,5.12l30.3-3.54l116.05,12.11l18.95,71.83l-24.22,19.67
	c-1.5,1.22-2.31,3.1-2.17,5.04c0.15,1.93,1.23,3.67,2.91,4.65c6.7,3.92,15.01,8.94,18.76,11.43c-0.26,5.68-1.23,19.26-2.07,29.98
	c-0.06,0.82,0.04,1.63,0.31,2.4l11.9,34.15l-3.25,12.35c-3.43,2.97-11.48,9.96-19.45,16.96c-6.04,5.31-10.87,9.61-14.37,12.78
	C277.08,270,275.45,271.52,274.33,272.6z M258.44,162.39c0.11,1.91,0.18,3.82,0.18,5.74c0,19.87-5.67,38.87-16.39,54.95
	c-0.21,0.31-0.42,0.61-0.63,0.92c-10.94-3.82-53.06-18.11-69.89-17.93c-17.65,0.21-62.76,17.35-67.85,19.31l-1.79,0.69
	c-0.71-0.98-1.42-1.97-2.09-2.99c-6.73-10.09-11.46-21.33-14.06-33.21c4.18,0.91,9.06,1.74,14.77,2.41
	c91.43,6.85,114.65-54.02,114.65-54.02c6.53,22.83-6.53,61.63-6.53,61.63C230.2,193.34,248.01,179.17,258.44,162.39z"/>
<path class="st1" d="M240.04,263.86c0.12-1.15,0.05-2.39-0.13-3.6c-0.57-12.62-2.19-24.45-2.19-24.45s-48.83-17.49-65.8-17.29
	c-15.96,0.19-61.5,17.69-61.5,17.69s-4.06,14.64-5.89,28.44h0.02c-0.1,1.3,0.27,2.42,1.38,3.17c8.99,6.07,47.17,13.91,68.57,13.77
	c19.95-0.13,55.86-7.75,63.47-13.52c1.1-0.83,1.7-2.05,1.97-3.43h0.13C240.05,264.38,240.05,264.12,240.04,263.86z"/>
</svg>
