<?xml version="1.0" encoding="UTF-8"?>
<svg width="8px" height="12px" viewBox="0 0 8 12" version="1.1" xmlns="http://www.w3.org/2000/svg" xmlns:xlink="http://www.w3.org/1999/xlink">
    <!-- Generator: Sketch 59.1 (86144) - https://sketch.com -->
    <title>Group 3</title>
    <desc>Created with Sketch.</desc>
    <defs>
        <polygon id="path-1" points="0 0 8 0 8 12 0 12"></polygon>
    </defs>
    <g id="Page-1">
        <g id="Extra-Small-Devices:-Phones---2-Col" transform="translate(-38.000000, -477.000000)">
            <g id="Group" transform="translate(15.000000, 457.000000)">
                <g id="Group-3" transform="translate(23.000000, 20.000000)">
                    <mask id="mask-2" fill="white">
                        <use xlink:href="#path-1"></use>
                    </mask>
                    <g id="Clip-2"></g>
                    <path d="M4,6.90216917 C2.62367143,6.90216917 1.50791664,5.71462119 1.50791664,4.24982312 C1.50791664,2.78481432 2.62367143,1.59738676 4,1.59738676 C5.37632857,1.59738676 6.49211165,2.78481432 6.49211165,4.24982312 C6.49211165,5.71462119 5.37632857,6.90216917 4,6.90216917 M4.00347922,0.000120425705 L4.00347922,0.000120425705 C4.00226291,0.000120425705 4.00121631,0 4,0 C3.99878369,0 3.99773709,0.000120425705 3.9966905,0.000120425705 C1.78922432,0.00222787554 0,1.90781412 0,4.25713899 C0,5.00143006 0.178769686,5.6992368 0.493115811,6.30606193 L4,12 L7.50688419,6.30606193 C7.82123031,5.6992368 8,5.00143006 8,4.25713899 C8,1.90781412 6.21077568,0.00222787554 4.00347922,0.000120425705" id="Fill-1" mask="url(#mask-2)"></path>
                </g>
            </g>
        </g>
    </g>
</svg>