<?xml version="1.0" encoding="UTF-8"?>
<svg width="42px" height="37px" viewBox="0 0 42 37" version="1.1" xmlns="http://www.w3.org/2000/svg" xmlns:xlink="http://www.w3.org/1999/xlink">
    <!-- Generator: Sketch 59.1 (86144) - https://sketch.com -->
    <title>Group 6</title>
    <desc>Created with Sketch.</desc>
    <defs>
        <polygon id="path-1" points="2.94201769e-05 0.1836125 41.9313137 0.1836125 41.9313137 36.76875 2.94201769e-05 36.76875"></polygon>
    </defs>
    <g id="Page-1" stroke="none" stroke-width="1" fill="none" fill-rule="evenodd">
        <g id="Extra-large:-Desktops---12-col" transform="translate(-230.000000, -1845.000000)">
            <g id="Group-6" transform="translate(230.000000, 1845.000000)">
                <g id="Group-3">
                    <mask id="mask-2" fill="white">
                        <use xlink:href="#path-1"></use>
                    </mask>
                    <g id="Clip-2"></g>
                    <path d="M27.6130508,9.7416375 C28.5741779,9.12998125 27.4114044,8.6048125 26.6885867,8.92278125 C23.6441669,10.2621812 18.3407967,14.1955125 15.3330398,19.1958312 C12.3252829,24.1963812 15.6927083,26.0223312 18.9471282,24.6889437 C18.9471282,24.6889437 17.4323436,24.4891437 17.5729624,22.7295625 C18.0372829,16.919175 24.2762552,11.8645125 27.6130508,9.7416375 M39.594189,3.7818625 C36.271316,0.30640625 28.5609514,-1.5294875 19.2580674,2.38025625 C9.96748177,6.28514375 4.97319448,12.294175 6.08027735,16.3840625 C6.5320674,18.0523 8.45153702,19.7677125 9.6642,20.1867375 C10.5645315,20.498 10.7042221,20.0355 10.2187856,19.6347437 C8.06448729,17.8582813 7.80923867,15.9058375 10.9109735,11.9526187 C15.9321779,5.55254375 24.1787967,2.9040375 30.6437801,2.8041375 C35.9891503,2.7218125 43.0024541,5.586075 37.893537,13.5720625 C32.8103768,21.5178125 25.1248409,25.9326062 17.6214597,29.4517687 C10.1180785,32.9711625 2.21720552,34.3207375 1.89768066,33.5726437 C1.5781558,32.8240875 6.45642099,29.704525 10.7132718,28.0693563 C11.370421,27.8168312 11.2386199,27.2888875 10.4847083,27.4611687 C9.17597901,27.760175 0.121614365,31.3859437 2.9420177e-05,33.9643812 C-0.0208607735,34.4111562 1.44287403,36.7319812 2.70310608,36.7682875 C3.96333812,36.8045938 18.8051171,34.780925 31.5826309,25.3725188 C44.9917691,15.4988375 42.5908077,6.9157625 39.594189,3.7818625" id="Fill-1" fill="#2D2D2C" mask="url(#mask-2)"></path>
                </g>
                <path d="M35.0621531,27.9997829 C36.7514966,27.9702514 38.0105749,25.4820459 37.999933,24.701942 C37.9890825,23.9218381 35.9276912,23.7094476 34.7706496,24.4897878 C34.0296839,24.9892244 33.3728097,28.0295506 35.0621531,27.9997829" id="Fill-4" fill="#2D2D2C"></path>
            </g>
        </g>
    </g>
</svg>